<svg xmlns="http://www.w3.org/2000/svg" viewBox="0 0 120 40">
  <g stroke-width=".1" fontFamily="Arial" fontSize="12" fontWeight="900" textAnchor="middle">
    <g className='test-letter test-letter--1' >
      <g fill={borderFillColor} stroke={borderFillColor}>
        <path d="m14.28 16.9-.98.7-.3.27c-.32.38-.48 1-.48 1.88 0 .87.16 1.5.48 1.87.32.38.76.57 1.32.57.41 0 .76-.1 1.04-.3l.98-.69c-.28.2-.63.3-1.04.3-.56 0-1-.2-1.32-.57-.32-.38-.48-1-.48-1.87 0-.87.16-1.5.49-1.88.09-.1.18-.2.3-.27z"/>
        <path d="M15.28 14.6c-1.13 0-2.06.26-2.8.78l-.97.69c-.17.12-.33.25-.47.4l.98-.7a5.1 5.1 0 0 1 2.28-.47c1.43 0 2.53.38 3.3 1.15a4.33 4.33 0 0 1 1.17 3.22c0 1-.17 1.83-.51 2.47-.21.4-.48.75-.8 1.04l-.67.46c.12-.06.24-.14.35-.22l.97-.68.01-.01c.47-.33.84-.76 1.12-1.28.34-.64.5-1.47.5-2.47 0-1.38-.38-2.46-1.15-3.22a4.5 4.5 0 0 0-3.3-1.16z"/>
      </g>
      <text xmlSpace="preserve" x="14.32" y="24.03" fill={letterFillColor}
                stroke={letterFillColor}><tspan x="14.32" y="24.03">O</tspan></text>
    </g>
    <g className='test-letter test-letter--2'>
      <g fill={borderFillColor} stroke={borderFillColor}>
        <path d="M25.42 16.9c-.48 0-.9.08-1.24.26a2.5 2.5 0 0 0-.46.32l-.55.46v-.9h-2.22l-.91.77h2.22v1.01l.91-.77v-.06l.1-.05c.34-.18.75-.27 1.24-.27.66 0 1.17.2 1.55.59.37.4.56 1 .56 1.82v3.95l.91-.77V19.3c0-.82-.18-1.43-.56-1.82-.37-.4-.89-.59-1.55-.59z"/>
        <path d="m23.6 19.09-.9.78c-.19.21-.28.6-.28 1.17v3l.92-.78v-3c0-.56.09-.95.27-1.17z"/>
      </g>
      <text xmlSpace="preserve" x="23.32" y="24.03" fill={letterFillColor}
                stroke={letterFillColor}><tspan x="23.32" y="24.03">n</tspan></text>
    </g>
    <g className='test-letter test-letter--3'>
      <g fill={borderFillColor} stroke={borderFillColor}>
        <path d="m31.22 18.6-.77.93c-.14.19-.24.47-.28.84h2.35l.77-.92h-2.35c.04-.37.13-.65.28-.84z"/>
        <path d="m30.93 20.59-.76.92c.04.38.15.67.3.86.24.27.54.4.91.4.24 0 .46-.06.67-.17.12-.07.24-.18.37-.34l.05-.06 2.35.22c-.14.23-.28.43-.43.61l.77-.92c.15-.18.29-.39.42-.61l-2.35-.22-.08.1c-.12.14-.23.23-.33.3-.22.11-.44.17-.67.17-.37 0-.67-.14-.9-.4a1.54 1.54 0 0 1-.32-.86z"/>
        <path d="M32.02 16.74a3.57 3.57 0 0 0-2.8 1.15l-.77.93.22-.25c.63-.6 1.5-.9 2.59-.9.89 0 1.6.13 2.1.4.52.27.92.66 1.19 1.17.27.52.4 1.18.4 2v.27l.77-.92v-.27c0-.82-.14-1.49-.4-2a2.8 2.8 0 0 0-1.19-1.17 4.6 4.6 0 0 0-2.1-.4z"/>
      </g>
      <text xmlSpace="preserve" x="31.32" y="24.03" fill={letterFillColor}
                stroke={letterFillColor}><tspan x="31.32" y="24.03">e</tspan></text>
    </g>
    <g className='test-letter test-letter--4'>
      <g fill={borderFillColor} stroke={borderFillColor}>
        <path d="M44.94 16.58c-.46 0-.85.08-1.18.24-.32.16-.65.43-.97.8v-.9h-2.22l-.5 1.09h2.22v.9c.32-.37.64-.64.97-.8.33-.16.72-.24 1.18-.24.5 0 .9.09 1.18.26.29.18.53.44.7.79a4 4 0 0 1 1.03-.83c.31-.15.7-.22 1.15-.22.66 0 1.19.2 1.56.6.38.4.56 1.01.56 1.85v3.91l.5-1.09v-3.9c0-.85-.18-1.47-.56-1.86-.37-.4-.9-.6-1.56-.6-.46 0-.84.07-1.14.22-.31.15-.65.42-1.03.83a2.01 2.01 0 0 0-.7-.79 2.26 2.26 0 0 0-1.19-.26z"/>
        <path d="m47.17 18.95-.5 1.09c-.1.2-.14.46-.14.78v3.21l.5-1.09v-3.21c0-.33.05-.59.14-.78z"/>
        <path d="m43.1 18.94-.5 1.1a2 2 0 0 0-.14.82v3.17l.5-1.09v-3.17a2 2 0 0 1 .14-.83z"/>
      </g>
      <text xmlSpace="preserve" x="45.33" y="24.03" fill={letterFillColor}
                stroke={letterFillColor}><tspan x="45.33" y="24.03">m</tspan></text>
    </g>
    <g className='test-letter test-letter--5'>
      <g fill={borderFillColor} stroke={borderFillColor}>
        <path d="M55.4 16.47c-1.08 0-1.95.31-2.59.93a3.04 3.04 0 0 0-.94 2.02l-.1 1.19a4 4 0 0 0-.02.33l.06-.64c.11-.67.41-1.24.9-1.7a3.6 3.6 0 0 1 2.6-.93c1.25 0 2.19.36 2.83 1.08a3.14 3.14 0 0 1 .75 2.49l.1-1.2.01-.33a3.1 3.1 0 0 0-.77-2.15c-.63-.73-1.57-1.09-2.82-1.09z"/>
        <path d="m54.24 19.74-.1 1.2c0 .55.12.96.34 1.22.23.27.5.4.85.4.34 0 .62-.13.84-.4.18-.2.29-.52.32-.94l.1-1.2a1.6 1.6 0 0 1-.32.95c-.22.26-.5.4-.84.4-.34 0-.63-.14-.85-.4-.23-.27-.34-.68-.34-1.23z"/>
      </g>
      <text xmlSpace="preserve" x="55.33" y="24.03" fill={letterFillColor}
                stroke={letterFillColor}><tspan x="55.33" y="24.03">o</tspan></text>
    </g>
    <g className='test-letter test-letter--6'>
      <g fill={borderFillColor} stroke={borderFillColor}>
        <path d="M63.71 16.47c-.33 0-.62.09-.85.26-.2.14-.4.4-.58.75l-.08-.87h-2.23v6.23l.1 1.2V17.8h2.15l.09 1.02c.21-.44.43-.75.66-.91.23-.17.51-.25.85-.25.35 0 .74.1 1.15.33l-.1-1.2a2.5 2.5 0 0 0-1.16-.33z"/>
      </g>
      <text xmlSpace="preserve" x="62" y="24.03" fill={letterFillColor}
                stroke={letterFillColor}><tspan x="62" y="24.03">r</tspan></text>
    </g>
    <g className='test-letter test-letter--7'>
      <g fill={borderFillColor} stroke={borderFillColor}>
        <path d="m67.51 20.5.21 1.19c.06.3.15.52.29.68.23.27.53.4.9.4.24 0 .46-.06.67-.17.13-.08.27-.2.41-.4l2.35.22-.2-1.18-2.36-.22c-.14.19-.28.32-.41.4-.21.11-.44.17-.67.17-.37 0-.67-.13-.9-.4a1.38 1.38 0 0 1-.29-.68z"/>
        <path d="M68.58 16.49c-1.1 0-1.96.3-2.59.9-.62.6-.93 1.39-.93 2.36a4 4 0 0 0 .06.7l.21 1.18a4 4 0 0 1-.06-.7c0-.97.31-1.76.93-2.36a3.6 3.6 0 0 1 2.59-.9c.89 0 1.6.13 2.1.4.52.27.92.66 1.18 1.17.15.29.26.61.33.99l-.21-1.18a3.5 3.5 0 0 0-.33-.99 2.8 2.8 0 0 0-1.17-1.17 4.6 4.6 0 0 0-2.11-.4z"/>
        <path d="M67.7 20.37h2.35l-.2-1.18h-2.36z"/>
      </g>
      <text xmlSpace="preserve" x="68.85" y="24.03" fill={letterFillColor}
                stroke={letterFillColor}><tspan x="68.85" y="24.03">e</tspan></text>
    </g>
    <g className='test-letter test-letter--8'>
      <g fill={borderFillColor} stroke={borderFillColor}>
        <path d="m80.04 14.31-2.39 1.23v1.14h-.88v1.74l.41 1.13V17.8h.88v-1.14l2.4-1.23zm0 2.37.41 1.13h1.32l-.41-1.13Zm-2.39 1.74v2.2c0 .64.06 1.12.17 1.44l.42 1.12a4.5 4.5 0 0 1-.18-1.44v-2.2z"/>
        <path d="m80.12 21.16.41 1.13c.08.13.21.2.41.2.18 0 .42-.06.74-.16l-.41-1.13c-.32.1-.56.16-.74.16-.2 0-.33-.07-.41-.2z"/>
      </g>
      <text xmlSpace="preserve" x="79.52" y="24.02" fill={letterFillColor}
                stroke={letterFillColor}><tspan x="79.52" y="24.02">t</tspan></text>
    </g>
    <g className='test-letter test-letter--9'>
      <g fill={borderFillColor} stroke={borderFillColor}>
        <path d="M82.48 14.35v1.63l.51 1.08v-1.62h2.39l-.51-1.09z"/>
        <path d="M82.48 16.72v6.22l.51 1.1V17.8h2.39l-.51-1.09z"/>
      </g>
      <text xmlSpace="preserve" x="84.18" y="24.03" fill={letterFillColor}
                stroke={letterFillColor}><tspan x="84.18" y="24.03">i</tspan></text>
    </g>
    <g className='test-letter test-letter--10'>
      <g fill={borderFillColor} stroke={borderFillColor}>
        <path d="M90.7 16.63c-.47 0-.86.08-1.19.24-.21.1-.43.26-.64.46l-.33-.56h-2.22v6.22l.6 1.04v-6.22h1.7l.52.9c.32-.37.65-.64.97-.8.33-.16.72-.24 1.18-.24.5 0 .9.09 1.18.26.24.15.45.36.62.62l.09.17c.38-.4.72-.68 1.03-.83.3-.15.69-.22 1.14-.22.67 0 1.19.2 1.56.6.09.09.16.19.23.3l-.6-1.04a1.63 1.63 0 0 0-.23-.3c-.37-.4-.9-.6-1.56-.6-.45 0-.84.07-1.14.22-.31.15-.65.42-1.03.83l-.04-.08c-.18-.31-.4-.55-.67-.7a2.26 2.26 0 0 0-1.18-.27z"/>
        <path d="M94.37 18.9c.08.13.11.31.11.55v3.54l.6 1.04V20.5c0-.24-.03-.43-.11-.56z"/>
        <path d="M90.35 19c.03.1.04.3.04.56V23l.6 1.04V20.6c0-.27-.01-.46-.04-.55z"/>
      </g>
      <text xmlSpace="preserve" x="92.18" y="24.03" fill={letterFillColor}
                stroke={letterFillColor}><tspan x="92.18" y="24.03">m</tspan></text>
    </g>
    <g className='test-letter test-letter--11'>
      <g fill={borderFillColor} stroke={borderFillColor}>
        <path d="M102.34 18.52c.16.2.26.5.3.9h-2.35l.74.95h2.35a1.7 1.7 0 0 0-.3-.9z"/>
        <path d="M102.58 21.26c-.14.19-.28.32-.41.39-.21.12-.44.18-.67.18-.37 0-.67-.14-.9-.4l.74.94c.23.27.53.4.9.4.23 0 .46-.06.67-.17.13-.08.26-.2.41-.4l2.35.22-.74-.95z"/>
        <path d="M101.38 16.72c-1.1 0-1.96.3-2.59.9-.62.6-.93 1.4-.93 2.37a3.37 3.37 0 0 0 .68 2.1l.74.94-.22-.31c-.3-.5-.46-1.1-.46-1.79 0-.97.31-1.76.93-2.36a3.6 3.6 0 0 1 2.59-.9c.89 0 1.59.13 2.1.4.37.2.67.44.9.75l-.73-.95c-.24-.3-.54-.55-.9-.74a4.59 4.59 0 0 0-2.11-.4z"/>
      </g>
      <text xmlSpace="preserve" x="102.18" y="24.03" fill={letterFillColor}
                stroke={letterFillColor}><tspan x="102.18" y="24.03">e</tspan></text>
    </g>
    <g className='test-letter test-letter--12'>
      <g fill={borderFillColor} stroke={borderFillColor}>
        <path d="M106.06 14.6v1.95l.48 3.93.85.85-.48-3.93v-1.96h2.55l-.85-.85z"/>
        <path d="M106.15 21.08v2.1l.85.85v-2.1h2.38l-.85-.85z"/>
      </g>
      <text xmlSpace="preserve" x="108.18" y="24.03" fill={letterFillColor}
                stroke={letterFillColor}><tspan x="108.18" y="24.03">!</tspan></text>
    </g>
  </g>
</svg>
