<svg xmlns="http://www.w3.org/2000/svg" xml:space="preserve" viewBox="0 0 100 100">
  <g fill="none" stroke="#000" stroke-linejoin="bevel" stroke-miterlimit="0" stroke-width=".2">
    <g>
      <path d="m50.164 50.14.648 3.797S49 52.19 47.947 51.986c.746-.464 2.217-1.844 2.217-1.844z"/>
      <path d="M50.023 50.086s-3.066.007-3.445.078c.552.683.89.85 1.344 1.64.612-.581 2.101-1.718 2.101-1.718z"/>
      <path d="M50 49.984s-2.17-.235-3.473.032c.325-.756.637-1.272.809-2.118.799.447 1.834 1.329 2.664 2.086z"/>
      <path d="M49.984 49.836s-1.522-1.286-2.552-2.055c.503-.148 1.386-.075 2.497-.76.207.915.055 2.815.055 2.815z"/>
      <path d="M50.136 49.961s2.083-1.425 3.346-2.085c-1.247.034-2.699-.32-3.41-.901.301.868.064 2.986.064 2.986z"/>
      <path d="m50.125 50.063 3.469-2.102s-.163 2.176-.038 3.496c-.916-.4-3.431-1.395-3.431-1.395Z"/>
      <path d="m53.484 51.603-2.476 2.288s-.723-3.65-.642-3.646c-.007.29 3.118 1.358 3.118 1.358z"/>
    </g>
    <path d="m50.116 46.757-.442-7.07 5.038-8.442-9.767 5.746z"/>
    <path d="m51.663 47.553-1.591-7.822 10.474.353 1.68 8.132-6.409-5.17z"/>
    <path d="m50.47 39.333 4.42-7.823 6.01 2.696-5.039 1.724z"/>
    <path d="m50.912 54.27-6.143 6.983 5.7 8.795-3.314-9.193z"/>
    <path d="m51 53.961 5.878 2.077-.796-4.729z"/>
    <path d="m51.133 54.05-2.696 6.629 3.535-3.934-3.137 5.878 3.358 7.292 5.127-7.822-4.287-1.945.221-4.11z"/>
    <path d="m53.873 55.817.397 3.58 5.79 2.077-6.85 8.397 12.153-7.292 4.375-10.341-7.468 6.452z"/>
    <path d="m62.049 57.718 7.513-7.116-12.463 4.243Z"/>
    <path d="m54.226 50.293-.353-3.447 1.988-3.138 8.53 7.778-6.939 2.254 1.99-4.596z"/>
    <path d="m48.967 46.89-2.121-4.508-3.182 3.315 2.696-1.37z"/>
    <path d="m48.127 47.067-1.944-1.989-2.254 1.193 2.033-.088-2.298 3.138z"/>
    <path d="m46.227 49.144-13.965 9.9 14.937-2.299 2.166-2.784-8.22 1.989 5.347-2.74z"/>
    <path d="m46.669 57.63-11.004 2.783 2.43 5.701.398-4.64 5.082 7.292 2.033-1.9 2.343 3.093-.442-2.96-4.817-4.2z"/>
    <path d="m43.84 49.851-6.23-2.077 2.209-6.806.088 5.79 2.608.044z"/>
    <path d="m42.957 50.381-11.27 7.867-.795-3.005 1.856.84-2.563-4.243.442-6.232 4.817 7.602-1.282-9.635 4.42 7.38z"/>
    <path d="m43.354 43.575.708-10.12-9.104 3.27s1.856 9.016 1.856 8.84c0-.178 3.491-9.06 3.491-9.06z"/>
    <path d="m45.564 33.985 1.9.31 1.238-3.536-7.115.84 5.038.398z"/>
    <path d="m49.365 33.367.265-3.05 4.95.221-4.066.796 1.282.751z"/>
    <path d="m53.961 38.537 8.397-3.977 5.127 6.408-4.95-4.11-4.596 1.989z"/>
    <path d="m61.562 38.714.354 3.315 1.591-2.873-.663 6.187.398 4.11L65.54 51l-.663-2.696 3.447 2.033 1.282-4.066-4.729.973 3.315-4.597-3.492.398.354-3.182-2.077-1.812z"/>
    <path d="m33.588 38.449 2.563 6.187-3.8-3.668z"/>
    <path d="m31.334 42.029 3.358 7.955-2.74-3.89-1.325-1.281z"/>
  </g>
</svg>
