<svg xmlns="http://www.w3.org/2000/svg" xml:space="preserve" viewBox="0 0 100 100">
  <g>
    <circle cx="50" cy="50" r="20" fill="none" stroke="#ff7f2a"/>
    <circle cx="50" cy="50" r=".2" fill="red"/>
    <g fill="none" stroke="#000" stroke-linejoin="bevel" stroke-miterlimit="0" stroke-width=".2">
      <path d="m50.22 49.72-2.1 1.94.79.93 2.03.22z"/>
      <path d="m50.28 49.84 2.9-2.84.76 3.25-1.85-.75z"/>
      <path d="m50.28 49.72-2.31-1.88.16 3.66Z"/>
      <path d="M48.06 47.88c.09-.06 4.31-.2 4.31-.2l-2.01 1.93z"/>
      <path d="m50.38 49.94 1.43.06 1.75.94-1.87 1.87v-1.69Z"/>
      <path d="M47.07 47.86v1.28L45.65 48l-2.3.36 1.02 1.81 1.06-1.46 1.5 2.17.62-1.06.05-2.79z"/>
      <path d="m31.73 47.24-.44-1.28-.4 2.08.62 1.63-.4 1.95 1.81 2.2 1.64-2.6 3.18 2.56 3.23-2.12-3.05-1.01-.27 1.72-1.23-1.9 1.59-.44-1.5-.93-1.64.22-1.81 1.06 1.8-2.87-2.33 1.37z"/>
      <path d="m41.85 50.78 1.55-.22 1.15.17-1.06.8.4 1.81-1.38-1.72-1.1 2.56-.09.97-1.9.27.62 1.33-1.81-.36-1.5.18.84-1.86 1.98-1.54.98.75.22-1.5z"/>
      <path d="m40.57 56.83.04 1.82.18 1.14-1.85-.26.13-1.46-1.5-.26-1.46 1.72.66 1.15-.97 2.08-.67-2.57-1.72-1.68 1.55-2.07.26 2.12.67-3.4.57 2.3 1.99-.45 1.55 1.2z"/>
      <path d="m37 53.87-1.51-.75-.66-1.1-1.11 1.41-.22 1.1-2.21-1.5.84 2.74.18 1.82 1.23-.76.84-1.06.89.58.4-1.95.97 1.02z"/>
      <path d="m43.62 61.2-.57 1.33.08.93-1.23.36-1.37-1.42-.45.89.49.8-.66 1.14-1.37-1.2-.05 1.02 2.96 2.13-.8-1.64.76-.93L42.47 67l1.55 1.55-1.42-3.19 1.06-1.9 1.68-1.06-1.59.1z"/>
    </g>
  </g>
  <g fill="none" stroke="#000" stroke-linejoin="bevel" stroke-miterlimit="0" stroke-width=".2">
    <path d="m64.97 46.05 3.44-.93-1.77 1.9 2.61 3.94-3.49-2.4-1.59 4.65-.8-4.07-3.13 3.4 1.68-5.47 2.52 1.28z"/>
    <path d="M47.95 59.18 43.8 65.4l1.54 3.4 4.86-.3-3.18-1.25 1.86-1.06-3.32.14z"/>
    <path d="m63.15 49.94-2.6 2.74-.53.97.48 1.77 3.58-.75-1.1-1.5z"/>
    <path d="m65.9 49.23-.5 2.48-1.23 1.85.75 1.37.22 3.36 2.87-2.56-.92-1.33 2.16-.8-1.41-1.58.97-.89-1.9-.26z"/>
    <path d="m54.31 48.97.45 2.03 2.43.18 1.01.92 2.52-2.16-2.56.57-.8-.97z"/>
    <path d="m39.9 55.9 2 .58-.89 1.81-.04 1.95-2.21-.45-1.33-1.37-.13 2.4-.97 2.38L38 65l-.22-3 1.72 2.82.26-3.36 2.52 1.73.84-2.7 1.86.22-2.39-2.2.27-1.95-1.28-.97z"/>
    <path d="m43.93 57.54-.49 1.1 2.04-.92.26 2.38-1.24 2 2.04-1.29 1.54-3.14 3.36-1.76-2.25-.31.44-1.9-1.33-.89-.04 2.26-2.65-.23.53 2.17z"/>
    <path d="m50.03 53.92-.27 1.28 1.86.26.48 1.37-2.2.62-1.46 1.5 1.72 1.42-2.2 1.81 4.68.13-1.42-3.4 2.65 1.2-.75-3.67 1.86-1.73-1.95-.57-1.19-.93z"/>
    <path d="m54.14 56.21 1.77.93 2.03-.4-.66 2-1.29-.58.89 3.4 2.78-.93-1.68 2.04-2.34-.49-.04-2.03-1.5-1.55z"/>
    <path d="m54.54 59.75-.58 1.33-1.72-1.24 1.15 2.92-3 .04 2.69 2.87 1.94-.66 1.55 2.34.88-2.3 1.42 1.6-.75-3.28-1.82.23-.62-.93-1.19-.58z"/>
    <path d="m47.29 62.8.62 1.77-1.5 1.06 3.4.13-1.86 1.55 3.14.8 1.5 1.01 1.46-1.55 2.12.62-1.2-2.34-2.47.93-.57-1.86-2.12-.66.09-1.46z"/>
    <path d="m53.87 50.65-.3 1.5-1.24.66 1.45.89h1.64l-.27 1.98.93.76 1.81-.71-.17-1.64 1.72-.26.44-2.12-3.27 1.37.4-1.46-2.08.26z"/>
    <path d="m58.12 54.58.57 1.5-1.2.18 1.47.62-1.2 1.5.22.7-1.32-.35.48 2.3.98-1.28 2.2.7-.22-2.25 1.95-1.15-2.34-.8-.53-.92.66-1.02z"/>
    <path d="m61.6 55.5-1.14.36 2.25 1.1-2.12 1.5.31 2.35-1.41.93 2.16 1.24.31-2.79 2.52.4 1.68-1.99-1.64.05.18-1.9-.88-.54.4-1.19z"/>
    <path d="m67.93 56.75-2 1.37.67.66-1.2 1.37-.74 1.28-2.04-.75-.62 2.56 2.13-.53.4-.62 1.19-.8.7-1.5 1.1-1.45z"/>
    <path d="m53.96 47.2.58 1.15 1.14-.18 1.64.62.97 1.15 2.52-1.2.4-2.2-1.95 1.32-1.06-1.81.98-1.33-2.35-1.41.62 1.64-2.38-1.1 1.28-1.11-3.18.66 1.94 1.32z"/>
    <path d="m59.22 46.1.84-1.77-1.41-.45-.89-1.01 1.15-1.06 2.48.84.48 1.68 2.6-.05-.39 1.81.31 1.6-1.99-.84-.53-1.29-.13 1.2-.7-1.37z"/>
    <path d="m65.05 45.39 1.37-.97 2.3.44-.93-2.52-1.45 1.06.08-2.83-2.74.35-.35 1.55-2.12-2.39.66 2.7.53 1.06 2.39-.4z"/>
    <path d="m65.9 39.9-1.16-2.42-2.07-1.06-3.18 1.28 3.75.84-3.1.66 1.56.35 1.28 2.04 1.01-2.17z"/>
    <path d="m60.59 39.9.57 1.95-1.45-.48-.67-1.1-1.68 1.23.18 1.68-1.77-1.42.84-2.16.05-2.08 1.59 1.5 2.03-.8-.57 1.6z"/>
    <path d="m61.39 34.7-1.73 1.36-.7 2.04-1.11.04-.57-1.15-1.73-.3.27 2.29-1.86-3.1 2.08-1.05 1.77 1.5.48-2.52z"/>
    <path d="M58.96 33.45 56.92 32l-2.12.92-.66-1.19-2.48 1.81 2 .84-3.72 2.26 3.45.8.8-3.06 2.29-.53z"/>
    <path d="m54.1 37.52.97 1.15.17 1.55.58.3-1.24 2.3-3.36-.84.22 2.74-1.77-1.45L50.73 41l-2.07.05.3-3.23 2.08 1.86.05-1.9 1.77.57-.98 1.41 1.55 1.2.13-3z"/>
    <path d="m51.75 42.56.35 2.12-2.43.84.4 1.02 1.28.8 1.46-1.73.84 1.28.75-1.68-1.54-.53z"/>
    <path d="m47.64 52.68.22 1.72-2.3-.48-.61 1.59.75 1.06-2.61 1.1.62-1.59-2.03-1.01 1.01-2.57 1.1 2.34 1.55-5.43z"/>
    <path d="m49.67 47.07-1.32-2 2.12-.3-2.48-1.64 2.17-1.59-2.6-.04.92-3.63-3.18 1.02.84 1.5-3.1 1.82 3.32 1.28-.04-2.04.92 1.46-1.01 2.3z"/>
    <path d="m49.36 36.02.27 1.2 1.2 1-2.44-.94-1.77.64 1.2-2.08-2.57-1.68 3.58-1.94-.66 2.38 2.48-3.09 2.74-.18-2.52 1.64.84 1.68-.62.84z"/>
    <path d="m47.29 36.06-1.64 1.81-2.78-.84 1.1-1.94-3.53.66 1.99-2.38 1.76-1.2 2.3-1.15 3.1-.08-4.2 1.68-1.28 1.67z"/>
    <path d="m41.63 33.06-2.83 1.23.27 2.13-2.04.88.62-1.6-2.03 2.4 2.21 1.32 1.15-1.94.7 2.03 1.46-2.12 1.55.84-.4-1.9.89-.8-3.36 1.02z"/>
    <path d="m44.6 38.14-1.38-.7-.62 1.72-.66-.84-1.77 1.37-.13 2.12 1.28-.4-1.06 3.36 1.33-1.64L42.78 45l1.9-1.02-2.17-1.5v-2.16l1.37.44 1.07-.71z"/>
    <path d="m38.85 38.67-.89 1.41-1.28-.84-1.72.98-.13-1.9-1.95 2.87 2.21 2.65-.8-2.65 1.33-.18.31 1.86L37.08 41l2.12 2.12-.8-2.2 1.29-.85z"/>
    <path d="m39.33 41.9.4 1.41-1.06.62-.84-1.6-1.06.14-.53 1.15-.84-.88-.13 2.47-2.21-2.16-1.02 1.06 1.46.92-1.72.36 2.03 2.65.04-2.17 1.6 1.6-1.07 1.32 2.74-.22-.66-2.52.84-1.68 1.33 1.81 2.74-.66-2.3-.62 1.59-2.43z"/>
    <path d="m45.03 43.53.14 1.5-1.5.22-.85.76-.97-1.86-.4 2.21-2.87.26-1.06-1.1-.57.57.22 1.1 1.23 1.2-1.06.8 2.88.8-.89-2.75 1.37.14-.44 1.15 1.33.61-.67 1.5 2.79-.7-1.86-2.3.09-1.5 1.81 1.94 1.42-1.15 1.99.36L44.8 46l1.6-2z"/>
  </g>
</svg>
