<?xml version="1.0" encoding="utf-8"?>
<!-- Generator: Adobe Illustrator 27.5.0, SVG Export Plug-In . SVG Version: 6.00 Build 0)  -->
<svg version="1.1" xmlns="http://www.w3.org/2000/svg" xmlns:xlink="http://www.w3.org/1999/xlink" x="0px" y="0px"
	 viewBox="0 0 500 500" style="enable-background:new 0 0 500 500;" xml:space="preserve">
<g id="BACKGROUND">
	<rect style="fill:transparent;" width="500" height="500"/>
</g>
<g id="OBJECTS">
	<g>
		<path style="fill:#CBE6FF;" d="M100.18,379.986c0,0-56.356-35.562-40.129-71.281c9.541-21.002,50.955-13.182,46.598-48.135
			c-5.712-45.829-51.223-76.697-24.959-115.89c27.043-40.354,94.558,7.781,160.549-34.921
			c42.595-27.562,118.409-42.98,145.886,0.839c26.251,41.863-26.223,88.427,11.873,119.705
			c38.097,31.278,81.732,78.469-14.582,134.084c-96.314,55.615-173.419,12.675-173.419,12.675"/>
		<path style="fill:#CBE6FF;" d="M130.163,115.482c2.669,7.891,35.576,7.36,52.556,4.411c16.98-2.949,18.606-8.988,7.963-16.045
			C180.039,96.792,125.014,100.258,130.163,115.482z"/>
		<path style="fill:#CBE6FF;" d="M219.868,106.131c-7.486-5.224-22.451,9.364-8.521,9.351
			C225.277,115.469,225.028,109.732,219.868,106.131z"/>
		<path style="fill:#E2F1FF;" d="M93.455,195.119c-9.969-1.594-0.64,27.673,13.634,23.902
			C121.364,215.249,101.831,196.458,93.455,195.119z"/>
		<path style="fill:#E2F1FF;" d="M87.875,178.546c-5.709,2.058-3.762,14.465,4.685,11.834
			C101.007,187.749,93.489,176.522,87.875,178.546z"/>
		<g>
			<g>
				<g>
					<path style="fill:#246D79;" d="M130.709,306.899c2.645,2.009,3.035,5.342,3.035,5.342s-3.086-0.116-5.564-2.63
						c-0.719-0.729-0.79-1.872-0.091-2.62C128.787,306.241,129.893,306.28,130.709,306.899z"/>
					<path style="fill:#246D79;" d="M124.178,296.347c0.597-0.832,1.7-0.935,2.587-0.425c1.772,1.019,2.759,2.641,3.257,3.74
						c-0.839-2.485-1.712-4.959-2.653-7.407c-0.295-0.767,0.878-1.273,1.173-0.505c0.175,0.456,0.337,0.917,0.509,1.374
						c-0.076-0.757-0.035-1.719,0.394-2.673c0.282-0.627,0.922-1.005,1.574-0.788c0.652,0.217,0.978,0.913,0.788,1.574
						c-0.529,1.847-1.799,2.893-2.262,3.223c0.886,2.413,1.725,4.843,2.511,7.29c-0.182-1.171-0.216-2.823,0.516-4.454
						c0.415-0.925,1.359-1.483,2.322-1.163c0.962,0.32,1.442,1.347,1.163,2.322c-0.863,3.016-3.063,4.581-3.506,4.871
						c0.665,2.135,1.307,4.277,1.898,6.434c0.083,0.303,0.156,0.608,0.237,0.91c-0.194-1.464-0.18-3.434,0.694-5.38
						c0.527-1.174,1.725-1.882,2.945-1.476c1.221,0.406,1.83,1.708,1.476,2.945c-1.141,3.989-4.132,5.982-4.514,6.222
						c0.427,1.677,0.834,3.358,1.214,5.046c0.054-1.048,0.268-2.19,0.778-3.326c0.527-1.174,1.724-1.881,2.945-1.476
						c1.221,0.406,1.83,1.708,1.476,2.945c-1.019,3.56-3.505,5.526-4.3,6.079c0.4,1.986,0.78,3.976,1.116,5.974
						c0.125,0.744,0.243,1.49,0.359,2.236c0.031-0.898,0.232-2.035,0.901-3.092c0.43-0.679,1.233-1.011,1.952-0.652
						c0.719,0.359,0.98,1.218,0.652,1.952c-0.985,2.201-2.806,3.191-3.262,3.411c0.324,2.211,0.613,4.428,0.858,6.65
						c0.09,0.816-1.173,1.004-1.264,0.186c-0.298-2.702-0.667-5.397-1.082-8.084c-0.638,0.139-2.552,0.425-4.577-0.576
						c-0.72-0.356-1.067-1.185-0.741-1.92c0.325-0.735,1.156-0.991,1.92-0.741c1.741,0.569,2.822,1.906,3.312,2.652
						c-0.525-3.328-1.132-6.644-1.836-9.939c-0.017-0.081-0.037-0.161-0.055-0.241c-0.254-0.014-3.171-0.225-5.539-2.629
						c-0.719-0.729-0.79-1.872-0.091-2.62c0.698-0.749,1.805-0.711,2.621-0.091c1.535,1.166,2.308,2.775,2.688,3.922
						c-1.233-5.527-2.702-11.001-4.434-16.393c-0.153-0.476-0.322-0.946-0.479-1.42c-0.357,0.023-3.216,0.136-5.816-1.902
						C123.797,298.303,123.581,297.179,124.178,296.347z"/>
				</g>
				<path style="fill:#249C9C;" d="M110.791,325.925c-0.951,0.798-3.724,2.987-7.408,4.693c-4.586,2.123-8.84,2.687-8.84,2.687
					s3.182-2.879,7.769-5.003c3.523-1.631,6.841-2.34,8.195-2.582c-1.136-0.832-2.282-1.648-3.446-2.44
					c-0.505,0.438-2.943,2.478-6.307,4.036c-3.787,1.753-7.299,2.219-7.299,2.219s2.627-2.377,6.414-4.13
					c3.257-1.508,6.304-2.062,7.095-2.188c-1.469-0.997-2.963-1.955-4.475-2.887c-0.734,0.572-2.052,1.507-3.704,2.272
					c-2.564,1.187-4.943,1.503-4.943,1.503s1.779-1.61,4.343-2.797c1.472-0.681,2.866-1.069,3.801-1.281
					c-0.784-0.478-1.563-0.966-2.358-1.426c-0.609-0.353-0.638-1.313-0.25-1.824c0.469-0.618,1.213-0.604,1.824-0.25
					c1.849,1.07,3.658,2.205,5.445,3.371c-0.49-1.307-1.203-3.515-1.556-6.083c-0.567-4.134,0.016-7.629,0.016-7.629
					s1.504,3.208,2.071,7.342c0.399,2.909,0.229,5.495,0.093,6.776c1.549,1.025,3.083,2.073,4.583,3.168
					c-0.336-1.746-0.84-5.115-0.658-8.952c0.267-5.607,1.898-10.084,1.898-10.084s1.199,4.612,0.932,10.219
					c-0.197,4.154-1.143,7.682-1.62,9.235c0.938,0.692,1.872,1.39,2.789,2.109c0.052-1.977,0.307-5.67,1.388-9.701
					c1.6-5.968,4.404-10.402,4.404-10.402s0.209,5.242-1.392,11.21c-1.143,4.263-2.896,7.734-3.807,9.375
					c0.995,0.79,1.981,1.591,2.952,2.411c0.419-2.024,1.272-5.35,2.858-8.84c2.557-5.626,6.049-9.54,6.049-9.54
					s-0.653,5.206-3.209,10.831c-1.664,3.663-3.72,6.591-4.955,8.195c0.783,0.672,1.566,1.344,2.332,2.036
					c1.481-1.443,4.044-3.718,7.305-5.72c5.266-3.233,10.351-4.524,10.351-4.524s-3.453,3.95-8.719,7.182
					c-3.108,1.908-6.143,3.135-8.117,3.824c0.906,0.832,1.803,1.674,2.685,2.532c1.635-0.978,5.008-2.816,9.17-4.088
					c5.909-1.806,11.155-1.778,11.155-1.778s-4.335,2.955-10.244,4.761c-3.879,1.186-7.461,1.579-9.472,1.711
					c0.613,0.605,1.231,1.204,1.832,1.821c0.337,0.346,0.659,0.705,0.992,1.054c1.945-0.73,5.157-1.766,8.888-2.29
					c6.119-0.859,11.296-0.012,11.296-0.012s-4.743,2.241-10.862,3.1c-3.235,0.454-6.198,0.43-8.28,0.308
					c0.804,0.866,1.593,1.746,2.371,2.634c1.993-0.17,5.635-0.323,9.698,0.282c6.111,0.91,10.836,3.19,10.836,3.19
					s-5.184,0.805-11.296-0.105c-3.276-0.488-6.144-1.368-8.109-2.081c1.549,1.817,3.035,3.687,4.477,5.589
					c2.04,0.287,5.444,0.927,9.06,2.302c5.775,2.196,9.903,5.434,9.903,5.434s-5.236-0.323-11.012-2.519
					c-2.501-0.951-4.69-2.096-6.371-3.09c3.09,4.261,5.924,8.707,8.461,13.323c3.054,5.557,5.67,11.349,7.817,17.315
					c0.566,1.572-1.825,2.606-2.393,1.027c-3.767-10.47-8.986-20.39-15.463-29.437c-0.1-0.14-0.206-0.274-0.306-0.413
					c-0.101,1.577-0.374,3.992-1.108,6.591c-1.268,4.485-3.428,7.801-3.428,7.801s-0.104-3.956,1.164-8.441
					c0.84-2.973,2.061-5.407,2.797-6.727c-1.795-2.446-3.68-4.824-5.649-7.132c-0.032,1.488-0.23,5.011-1.325,8.883
					c-1.447,5.119-3.912,8.904-3.912,8.904s-0.119-4.515,1.328-9.634c1.159-4.098,2.966-7.335,3.643-8.466
					c-1.102-1.283-2.224-2.549-3.379-3.786c-0.082,2.02-0.394,5.76-1.545,9.831c-1.712,6.056-4.629,10.534-4.629,10.534
					s-0.14-5.342,1.572-11.398c1.24-4.387,3.108-7.936,4.046-9.564c-1.079-1.142-2.185-2.257-3.307-3.357
					c-0.341,1.442-1.38,5.295-3.551,9.329c-2.747,5.103-6.262,8.547-6.262,8.547s0.939-4.83,3.686-9.933
					c2.214-4.113,4.924-7.144,5.893-8.168c-1.029-1.003-2.077-1.987-3.141-2.953c-0.25,0.737-1.76,4.992-4.787,9.307
					c-3.328,4.745-7.223,7.751-7.223,7.751s1.5-4.686,4.828-9.431c3.038-4.331,6.539-7.206,7.128-7.675
					c-1.034-0.938-2.084-1.857-3.15-2.759c-0.467,0.754-2.875,4.497-6.724,7.968c-4.304,3.881-8.772,5.942-8.772,5.942
					s2.509-4.232,6.813-8.114c3.825-3.449,7.772-5.457,8.605-5.861c-0.653-0.551-1.3-1.108-1.964-1.645
					c-0.448-0.363-0.912-0.705-1.366-1.061c-1.031,1.116-3.281,3.373-6.329,5.366c-4.231,2.765-8.358,3.939-8.358,3.939
					s2.732-3.309,6.962-6.075c2.909-1.901,5.769-3.05,7.272-3.583C112.466,327.189,111.636,326.548,110.791,325.925z"/>
				<g>
					<path style="fill:#4EB5B2;" d="M92.424,404.099c3.225-2.354,7.196-1.655,7.196-1.655s-1.196,3.514-4.945,5.501
						c-1.088,0.576-2.427,0.265-3.049-0.798C91.005,406.086,91.431,404.825,92.424,404.099z"/>
					<path style="fill:#4EB5B2;" d="M78.025,407.985c-0.752-0.974-0.491-2.279,0.402-3.126c1.783-1.69,3.991-2.267,5.428-2.462
						c-3.15,0.11-6.299,0.263-9.443,0.504c-0.984,0.076-1.163-1.449-0.177-1.525c0.585-0.045,1.172-0.072,1.757-0.112
						c-0.897-0.173-1.992-0.553-2.942-1.374c-0.625-0.54-0.84-1.408-0.366-2.084c0.474-0.676,1.388-0.811,2.084-0.366
						c1.945,1.245,2.712,3.068,2.933,3.714c3.084-0.189,6.17-0.318,9.259-0.38c-1.412-0.194-3.325-0.723-4.951-2.128
						c-0.922-0.797-1.239-2.076-0.54-3.074c0.7-0.998,2.048-1.197,3.074-0.54c3.176,2.033,4.22,5.104,4.401,5.715
						c2.688-0.031,5.376-0.032,8.063,0.031c0.377,0.009,0.753,0.03,1.13,0.041c-1.752-0.281-4.016-0.976-5.956-2.652
						c-1.17-1.011-1.572-2.634-0.685-3.9c0.888-1.266,2.598-1.518,3.9-0.685c4.2,2.688,5.465,6.819,5.61,7.341
						c2.078,0.086,4.154,0.197,6.228,0.34c-1.188-0.423-2.43-1.063-3.562-2.042c-1.17-1.011-1.572-2.634-0.685-3.9
						c0.888-1.266,2.597-1.518,3.899-0.685c3.749,2.399,5.155,5.939,5.519,7.046c2.425,0.223,4.847,0.471,7.263,0.773
						c0.9,0.113,1.8,0.233,2.699,0.357c-1.024-0.345-2.264-0.968-3.25-2.102c-0.634-0.729-0.739-1.767-0.078-2.472
						c0.661-0.704,1.74-0.709,2.472-0.078c2.195,1.892,2.708,4.33,2.804,4.931c2.658,0.389,5.31,0.819,7.952,1.302
						c0.971,0.177,0.752,1.697-0.221,1.519c-3.215-0.587-6.444-1.091-9.681-1.538c-0.059,0.783-0.389,3.085-2.239,5.072
						c-0.658,0.707-1.731,0.82-2.466,0.192c-0.734-0.628-0.743-1.672-0.192-2.465c1.254-1.809,3.166-2.593,4.195-2.9
						c-4.013-0.542-8.04-0.985-12.077-1.31c-0.099-0.008-0.198-0.012-0.297-0.02c-0.104,0.287-1.352,3.574-4.935,5.473
						c-1.087,0.576-2.427,0.265-3.049-0.798c-0.622-1.062-0.197-2.323,0.797-3.049c1.872-1.366,3.99-1.702,5.443-1.745
						c-6.789-0.484-13.598-0.677-20.403-0.54c-0.601,0.012-1.2,0.045-1.8,0.062c-0.096,0.419-0.951,3.751-4.193,6.042
						C80.146,409.098,78.777,408.959,78.025,407.985z"/>
				</g>
				<g>
					<g>
						<path style="fill:#165965;" d="M146.044,396.209c0,0-12.085,0.748-21.416-13.419l4.983-3.712l-7.208,0.838l-5.099-6.844
							l7.311-0.698l-9.584-2.352l8.581-3.92l-10.952,0.738c0,0-5.739-10.005-5.568-22.912c0,0,12.549-0.124,25.961,15.141
							l-2.052,6.551l3.652-4.404c0,0,8.992,10.975,12.176,20.175l-2.455,4.915l3.182-2.944
							C147.556,383.36,149.53,390.488,146.044,396.209z"/>
						<path style="fill:#0B4951;" d="M138.784,371.226c-0.531,3.237-0.78,6.499-0.774,9.749c-1.281-2.148-2.59-4.279-3.949-6.377
							c-0.001-0.01,0.005-0.02,0.003-0.03c-0.133-1.025-0.191-2.063-0.168-3.104c0.006-0.279,0.01-0.374,0.027-0.638
							c0.016-0.253,0.037-0.506,0.062-0.759c0.054-0.535,0.13-1.069,0.224-1.601c0.076-0.427-0.234-0.88-0.68-0.913
							c-0.45-0.034-0.885,0.263-0.966,0.719c-0.21,1.188-0.313,2.388-0.326,3.585c-3.55-5.288-7.336-10.416-11.38-15.341
							c-0.304-0.37-0.615-0.736-0.922-1.104c0.006-0.055,0.024-0.108,0.017-0.166c-0.088-0.665-0.139-1.337-0.15-2.012
							c-0.003-0.164-0.003-0.328-0.001-0.491c0.002-0.131-0.009-0.283,0.008-0.42c0.001-0.003,0.003-0.014,0.005-0.046
							c0.002-0.041,0.005-0.082,0.007-0.123c0.005-0.092,0.012-0.185,0.019-0.277c0.013-0.174,0.029-0.348,0.047-0.522
							c0.044-0.429-0.212-0.878-0.68-0.913c-0.423-0.032-0.918,0.261-0.965,0.719c-0.073,0.708-0.107,1.418-0.102,2.125
							c-1.815-2.116-3.67-4.197-5.571-6.237c-0.7-0.751-2.073,0.258-1.365,1.017c3.758,4.033,7.345,8.218,10.755,12.543
							c-2.523-0.769-5.097-1.399-7.709-1.874c-0.439-0.08-0.892,0.298-0.965,0.719c-0.081,0.464,0.24,0.833,0.68,0.913
							c3.168,0.576,6.271,1.381,9.296,2.408c0.137,0.047,0.268,0.055,0.391,0.038c4.95,6.46,9.52,13.209,13.647,20.233
							c2.089,3.556,4.064,7.18,5.928,10.864c0.465,0.918,2.041,0.288,1.573-0.638c-1.643-3.246-3.373-6.445-5.185-9.594
							c0.071-0.127,0.114-0.277,0.106-0.451c-0.173-3.93,0.066-7.881,0.71-11.807C140.602,370.367,138.957,370.172,138.784,371.226z
							"/>
					</g>
					<path style="fill:#246D79;" d="M148.207,409.281c0,0-16.507,7.718-37.393-6.967l4.927-7.948l-9.629,5.152l-10.917-6.768
						l9.852-5.014l-14.716,1.998l9.851-10.226l-14.927,7.079c0,0-13.558-10.84-20.444-29.006c0,0,17.503-7.101,44.707,6.868
						l0.743,10.305l2.682-8.182c0,0,18.649,10.403,28.186,21.526l-0.724,8.237l2.83-5.879
						C143.231,390.456,149.929,399.346,148.207,409.281z"/>
					<path style="fill:#1A5463;" d="M124.25,378.308c1.044,4.825,2.495,9.531,4.299,14.078c-2.979-2.301-5.988-4.561-9.049-6.748
						c-0.007-0.014-0.005-0.03-0.012-0.044c-0.752-1.362-1.406-2.783-1.948-4.254c-0.146-0.395-0.192-0.529-0.314-0.908
						c-0.117-0.363-0.228-0.729-0.332-1.096c-0.22-0.779-0.409-1.568-0.57-2.365c-0.13-0.64-0.813-1.103-1.457-0.903
						c-0.648,0.201-1.093,0.857-0.955,1.54c0.361,1.779,0.879,3.516,1.522,5.199c-7.889-5.444-16.021-10.534-24.401-15.197
						c-0.631-0.351-1.267-0.691-1.9-1.037c-0.022-0.081-0.025-0.165-0.068-0.241c-0.491-0.883-0.933-1.795-1.32-2.735
						c-0.094-0.228-0.185-0.457-0.272-0.688c-0.07-0.185-0.169-0.392-0.221-0.593c0-0.005-0.004-0.021-0.019-0.066
						c-0.02-0.059-0.039-0.117-0.058-0.176c-0.043-0.132-0.086-0.265-0.127-0.398c-0.078-0.251-0.152-0.504-0.223-0.757
						c-0.175-0.625-0.781-1.113-1.457-0.903c-0.61,0.189-1.142,0.872-0.955,1.54c0.289,1.032,0.633,2.045,1.03,3.032
						c-3.708-1.96-7.454-3.85-11.242-5.657c-1.395-0.665-2.76,1.505-1.35,2.178c7.487,3.572,14.821,7.452,21.983,11.624
						c-3.958,0.316-7.909,0.855-11.828,1.632c-0.659,0.131-1.084,0.909-0.955,1.54c0.143,0.695,0.796,1.034,1.457,0.903
						c4.753-0.941,9.542-1.528,14.344-1.761c0.218-0.01,0.405-0.071,0.568-0.162c10.497,6.312,20.621,13.239,30.276,20.795
						c4.889,3.826,9.653,7.81,14.298,11.938c1.158,1.029,3.016-0.724,1.85-1.761c-4.092-3.637-8.28-7.161-12.556-10.571
						c0.03-0.218,0.007-0.451-0.1-0.691c-2.412-5.407-4.258-11.072-5.523-16.923C126.322,376.102,123.91,376.737,124.25,378.308z"/>
				</g>
			</g>
			<g>
				<g>
					<path style="fill:#246D79;" d="M355.924,306.899c-2.646,2.009-3.035,5.342-3.035,5.342s3.086-0.116,5.564-2.63
						c0.719-0.729,0.79-1.872,0.091-2.62C357.846,306.241,356.74,306.28,355.924,306.899z"/>
					<path style="fill:#246D79;" d="M362.455,296.347c-0.597-0.832-1.7-0.935-2.587-0.425c-1.772,1.019-2.759,2.641-3.257,3.74
						c0.839-2.485,1.712-4.959,2.654-7.407c0.295-0.767-0.878-1.273-1.173-0.505c-0.175,0.456-0.337,0.917-0.509,1.374
						c0.076-0.757,0.035-1.719-0.393-2.673c-0.282-0.627-0.922-1.005-1.574-0.788c-0.652,0.217-0.978,0.913-0.789,1.574
						c0.529,1.847,1.799,2.893,2.262,3.223c-0.886,2.413-1.725,4.843-2.511,7.29c0.182-1.171,0.216-2.823-0.516-4.454
						c-0.415-0.925-1.359-1.483-2.322-1.163c-0.962,0.32-1.442,1.347-1.163,2.322c0.863,3.016,3.063,4.581,3.506,4.871
						c-0.665,2.135-1.307,4.277-1.897,6.434c-0.083,0.303-0.156,0.608-0.237,0.91c0.194-1.464,0.18-3.434-0.694-5.38
						c-0.527-1.174-1.724-1.882-2.945-1.476c-1.221,0.406-1.83,1.708-1.476,2.945c1.141,3.989,4.133,5.982,4.514,6.222
						c-0.427,1.677-0.834,3.358-1.214,5.046c-0.054-1.048-0.268-2.19-0.778-3.326c-0.527-1.174-1.724-1.881-2.945-1.476
						c-1.221,0.406-1.83,1.708-1.476,2.945c1.019,3.56,3.505,5.526,4.3,6.079c-0.4,1.986-0.78,3.976-1.116,5.974
						c-0.125,0.744-0.243,1.49-0.359,2.236c-0.03-0.898-0.232-2.035-0.9-3.092c-0.43-0.679-1.233-1.011-1.952-0.652
						c-0.719,0.359-0.98,1.218-0.652,1.952c0.985,2.201,2.806,3.191,3.262,3.411c-0.324,2.211-0.613,4.428-0.858,6.65
						c-0.09,0.816,1.173,1.004,1.264,0.186c0.299-2.702,0.667-5.397,1.082-8.084c0.638,0.139,2.552,0.425,4.577-0.576
						c0.72-0.356,1.067-1.185,0.741-1.92c-0.325-0.735-1.156-0.991-1.919-0.741c-1.741,0.569-2.822,1.906-3.312,2.652
						c0.525-3.328,1.132-6.644,1.836-9.939c0.017-0.081,0.037-0.161,0.055-0.241c0.254-0.014,3.171-0.225,5.539-2.629
						c0.719-0.729,0.79-1.872,0.091-2.62c-0.698-0.749-1.805-0.711-2.621-0.091c-1.535,1.166-2.308,2.775-2.688,3.922
						c1.233-5.527,2.702-11.001,4.434-16.393c0.153-0.476,0.322-0.946,0.478-1.42c0.357,0.023,3.216,0.136,5.816-1.902
						C362.836,298.303,363.052,297.179,362.455,296.347z"/>
				</g>
				<path style="fill:#249C9C;" d="M408.057,289.087c1.431,1.2,5.606,4.496,11.15,7.064c6.903,3.196,13.306,4.045,13.306,4.045
					s-4.789-4.333-11.693-7.529c-5.302-2.455-10.297-3.522-12.334-3.887c1.709-1.252,3.435-2.48,5.187-3.672
					c0.76,0.659,4.429,3.73,9.492,6.074c5.699,2.639,10.985,3.34,10.985,3.34s-3.954-3.577-9.654-6.216
					c-4.902-2.27-9.489-3.104-10.679-3.293c2.211-1.5,4.46-2.943,6.735-4.345c1.105,0.861,3.088,2.268,5.575,3.42
					c3.859,1.787,7.439,2.262,7.439,2.262s-2.678-2.422-6.537-4.21c-2.215-1.025-4.314-1.609-5.721-1.928
					c1.18-0.719,2.352-1.454,3.548-2.146c0.917-0.531,0.961-1.976,0.377-2.745c-0.706-0.93-1.826-0.909-2.745-0.377
					c-2.784,1.61-5.506,3.318-8.196,5.074c0.738-1.967,1.811-5.291,2.341-9.155c0.854-6.223-0.024-11.482-0.024-11.482
					s-2.263,4.829-3.117,11.051c-0.601,4.378-0.345,8.271-0.14,10.199c-2.332,1.542-4.64,3.12-6.898,4.768
					c0.506-2.628,1.264-7.699,0.99-13.474c-0.401-8.439-2.856-15.178-2.856-15.178s-1.804,6.942-1.403,15.381
					c0.297,6.252,1.72,11.563,2.438,13.9c-1.411,1.042-2.817,2.092-4.198,3.175c-0.078-2.976-0.462-8.534-2.089-14.601
					c-2.409-8.982-6.629-15.656-6.629-15.656s-0.314,7.89,2.094,16.873c1.721,6.417,4.359,11.641,5.729,14.11
					c-1.498,1.189-2.982,2.394-4.443,3.628c-0.631-3.046-1.914-8.052-4.302-13.305c-3.848-8.467-9.104-14.359-9.104-14.359
					s0.983,7.835,4.83,16.301c2.505,5.512,5.599,9.92,7.458,12.334c-1.179,1.011-2.357,2.024-3.51,3.064
					c-2.229-2.173-6.087-5.596-10.995-8.609c-7.926-4.866-15.579-6.81-15.579-6.81s5.197,5.945,13.123,10.81
					c4.678,2.871,9.247,4.718,12.217,5.756c-1.364,1.252-2.714,2.519-4.041,3.811c-2.461-1.472-7.538-4.239-13.802-6.153
					c-8.894-2.718-16.79-2.676-16.79-2.676s6.524,4.448,15.418,7.166c5.838,1.785,11.23,2.377,14.257,2.575
					c-0.922,0.91-1.853,1.812-2.757,2.741c-0.507,0.52-0.992,1.06-1.493,1.587c-2.927-1.099-7.762-2.658-13.377-3.446
					c-9.21-1.293-17.002-0.017-17.002-0.017s7.139,3.373,16.349,4.666c4.869,0.684,9.328,0.648,12.463,0.463
					c-1.21,1.304-2.397,2.627-3.569,3.965c-2.999-0.256-8.482-0.487-14.597,0.424c-9.199,1.37-16.31,4.802-16.31,4.802
					s7.803,1.211,17.001-0.159c4.93-0.734,9.248-2.059,12.205-3.131c-2.331,2.735-4.568,5.549-6.738,8.412
					c-3.071,0.432-8.194,1.396-13.637,3.466c-8.693,3.305-14.905,8.179-14.905,8.179s7.881-0.486,16.574-3.792
					c3.763-1.431,7.059-3.155,9.589-4.651c-4.651,6.413-8.917,13.106-12.735,20.052c-4.597,8.363-8.535,17.082-11.765,26.062
					c-0.851,2.367,2.747,3.922,3.602,1.546c5.67-15.759,13.525-30.689,23.273-44.306c0.15-0.21,0.31-0.413,0.461-0.622
					c0.151,2.374,0.562,6.009,1.668,9.92c1.908,6.751,5.16,11.742,5.16,11.742s0.157-5.954-1.752-12.706
					c-1.265-4.475-3.102-8.138-4.209-10.125c2.703-3.682,5.539-7.261,8.502-10.734c0.048,2.24,0.347,7.542,1.994,13.37
					c2.178,7.705,5.889,13.402,5.889,13.402s0.179-6.796-1.999-14.501c-1.744-6.168-4.465-11.04-5.483-12.742
					c1.659-1.932,3.348-3.837,5.085-5.699c0.124,3.04,0.594,8.669,2.326,14.797c2.577,9.116,6.967,15.855,6.967,15.855
					s0.211-8.04-2.365-17.156c-1.867-6.603-4.677-11.945-6.089-14.395c1.624-1.718,3.289-3.397,4.978-5.052
					c0.513,2.17,2.077,7.969,5.345,14.041c4.135,7.681,9.425,12.864,9.425,12.864s-1.413-7.27-5.548-14.951
					c-3.332-6.19-7.411-10.753-8.87-12.293c1.549-1.51,3.126-2.99,4.727-4.445c0.376,1.11,2.649,7.513,7.205,14.008
					c5.009,7.141,10.872,11.666,10.872,11.666s-2.258-7.053-7.267-14.195c-4.573-6.519-9.842-10.846-10.728-11.553
					c1.556-1.411,3.137-2.796,4.741-4.153c0.703,1.136,4.327,6.769,10.12,11.993c6.478,5.842,13.204,8.943,13.204,8.943
					s-3.777-6.371-10.255-12.213c-5.757-5.191-11.697-8.213-12.951-8.822c0.982-0.829,1.957-1.667,2.956-2.476
					c0.675-0.546,1.373-1.062,2.056-1.598c1.551,1.68,4.938,5.077,9.527,8.076c6.368,4.162,12.58,5.929,12.58,5.929
					s-4.111-4.981-10.479-9.143c-4.378-2.862-8.682-4.591-10.945-5.392C405.537,290.99,406.786,290.024,408.057,289.087z"/>
				<g>
					<path style="fill:#4EB5B2;" d="M394.209,404.099c-3.225-2.354-7.196-1.655-7.196-1.655s1.196,3.514,4.945,5.501
						c1.087,0.576,2.427,0.265,3.049-0.798C395.628,406.086,395.202,404.825,394.209,404.099z"/>
					<path style="fill:#4EB5B2;" d="M408.608,407.985c0.752-0.974,0.491-2.279-0.402-3.126c-1.783-1.69-3.991-2.267-5.428-2.462
						c3.15,0.11,6.299,0.263,9.443,0.504c0.984,0.076,1.163-1.449,0.177-1.525c-0.585-0.045-1.172-0.072-1.757-0.112
						c0.898-0.173,1.992-0.553,2.942-1.374c0.625-0.54,0.841-1.408,0.366-2.084c-0.475-0.676-1.388-0.811-2.084-0.366
						c-1.944,1.245-2.711,3.068-2.932,3.714c-3.084-0.189-6.171-0.318-9.259-0.38c1.412-0.194,3.325-0.723,4.951-2.128
						c0.922-0.797,1.239-2.076,0.54-3.074c-0.7-0.998-2.047-1.197-3.074-0.54c-3.176,2.033-4.22,5.104-4.401,5.715
						c-2.688-0.031-5.376-0.032-8.063,0.031c-0.377,0.009-0.753,0.03-1.13,0.041c1.752-0.281,4.016-0.976,5.956-2.652
						c1.17-1.011,1.573-2.634,0.685-3.9c-0.888-1.266-2.597-1.518-3.9-0.685c-4.2,2.688-5.465,6.819-5.61,7.341
						c-2.078,0.086-4.154,0.197-6.228,0.34c1.188-0.423,2.43-1.063,3.562-2.042c1.17-1.011,1.572-2.634,0.685-3.9
						c-0.888-1.266-2.597-1.518-3.9-0.685c-3.749,2.399-5.155,5.939-5.519,7.046c-2.425,0.223-4.847,0.471-7.263,0.773
						c-0.9,0.113-1.8,0.233-2.699,0.357c1.024-0.345,2.264-0.968,3.25-2.102c0.634-0.729,0.739-1.767,0.078-2.472
						c-0.661-0.704-1.74-0.709-2.472-0.078c-2.195,1.892-2.708,4.33-2.804,4.931c-2.658,0.389-5.31,0.819-7.952,1.302
						c-0.971,0.177-0.752,1.697,0.221,1.519c3.215-0.587,6.444-1.091,9.681-1.538c0.059,0.783,0.389,3.085,2.239,5.072
						c0.658,0.707,1.732,0.82,2.466,0.192c0.734-0.628,0.743-1.672,0.192-2.465c-1.254-1.809-3.166-2.593-4.195-2.9
						c4.013-0.542,8.04-0.985,12.077-1.31c0.099-0.008,0.198-0.012,0.297-0.02c0.103,0.287,1.352,3.574,4.935,5.473
						c1.087,0.576,2.427,0.265,3.049-0.798c0.622-1.062,0.197-2.323-0.797-3.049c-1.872-1.366-3.99-1.702-5.443-1.745
						c6.789-0.484,13.598-0.677,20.403-0.54c0.6,0.012,1.2,0.045,1.8,0.062c0.096,0.419,0.951,3.751,4.193,6.042
						C406.487,409.098,407.856,408.959,408.608,407.985z"/>
				</g>
				<g>
					<g>
						<path style="fill:#165965;" d="M340.589,396.209c0,0,12.085,0.748,21.416-13.419l-4.983-3.712l7.208,0.838l5.099-6.844
							l-7.311-0.698l9.584-2.352l-8.581-3.92l10.952,0.738c0,0,5.739-10.005,5.568-22.912c0,0-12.55-0.124-25.961,15.141
							l2.052,6.551l-3.652-4.404c0,0-8.992,10.975-12.176,20.175l2.455,4.915l-3.182-2.944
							C339.077,383.36,337.103,390.488,340.589,396.209z"/>
						<path style="fill:#0B4951;" d="M347.849,371.226c0.531,3.237,0.78,6.499,0.774,9.749c1.281-2.148,2.59-4.279,3.949-6.377
							c0.001-0.01-0.005-0.02-0.003-0.03c0.133-1.025,0.191-2.063,0.168-3.104c-0.006-0.279-0.01-0.374-0.027-0.638
							c-0.016-0.253-0.037-0.506-0.062-0.759c-0.054-0.535-0.13-1.069-0.224-1.601c-0.076-0.427,0.234-0.88,0.68-0.913
							c0.45-0.034,0.885,0.263,0.966,0.719c0.211,1.188,0.313,2.388,0.326,3.585c3.55-5.288,7.336-10.416,11.38-15.341
							c0.304-0.37,0.615-0.736,0.922-1.104c-0.006-0.055-0.024-0.108-0.017-0.166c0.088-0.665,0.139-1.337,0.15-2.012
							c0.003-0.164,0.003-0.328,0.001-0.491c-0.002-0.131,0.009-0.283-0.008-0.42c-0.001-0.003-0.003-0.014-0.005-0.046
							c-0.002-0.041-0.005-0.082-0.007-0.123c-0.005-0.092-0.012-0.185-0.018-0.277c-0.013-0.174-0.029-0.348-0.047-0.522
							c-0.044-0.429,0.212-0.878,0.68-0.913c0.423-0.032,0.918,0.261,0.965,0.719c0.073,0.708,0.107,1.418,0.102,2.125
							c1.815-2.116,3.67-4.197,5.571-6.237c0.7-0.751,2.073,0.258,1.365,1.017c-3.758,4.033-7.345,8.218-10.755,12.543
							c2.523-0.769,5.097-1.399,7.709-1.874c0.439-0.08,0.892,0.298,0.965,0.719c0.081,0.464-0.24,0.833-0.68,0.913
							c-3.168,0.576-6.271,1.381-9.296,2.408c-0.137,0.047-0.268,0.055-0.39,0.038c-4.95,6.46-9.52,13.209-13.647,20.233
							c-2.089,3.556-4.064,7.18-5.928,10.864c-0.465,0.918-2.041,0.288-1.572-0.638c1.643-3.246,3.373-6.445,5.185-9.594
							c-0.071-0.127-0.114-0.277-0.106-0.451c0.173-3.93-0.066-7.881-0.71-11.807C346.031,370.367,347.677,370.172,347.849,371.226z
							"/>
					</g>
					<path style="fill:#246D79;" d="M338.426,409.281c0,0,16.508,7.718,37.393-6.967l-4.927-7.948l9.629,5.152l10.918-6.768
						l-9.852-5.014l14.716,1.998l-9.851-10.226l14.927,7.079c0,0,13.558-10.84,20.444-29.006c0,0-17.503-7.101-44.706,6.868
						l-0.743,10.305l-2.682-8.182c0,0-18.649,10.403-28.186,21.526l0.724,8.237l-2.83-5.879
						C343.402,390.456,336.704,399.346,338.426,409.281z"/>
					<path style="fill:#1A5463;" d="M362.383,378.308c-1.043,4.825-2.495,9.531-4.298,14.078c2.979-2.301,5.988-4.561,9.049-6.748
						c0.007-0.014,0.004-0.03,0.012-0.044c0.752-1.362,1.406-2.783,1.948-4.254c0.146-0.395,0.192-0.529,0.314-0.908
						c0.117-0.363,0.228-0.729,0.332-1.096c0.221-0.779,0.409-1.568,0.57-2.365c0.13-0.64,0.813-1.103,1.457-0.903
						c0.648,0.201,1.093,0.857,0.955,1.54c-0.361,1.779-0.879,3.516-1.522,5.199c7.89-5.444,16.021-10.534,24.401-15.197
						c0.63-0.351,1.267-0.691,1.9-1.037c0.022-0.081,0.025-0.165,0.068-0.241c0.491-0.883,0.933-1.795,1.32-2.735
						c0.094-0.228,0.185-0.457,0.272-0.688c0.07-0.185,0.169-0.392,0.221-0.593c0-0.005,0.004-0.021,0.019-0.066
						c0.02-0.059,0.039-0.117,0.058-0.176c0.043-0.132,0.086-0.265,0.127-0.398c0.078-0.251,0.152-0.504,0.223-0.757
						c0.175-0.625,0.781-1.113,1.457-0.903c0.61,0.189,1.142,0.872,0.955,1.54c-0.289,1.032-0.633,2.045-1.03,3.032
						c3.708-1.96,7.455-3.85,11.242-5.657c1.395-0.665,2.76,1.505,1.35,2.178c-7.487,3.572-14.821,7.452-21.983,11.624
						c3.958,0.316,7.909,0.855,11.828,1.632c0.659,0.131,1.084,0.909,0.955,1.54c-0.143,0.695-0.796,1.034-1.457,0.903
						c-4.753-0.941-9.542-1.528-14.344-1.761c-0.218-0.01-0.406-0.071-0.568-0.162c-10.496,6.312-20.621,13.239-30.276,20.795
						c-4.889,3.826-9.653,7.81-14.298,11.938c-1.158,1.029-3.016-0.724-1.85-1.761c4.092-3.637,8.28-7.161,12.556-10.571
						c-0.03-0.218-0.007-0.451,0.1-0.691c2.412-5.407,4.258-11.072,5.523-16.923C360.311,376.102,362.723,376.737,362.383,378.308z"
						/>
				</g>
			</g>
			<g>
				<path style="fill:#060A0E;" d="M242.776,271.136l1.272-9.631c0.679-5.14-2.596-9.307-7.315-9.307h-76.936l-2.502,18.938
					l-1.544,11.685L141.299,392.22c-1.574,11.916,6.019,21.576,16.959,21.576h167.963c10.94,0,21.086-9.66,22.66-21.576
					l15.996-121.084H242.776z"/>
				<g>
					<path style="fill:#FFFFFF;" d="M303.7,295.044c-35.49-20.963-70.978-41.926-106.468-62.889
						c50.816-27.675,24.974-100.632,75.789-128.307c35.489,20.963,70.978,41.926,106.468,62.889
						C328.674,194.413,354.516,267.369,303.7,295.044z"/>
					<g>
						<path style="fill:#D9D9D9;" d="M280.314,209.38c-13.71-8.098-27.419-16.196-41.129-24.294
							c6.882-25.152,10.429-52.273,30.552-69.603c13.71,8.098,27.419,16.196,41.129,24.294
							C290.743,157.107,287.197,184.228,280.314,209.38z"/>
					</g>
					<g>
						<path style="fill:#FEAE1A;" d="M357.532,174.126c-14.519-8.576-29.037-17.152-43.556-25.728
							c1.368-1.453,2.827-2.854,4.384-4.195c14.519,8.576,29.038,17.152,43.556,25.728
							C360.358,171.272,358.9,172.672,357.532,174.126z"/>
					</g>
					<path style="fill:#868686;" d="M332.393,169.055c-7.934-4.686-15.867-9.372-23.8-14.058c0.724-1.024,1.479-2.028,2.268-3.013
						c7.934,4.686,15.867,9.372,23.8,14.058C333.872,167.027,333.117,168.031,332.393,169.055z"/>
					<path style="fill:#868686;" d="M261.196,205.341c-7.933-4.686-15.866-9.372-23.8-14.058c0.376-1.229,0.74-2.465,1.094-3.707
						c7.934,4.686,15.867,9.372,23.8,14.058C261.936,202.876,261.573,204.112,261.196,205.341z"/>
					<path style="fill:#D9D9D9;" d="M277.431,219.02c-13.709-8.098-27.419-16.196-41.129-24.294c0.2-0.607,0.398-1.216,0.591-1.827
						c13.71,8.098,27.419,16.196,41.129,24.294C277.829,217.804,277.632,218.413,277.431,219.02z"/>
					<path style="fill:#D9D9D9;" d="M276.259,222.418c-13.71-8.098-27.419-16.196-41.129-24.294
						c0.215-0.598,0.426-1.199,0.634-1.802c13.709,8.098,27.419,16.196,41.129,24.294
						C276.686,221.22,276.475,221.82,276.259,222.418z"/>
					<path style="fill:#D9D9D9;" d="M348.251,186.929c-14.519-8.576-29.038-17.152-43.556-25.728
						c0.214-0.382,0.43-0.763,0.651-1.141c14.519,8.576,29.037,17.152,43.556,25.728
						C348.682,186.166,348.465,186.547,348.251,186.929z"/>
					<path style="fill:#D9D9D9;" d="M345.125,193.148c-14.519-8.576-29.037-17.152-43.556-25.728
						c0.182-0.401,0.366-0.801,0.553-1.199c14.519,8.576,29.037,17.152,43.556,25.728
						C345.491,192.347,345.307,192.746,345.125,193.148z"/>
					<path style="fill:#D9D9D9;" d="M342.46,199.637c-14.519-8.576-29.037-17.152-43.556-25.728
						c0.156-0.417,0.313-0.832,0.474-1.246c14.519,8.576,29.038,17.152,43.556,25.728
						C342.773,198.805,342.615,199.221,342.46,199.637z"/>
					<path style="fill:#D9D9D9;" d="M340.16,206.344c-14.519-8.576-29.038-17.152-43.556-25.728
						c0.135-0.429,0.273-0.856,0.411-1.283c14.518,8.576,29.038,17.152,43.556,25.728
						C340.432,205.488,340.295,205.915,340.16,206.344z"/>
					<path style="fill:#D9D9D9;" d="M338.134,213.212c-14.519-8.576-29.037-17.152-43.556-25.728
						c0.121-0.437,0.243-0.873,0.367-1.309c14.519,8.576,29.037,17.152,43.556,25.728
						C338.377,212.338,338.255,212.775,338.134,213.212z"/>
					<path style="fill:#D9D9D9;" d="M336.288,220.186c-14.519-8.576-29.038-17.152-43.556-25.728
						c0.113-0.442,0.226-0.884,0.34-1.325c14.518,8.576,29.038,17.152,43.556,25.728C336.514,219.302,336.4,219.744,336.288,220.186
						z"/>
					<path style="fill:#D9D9D9;" d="M334.53,227.212c-14.519-8.576-29.038-17.152-43.556-25.728c0.11-0.444,0.22-0.887,0.33-1.331
						c14.519,8.576,29.038,17.152,43.556,25.728C334.749,226.325,334.64,226.768,334.53,227.212z"/>
					<path style="fill:#D9D9D9;" d="M332.766,234.235c-14.519-8.576-29.038-17.152-43.556-25.728
						c0.113-0.442,0.226-0.883,0.338-1.326c14.519,8.576,29.038,17.152,43.556,25.728
						C332.991,233.351,332.879,233.793,332.766,234.235z"/>
					<path style="fill:#D9D9D9;" d="M330.903,241.199c-14.518-8.576-29.038-17.152-43.556-25.728
						c0.123-0.436,0.244-0.872,0.364-1.31c14.519,8.576,29.037,17.152,43.556,25.728
						C331.146,240.326,331.025,240.763,330.903,241.199z"/>
					<path style="fill:#D9D9D9;" d="M328.848,248.05c-14.519-8.576-29.038-17.152-43.556-25.728
						c0.137-0.428,0.273-0.855,0.408-1.285c14.519,8.576,29.038,17.152,43.556,25.728
						C329.121,247.194,328.986,247.622,328.848,248.05z"/>
					<path style="fill:#D9D9D9;" d="M326.508,254.733c-14.519-8.576-29.037-17.152-43.556-25.728
						c0.158-0.415,0.315-0.831,0.469-1.249c14.519,8.576,29.038,17.152,43.556,25.728
						C326.823,253.902,326.667,254.318,326.508,254.733z"/>
					<path style="fill:#D9D9D9;" d="M323.791,261.192c-14.519-8.576-29.038-17.152-43.556-25.728c0.185-0.399,0.367-0.8,0.547-1.202
						c14.519,8.576,29.037,17.152,43.556,25.728C324.158,260.392,323.976,260.793,323.791,261.192z"/>
				</g>
				<g>
					<polygon style="fill:#D9D9D9;" points="153.579,320.204 303.304,320.204 319.113,153.757 169.388,153.757 					"/>
					<polygon style="fill:#FE811A;" points="150.872,319.665 300.598,319.665 313.975,148.858 164.25,148.858 					"/>
					<polygon style="fill:#FEAE1A;" points="148.053,314.153 300.012,314.153 311.157,143.346 178.688,143.346 					"/>
					<polygon style="fill:#FFFFFF;" points="301.37,320.044 151.644,320.044 151.644,157.642 169.68,139.606 301.37,139.606 					
						"/>
					<rect x="161.953" y="153.757" style="fill:#D9D9D9;" width="57.839" height="91.379"/>
					
						<line style="fill:none;stroke:#FFFFFF;stroke-linecap:round;stroke-linejoin:round;stroke-miterlimit:10;" x1="215.729" y1="157.294" x2="165.634" y2="241.052"/>
					
						<line style="fill:none;stroke:#FFFFFF;stroke-linecap:round;stroke-linejoin:round;stroke-miterlimit:10;" x1="165.634" y1="157.294" x2="215.729" y2="241.052"/>
					<rect x="230.331" y="153.757" style="fill:#FEAE1A;" width="61.253" height="7.074"/>
					<rect x="230.331" y="166.487" style="fill:#868686;" width="33.469" height="4.538"/>
					<rect x="161.953" y="248.161" style="fill:#868686;" width="33.47" height="4.538"/>
					<rect x="161.953" y="254.694" style="fill:#D9D9D9;" width="57.839" height="2.269"/>
					<rect x="161.953" y="258.958" style="fill:#D9D9D9;" width="57.839" height="2.269"/>
					<rect x="230.331" y="178.303" style="fill:#D9D9D9;" width="61.253" height="1.591"/>
					<rect x="230.331" y="186.711" style="fill:#D9D9D9;" width="61.253" height="1.591"/>
					<rect x="230.331" y="195.119" style="fill:#D9D9D9;" width="61.253" height="1.591"/>
					<rect x="230.331" y="203.527" style="fill:#D9D9D9;" width="61.253" height="1.591"/>
					<rect x="230.331" y="211.934" style="fill:#D9D9D9;" width="61.253" height="1.591"/>
					<rect x="230.331" y="220.342" style="fill:#D9D9D9;" width="61.253" height="1.591"/>
					<rect x="230.331" y="228.75" style="fill:#D9D9D9;" width="61.253" height="1.591"/>
					<rect x="230.331" y="237.158" style="fill:#D9D9D9;" width="61.253" height="1.591"/>
					<rect x="230.331" y="245.565" style="fill:#D9D9D9;" width="61.253" height="1.591"/>
					<rect x="230.331" y="253.973" style="fill:#D9D9D9;" width="61.253" height="1.591"/>
					<rect x="230.331" y="262.381" style="fill:#D9D9D9;" width="61.253" height="1.591"/>
					<rect x="230.331" y="270.789" style="fill:#D9D9D9;" width="61.253" height="1.591"/>
				</g>
				<path style="fill:#D9D9D9;" d="M301.341,282.626l-74.444-3.631v-6.525c0-5.543-4.488-10.038-10.031-10.047l-65.222-0.101v11.458
					l83.486,38.347"/>
				<path style="fill:#1D262D;" d="M223.929,282.817v-8.842c0-4.719-3.826-8.545-8.545-8.545h-76.936v17.387v10.728v100.441
					c0,10.94,8.869,19.809,19.809,19.809h167.963c10.94,0,19.809-8.869,19.809-19.809V282.817H223.929z"/>
				<rect x="152.095" y="351.017" style="fill:#061122;" width="78.236" height="43.108"/>
				<rect x="159.363" y="357.009" style="fill:#FEAE1A;" width="31.85" height="31.85"/>
				<rect x="197.406" y="357.009" style="fill:#FEAE1A;" width="27.89" height="6.765"/>
				<rect x="197.406" y="366.002" style="fill:#FEAE1A;" width="27.89" height="1.842"/>
				<rect x="197.406" y="370.072" style="fill:#FEAE1A;" width="27.89" height="1.842"/>
				<rect x="197.406" y="376.584" style="fill:#FEAE1A;" width="3.729" height="3.73"/>
				<rect x="204.703" y="376.584" style="fill:#FEAE1A;" width="3.729" height="3.73"/>
				<rect x="211.999" y="376.584" style="fill:#FEAE1A;" width="3.73" height="3.73"/>
				<rect x="221.566" y="385.129" style="fill:#FEAE1A;" width="3.729" height="3.73"/>
			</g>
			<g>
				<path style="fill:#FE881A;" d="M279.828,348.214c22.048,23.032,58.725,23.831,81.757,1.783
					c23.032-22.048,23.831-58.725,1.783-81.756c-22.049-23.032-58.725-23.832-81.757-1.784
					C258.579,288.506,257.779,325.182,279.828,348.214z M291.856,277.159c17.131-16.4,44.41-15.804,60.809,1.327
					c16.4,17.131,15.805,44.409-1.326,60.809c-17.131,16.4-44.41,15.805-60.809-1.326
					C274.131,320.838,274.726,293.558,291.856,277.159z"/>
				<circle style="opacity:0.19;fill:#006BFF;" cx="320.999" cy="308.826" r="45.972"/>
				<circle style="opacity:0.35;fill:#FFFFFF;" cx="328.389" cy="326.407" r="17.582"/>
				<circle style="opacity:0.35;fill:#FFFFFF;" cx="350.692" cy="310.27" r="4.721"/>
				<path style="opacity:0.35;fill:#FFFFFF;" d="M299.866,287.693c3.797-3.797,8.364-6.351,13.197-7.677l-4.573-8.37
					c-5.565,1.868-10.797,5.009-15.229,9.442c-15.32,15.32-15.32,40.158,0,55.478l6.606-6.606
					C288.195,318.287,288.195,299.364,299.866,287.693z"/>
				<path style="fill:#FEAE1A;" d="M282.206,347.618c21.425,21.425,56.161,21.425,77.586,0c21.425-21.425,21.425-56.161,0-77.586
					c-21.425-21.425-56.161-21.425-77.586,0C260.782,291.457,260.782,326.194,282.206,347.618z M353.506,276.319
					c17.953,17.953,17.953,47.061,0,65.014c-17.953,17.953-47.061,17.953-65.014,0c-17.953-17.953-17.953-47.061,0-65.014
					C306.445,258.365,335.553,258.365,353.506,276.319z"/>
				<g style="opacity:0.54;">
					<path style="fill:#FFFFFF;" d="M328.389,279.868c5.035,1.28,9.803,3.884,13.743,7.825l6.606-6.606
						c-5.771-5.771-12.894-9.366-20.349-10.789V279.868z"/>
				</g>
				<path style="fill:#FEAE1A;" d="M424.327,205.497L424.327,205.497c5.245,5.245,5.245,13.749,0,18.994l-39.158,39.158
					l-18.995-18.994l39.158-39.158C410.578,200.252,419.082,200.252,424.327,205.497z"/>
				<path style="fill:#1D262D;" d="M370.166,243.585l16.074,16.074c2.059,2.059,2.059,5.427,0,7.486l-10.002,10.002
					c-2.059,2.059-5.427,2.059-7.486,0l-16.074-16.074c-2.059-2.059-2.059-5.427,0-7.486l10.002-10.002
					C364.739,241.527,368.107,241.527,370.166,243.585z"/>
			</g>
			<polygon style="fill:#D9D9D9;" points="151.644,157.642 169.679,139.606 166.866,159.953 			"/>
			<polygon style="fill:#EBE6FC;" points="151.644,157.642 169.68,139.606 169.68,157.642 			"/>
			<path style="fill:#1D262D;" d="M130.186,251.487h-9.724v-9.724c0-0.391-0.32-0.711-0.711-0.711c-0.391,0-0.711,0.32-0.711,0.711
				v9.724h-9.724c-0.391,0-0.711,0.32-0.711,0.711c0,0.391,0.32,0.711,0.711,0.711h9.724v9.724c0,0.391,0.32,0.711,0.711,0.711
				c0.391,0,0.711-0.32,0.711-0.711v-9.724h9.724c0.391,0,0.711-0.32,0.711-0.711C130.897,251.807,130.577,251.487,130.186,251.487z
				"/>
			<path style="fill:#1D262D;" d="M370.319,223.647h-9.724v-9.724c0-0.391-0.32-0.711-0.711-0.711c-0.391,0-0.711,0.32-0.711,0.711
				v9.724h-9.724c-0.391,0-0.711,0.32-0.711,0.711c0,0.391,0.32,0.711,0.711,0.711h9.724v9.724c0,0.391,0.32,0.711,0.711,0.711
				c0.391,0,0.711-0.32,0.711-0.711v-9.724h9.724c0.391,0,0.711-0.32,0.711-0.711C371.03,223.967,370.71,223.647,370.319,223.647z"
				/>
			<path style="fill:#FEAE1A;" d="M404.986,344.391h-7.596v-7.596c0-0.306-0.25-0.556-0.556-0.556c-0.306,0-0.556,0.25-0.556,0.556
				v7.596h-7.596c-0.306,0-0.556,0.25-0.556,0.556c0,0.306,0.25,0.556,0.556,0.556h7.596v7.596c0,0.306,0.25,0.556,0.556,0.556
				c0.305,0,0.556-0.25,0.556-0.556v-7.596h7.596c0.306,0,0.556-0.25,0.556-0.556C405.542,344.641,405.292,344.391,404.986,344.391z
				"/>
			<path style="fill:#FEAE1A;" d="M168.555,308.114h-9.724v-9.724c0-0.391-0.32-0.711-0.711-0.711s-0.711,0.32-0.711,0.711v9.724
				h-9.724c-0.391,0-0.711,0.32-0.711,0.711c0,0.391,0.32,0.711,0.711,0.711h9.724v9.724c0,0.391,0.32,0.711,0.711,0.711
				s0.711-0.32,0.711-0.711v-9.724h9.724c0.391,0,0.711-0.32,0.711-0.711C169.266,308.434,168.946,308.114,168.555,308.114z"/>
			<path style="fill:#FEAE1A;" d="M180.173,295.318h-4.552v-4.552c0-0.183-0.15-0.333-0.333-0.333c-0.183,0-0.333,0.15-0.333,0.333
				v4.552h-4.552c-0.183,0-0.333,0.15-0.333,0.333s0.15,0.333,0.333,0.333h4.552v4.552c0,0.183,0.15,0.333,0.333,0.333
				c0.183,0,0.333-0.15,0.333-0.333v-4.552h4.552c0.183,0,0.333-0.15,0.333-0.333S180.356,295.318,180.173,295.318z"/>
			<path style="fill:#1D262D;" d="M390.968,283.415h-5.172v-5.172c0-0.208-0.17-0.378-0.378-0.378s-0.378,0.17-0.378,0.378v5.172
				h-5.172c-0.208,0-0.378,0.17-0.378,0.378s0.17,0.378,0.378,0.378h5.172v5.172c0,0.208,0.17,0.378,0.378,0.378
				s0.378-0.17,0.378-0.378v-5.172h5.172c0.208,0,0.378-0.17,0.378-0.378S391.177,283.415,390.968,283.415z"/>
			<path style="fill:#1D262D;" d="M402.94,270.096h-2.751v-2.751c0-0.111-0.091-0.201-0.201-0.201c-0.111,0-0.201,0.091-0.201,0.201
				v2.751h-2.751c-0.111,0-0.201,0.091-0.201,0.201c0,0.111,0.09,0.201,0.201,0.201h2.751v2.751c0,0.111,0.091,0.201,0.201,0.201
				c0.111,0,0.201-0.091,0.201-0.201v-2.751h2.751c0.111,0,0.201-0.091,0.201-0.201C403.141,270.187,403.051,270.096,402.94,270.096
				z"/>
			<path style="fill:#1D262D;" d="M139.697,220.673h-6.344v-6.345c0-0.255-0.209-0.464-0.464-0.464s-0.464,0.209-0.464,0.464v6.345
				h-6.344c-0.255,0-0.464,0.209-0.464,0.464s0.209,0.464,0.464,0.464h6.344v6.345c0,0.255,0.209,0.464,0.464,0.464
				s0.464-0.209,0.464-0.464v-6.345h6.344c0.255,0,0.464-0.209,0.464-0.464S139.952,220.673,139.697,220.673z"/>
			<path style="fill:#1D262D;" d="M131.942,276.18h-5.481v-5.481c0-0.22-0.18-0.401-0.401-0.401c-0.221,0-0.401,0.18-0.401,0.401
				v5.481h-5.481c-0.22,0-0.401,0.18-0.401,0.401c0,0.22,0.18,0.401,0.401,0.401h5.481v5.481c0,0.221,0.18,0.401,0.401,0.401
				c0.22,0,0.401-0.18,0.401-0.401v-5.481h5.481c0.22,0,0.401-0.18,0.401-0.401C132.343,276.36,132.162,276.18,131.942,276.18z"/>
			<path style="fill:#1D262D;" d="M105.791,291.89h-2.915v-2.915c0-0.117-0.096-0.213-0.213-0.213c-0.117,0-0.213,0.096-0.213,0.213
				v2.915h-2.915c-0.117,0-0.213,0.096-0.213,0.213c0,0.117,0.096,0.213,0.213,0.213h2.915v2.915c0,0.117,0.096,0.213,0.213,0.213
				c0.117,0,0.213-0.096,0.213-0.213v-2.915h2.915c0.117,0,0.213-0.096,0.213-0.213C106.004,291.986,105.909,291.89,105.791,291.89z
				"/>
			<path style="fill:#1D262D;" d="M370.1,143.989h-2.915v-2.916c0-0.117-0.096-0.213-0.213-0.213c-0.117,0-0.213,0.096-0.213,0.213
				v2.916h-2.915c-0.117,0-0.213,0.096-0.213,0.213c0,0.117,0.096,0.213,0.213,0.213h2.915v2.915c0,0.117,0.096,0.213,0.213,0.213
				c0.117,0,0.213-0.096,0.213-0.213v-2.915h2.915c0.117,0,0.213-0.096,0.213-0.213C370.313,144.085,370.217,143.989,370.1,143.989z
				"/>
			<path style="fill:#1D262D;" d="M355.439,128.36h-7.141v-7.141c0-0.287-0.235-0.522-0.522-0.522c-0.287,0-0.522,0.235-0.522,0.522
				v7.141h-7.141c-0.287,0-0.522,0.235-0.522,0.522c0,0.287,0.235,0.522,0.522,0.522h7.141v7.14c0,0.287,0.235,0.522,0.522,0.522
				c0.287,0,0.522-0.235,0.522-0.522v-7.14h7.141c0.287,0,0.522-0.235,0.522-0.522C355.961,128.595,355.726,128.36,355.439,128.36z"
				/>
			<path style="fill:#1D262D;" d="M244.009,129.55h-7.14v-7.141c0-0.287-0.235-0.522-0.522-0.522c-0.287,0-0.522,0.235-0.522,0.522
				v7.141h-7.141c-0.287,0-0.522,0.235-0.522,0.522c0,0.287,0.235,0.522,0.522,0.522h7.141v7.14c0,0.287,0.235,0.522,0.522,0.522
				c0.287,0,0.522-0.235,0.522-0.522v-7.14h7.14c0.287,0,0.522-0.235,0.522-0.522C244.531,129.785,244.296,129.55,244.009,129.55z"
				/>
			<path style="fill:#1D262D;" d="M224.051,133.07h-3.798v-3.798c0-0.153-0.125-0.278-0.278-0.278c-0.153,0-0.278,0.125-0.278,0.278
				v3.798h-3.798c-0.153,0-0.278,0.125-0.278,0.278c0,0.153,0.125,0.278,0.278,0.278h3.798v3.798c0,0.153,0.125,0.278,0.278,0.278
				c0.153,0,0.278-0.125,0.278-0.278v-3.798h3.798c0.153,0,0.278-0.125,0.278-0.278C224.329,133.195,224.204,133.07,224.051,133.07z
				"/>
			<g>
				<path style="fill:#246D79;" d="M302.636,419.293c0,0,9.019-0.333,13.622-10.809l-4.263-2.222l5.442,0.073l2.659-5.103
					l-5.496,0.031l6.681-2.305l-6.947-2.112l8.183-0.26c0,0,2.625-7.338,0.432-16.272c0,0-9.261,0.798-16.693,12.323l2.56,4.395
					l-3.394-2.795c0,0-4.865,8.24-5.737,14.841l2.595,3.233l-2.814-1.816C299.466,410.494,299.153,415.573,302.636,419.293z"/>
				<path style="fill:#1A5463;" d="M303.983,401.466c0.909,2.206,1.615,4.45,2.131,6.702c0.599-1.579,1.222-3.148,1.887-4.698
					c-0.001-0.007-0.006-0.013-0.007-0.021c-0.066-0.72-0.189-1.443-0.373-2.163c-0.049-0.193-0.067-0.259-0.122-0.44
					c-0.052-0.174-0.108-0.348-0.167-0.521c-0.125-0.367-0.266-0.732-0.421-1.094c-0.124-0.291,0.031-0.626,0.355-0.681
					c0.326-0.055,0.693,0.12,0.826,0.431c0.345,0.808,0.613,1.633,0.814,2.461c1.768-3.915,3.734-7.736,5.924-11.434
					c0.165-0.278,0.335-0.553,0.502-0.83c-0.014-0.038-0.035-0.073-0.039-0.114c-0.042-0.467-0.111-0.937-0.212-1.405
					c-0.024-0.113-0.05-0.227-0.078-0.34c-0.022-0.091-0.039-0.197-0.073-0.291c-0.001-0.002-0.004-0.009-0.011-0.031
					c-0.008-0.028-0.016-0.057-0.025-0.085c-0.019-0.064-0.038-0.127-0.058-0.19c-0.037-0.12-0.077-0.239-0.118-0.359
					c-0.101-0.294,0.015-0.624,0.355-0.681c0.306-0.052,0.718,0.116,0.826,0.431c0.167,0.486,0.306,0.975,0.415,1.466
					c0.997-1.594,2.03-3.167,3.104-4.715c0.395-0.57,1.568,0.033,1.168,0.609c-2.122,3.06-4.093,6.213-5.912,9.45
					c1.735-0.711,3.53-1.329,5.377-1.842c0.31-0.086,0.704,0.144,0.826,0.43c0.134,0.316-0.044,0.594-0.355,0.681
					c-2.24,0.622-4.397,1.399-6.46,2.324c-0.094,0.042-0.189,0.057-0.281,0.054c-2.611,4.826-4.896,9.826-6.81,14.984
					c-0.969,2.612-1.843,5.263-2.626,7.947c-0.195,0.669-1.457,0.343-1.26-0.331c0.69-2.365,1.452-4.704,2.282-7.015
					c-0.073-0.083-0.128-0.184-0.151-0.306c-0.502-2.736-1.311-5.457-2.413-8.133C302.506,400.999,303.687,400.748,303.983,401.466z
					"/>
				<path style="fill:#248988;" d="M303.616,419.493c0,0,6.123,3.974,14.042-0.818l-1.788-3.453l3.567,2.579l4.133-2.14
					l-3.652-2.535l5.493,1.582l-3.615-4.629l5.536,3.634c0,0,5.15-3.636,7.854-10.568c0,0-6.5-3.779-16.778,0.391l-0.35,4.099
					l-0.946-3.428c0,0-7.052,3.191-10.699,7.153l0.213,3.347l-1.018-2.511C305.61,412.196,303.041,415.412,303.616,419.493z"/>
				<path style="fill:#1A5463;" d="M312.798,408.322c-0.424,1.883-1.001,3.696-1.707,5.426c1.131-0.766,2.273-1.515,3.434-2.231
					c0.003-0.005,0.002-0.012,0.005-0.017c0.291-0.507,0.546-1.043,0.759-1.605c0.057-0.151,0.076-0.202,0.124-0.348
					c0.046-0.14,0.09-0.281,0.132-0.423c0.088-0.301,0.164-0.608,0.23-0.92c0.053-0.25,0.312-0.4,0.551-0.286
					c0.241,0.115,0.403,0.402,0.346,0.669c-0.147,0.695-0.354,1.366-0.606,2.008c2.991-1.769,6.069-3.383,9.238-4.812
					c0.238-0.107,0.479-0.21,0.718-0.316c0.009-0.031,0.011-0.065,0.027-0.093c0.19-0.329,0.362-0.672,0.513-1.028
					c0.037-0.086,0.072-0.174,0.107-0.262c0.027-0.071,0.066-0.148,0.087-0.226c0-0.002,0.001-0.008,0.007-0.026
					c0.008-0.023,0.015-0.045,0.023-0.068c0.017-0.051,0.034-0.102,0.05-0.153c0.031-0.097,0.06-0.194,0.089-0.292
					c0.07-0.242,0.3-0.406,0.552-0.286c0.227,0.108,0.421,0.411,0.346,0.669c-0.115,0.399-0.251,0.788-0.407,1.163
					c1.402-0.591,2.817-1.151,4.247-1.677c0.526-0.193,1.022,0.751,0.49,0.946c-2.827,1.038-5.599,2.208-8.308,3.504
					c1.479,0.336,2.954,0.762,4.415,1.282c0.246,0.087,0.399,0.423,0.346,0.669c-0.058,0.271-0.305,0.373-0.552,0.285
					c-1.772-0.63-3.56-1.119-5.355-1.467c-0.082-0.016-0.151-0.05-0.211-0.095c-3.972,1.979-7.81,4.225-11.476,6.749
					c-1.856,1.278-3.667,2.625-5.434,4.038c-0.441,0.352-1.124-0.451-0.68-0.805c1.557-1.244,3.149-2.438,4.773-3.581
					c-0.01-0.089,0.001-0.181,0.042-0.272c0.941-2.044,1.671-4.221,2.186-6.505C312.038,407.326,312.936,407.709,312.798,408.322z"
					/>
			</g>
			<g>
				<path style="fill:#246D79;" d="M178.96,416.668c0,0-7.108,2.674-14.088-3.959l2.586-3.111l-4.2,1.826l-3.723-3.096l4.276-1.763
					l-5.935,0.384l4.704-3.899l-6.436,2.459c0,0-4.424-4.842-5.627-12.489c0,0,7.448-2.392,16.964,4.135l-0.557,4.244l1.725-3.273
					c0,0,6.456,4.813,9.279,9.653l-0.962,3.354l1.594-2.325C178.559,408.808,180.453,412.649,178.96,416.668z"/>
				<path style="fill:#1A5463;" d="M172.117,403.27c0.012,2.008,0.193,3.979,0.526,5.895c-0.979-1.03-1.972-2.046-2.992-3.032
					c-0.002-0.006,0.001-0.012-0.001-0.018c-0.183-0.58-0.322-1.182-0.414-1.8c-0.025-0.166-0.032-0.222-0.048-0.381
					c-0.016-0.152-0.029-0.305-0.04-0.459c-0.022-0.326-0.031-0.655-0.029-0.986c0.002-0.266-0.228-0.476-0.497-0.413
					c-0.271,0.063-0.499,0.319-0.501,0.603c-0.005,0.74,0.055,1.467,0.169,2.175c-2.645-2.464-5.414-4.79-8.316-6.948
					c-0.218-0.162-0.44-0.321-0.66-0.481c-0.002-0.034,0.004-0.068-0.007-0.101c-0.12-0.376-0.218-0.763-0.292-1.159
					c-0.018-0.096-0.035-0.193-0.05-0.29c-0.012-0.078-0.034-0.165-0.038-0.249c0-0.002,0-0.009-0.002-0.028
					c-0.003-0.025-0.006-0.049-0.008-0.074c-0.006-0.055-0.012-0.111-0.017-0.167c-0.01-0.105-0.018-0.211-0.025-0.317
					c-0.017-0.261-0.214-0.479-0.497-0.413c-0.255,0.059-0.519,0.323-0.501,0.603c0.028,0.432,0.079,0.857,0.154,1.273
					c-1.293-0.913-2.606-1.798-3.942-2.65c-0.492-0.314-1.206,0.535-0.709,0.852c2.642,1.685,5.198,3.491,7.662,5.412
					c-1.578,0.013-3.171,0.117-4.772,0.319c-0.269,0.034-0.5,0.341-0.501,0.603c-0.001,0.289,0.227,0.447,0.497,0.413
					c1.941-0.245,3.867-0.344,5.769-0.297c0.086,0.002,0.165-0.017,0.236-0.049c3.596,2.896,6.995,6.034,10.159,9.415
					c1.602,1.712,3.142,3.485,4.623,5.314c0.369,0.456,1.242-0.207,0.87-0.667c-1.305-1.611-2.657-3.179-4.053-4.702
					c0.03-0.088,0.04-0.184,0.018-0.286c-0.501-2.287-0.758-4.662-0.772-7.097C173.111,402.428,172.113,402.616,172.117,403.27z"/>
			</g>
		</g>
	</g>
</g>

</svg>
