<?xml version="1.0" encoding="utf-8"?>
<!-- Generator: Adobe Illustrator 27.5.0, SVG Export Plug-In . SVG Version: 6.00 Build 0)  -->
<svg version="1.1" xmlns="http://www.w3.org/2000/svg" xmlns:xlink="http://www.w3.org/1999/xlink" x="0px" y="0px"
	 viewBox="0 0 500 500" style="enable-background:new 0 0 500 500;" xml:space="preserve">
<g id="BACKGROUND">
</g>
<g id="OBJECTS">
	<g>
		<g>
			<path style="fill:#3F3A36;" d="M120.06,113.298c-13.38,8.898-23.93,20.456-31.428,33.502
				c6.366-9.299,14.595-17.582,24.586-24.227c41.01-27.273,95.955-16.757,122.719,23.487
				c26.763,40.247,15.216,94.982-25.796,122.255c-40.979,27.251-95.866,16.771-122.653-23.398c1.401,2.567,2.919,5.096,4.568,7.576
				c30.705,46.172,93.027,58.71,139.198,28.004c46.171-30.705,58.71-93.027,28.004-139.198
				C228.554,95.13,166.23,82.593,120.06,113.298z"/>
			<path style="fill:#544C47;" d="M188.287,97.295c64.732,16.068,103.401,76.586,78.236,134.668
				c-14.393,33.065-31.852,47.076-69.654,63.095c11.938-2.575,23.602-7.388,34.385-14.56c46.171-30.705,58.71-93.027,28.004-139.198
				C242.459,116.039,216.193,100.846,188.287,97.295z"/>
			<path style="fill:#68615D;" d="M148.676,291.473c16.259-0.001,33.116-2.853,49.699-6.87
				c-34.153,6.887-70.323-6.547-90.493-36.875c-26.766-40.245-15.214-94.981,25.795-122.254
				c17.528-11.656,37.597-16.395,56.925-14.869c-8.042-4.943-16.094-9.946-24.511-14.093c-18.452,0.361-37.02,5.8-53.527,16.777
				c-46.17,30.705-58.709,93.028-28.004,139.198c13.872,20.861,34.198,34.853,56.574,41.096
				C143.284,292.257,145.79,291.473,148.676,291.473z"/>
			<path style="opacity:0.5;fill:#B5DBEA;" d="M233.467,147.704c25.875,38.909,14.709,91.823-24.938,118.191
				c-39.646,26.366-92.762,16.198-118.637-22.708c-25.875-38.908-14.709-91.823,24.937-118.189
				C154.476,98.63,207.593,108.797,233.467,147.704z"/>
			<path style="opacity:0.3;fill:#68615D;" d="M112.565,113.289c-46.17,30.705-58.709,93.028-28.004,139.198
				c13.872,20.861,34.198,34.853,56.574,41.096c2.149-1.326,4.656-2.11,7.542-2.11c16.259-0.001,33.116-2.853,49.699-6.87
				c-18.16,3.662-36.89,1.577-53.481-5.736c-32.929-7.233-61.284-38.862-62.855-72.638c-1.436-19.255,2.378-38.212,13.19-54.246
				c20.217-27.733,50.5-43.688,83.193-48.762c-4.049-2.372-8.145-4.646-12.33-6.708C147.64,96.873,129.071,102.312,112.565,113.289z
				"/>
			
				<radialGradient id="SVGID_1_" cx="202.9472" cy="151.5737" r="111.2008" fx="203.1351" fy="151.5354" gradientTransform="matrix(-0.8191 0.5738 -0.9579 -1.3675 474.4609 279.6376)" gradientUnits="userSpaceOnUse">
				<stop  offset="0.1452" style="stop-color:#FFFFFF"/>
				<stop  offset="1" style="stop-color:#5982BD;stop-opacity:0"/>
			</radialGradient>
			<path style="opacity:0.5;fill:url(#SVGID_1_);" d="M137.857,114.106c-7.963,2.426-15.725,6.034-23.028,10.891
				c-39.646,26.366-50.812,79.281-24.937,118.189c25.875,38.907,78.991,49.075,118.637,22.708
				c8.112-5.396,15.009-11.916,20.663-19.187C183.737,214.36,148.071,169.69,137.857,114.106z"/>
			<g>
				<path style="fill:#908F93;" d="M211.597,270.505c-42.153,28.032-98.838,17.168-126.364-24.222
					c-27.524-41.388-15.625-97.866,26.529-125.898c42.152-28.033,98.838-17.167,126.364,24.221
					C265.65,185.994,253.75,242.471,211.597,270.505z M114.674,124.764c-39.737,26.426-50.98,79.633-25.061,118.608
					c25.918,38.972,79.334,49.181,119.072,22.753c39.738-26.426,50.981-79.633,25.062-118.606
					C207.828,108.544,154.411,98.336,114.674,124.764z"/>
			</g>
			<g>
				<path style="fill:#AEADB3;" d="M217.425,279.27c-46.221,30.741-108.833,18.146-139.573-28.075
					C47.113,204.97,59.71,142.357,105.931,111.619c46.224-30.74,108.836-18.144,139.576,28.079
					C276.245,185.919,263.649,248.532,217.425,279.27z M111.757,120.377c-41.392,27.527-52.673,83.599-25.146,124.991
					c27.528,41.392,83.599,52.673,124.992,25.146c41.393-27.529,52.673-83.599,25.145-124.991
					C209.22,104.128,153.15,92.85,111.757,120.377z"/>
			</g>
			<g style="opacity:0.4;">
				<path style="fill:#F2F2F4;" d="M175.442,106.396c24.161,3.744,46.733,17.211,61.305,39.126
					c27.528,41.392,16.248,97.462-25.145,124.991c-21.829,14.517-47.737,18.23-71.391,12.435
					c38.526,11.668,80.492-1.797,101.064-38.616c15.493-27.989,22.24-61.529,6.231-91.303
					C233.102,126.899,204.659,107.775,175.442,106.396z"/>
				<path style="fill:#F2F2F4;" d="M65.118,207.375c-4.62-41.137,22.557-81.947,58.461-102.034
					c5.965-3.309,12.055-6.159,18.237-8.581c-12.466,2.494-24.659,7.395-35.885,14.859C59.71,142.357,47.113,204.97,77.852,251.194
					c18.533,27.865,48.651,43.502,79.776,44.797C112.149,287.93,69.574,254.439,65.118,207.375z"/>
			</g>
			<path style="opacity:0.5;fill:#F2F2F4;" d="M128.472,163.032c4.665,7.015,2.76,16.481-4.254,21.145
				c-7.013,4.665-16.48,2.76-21.145-4.253c-4.665-7.014-2.761-16.48,4.253-21.145C114.341,154.115,123.808,156.019,128.472,163.032z
				"/>
			<path style="opacity:0.3;fill:#FFFFFF;" d="M188.707,174.414c4.061-2.185,8.012-4.548,11.89-7.032
				c-5.757-10.251-12.743-19.666-21.242-27.6c-3.907,2.906-7.866,5.779-11.88,8.544c3.709,3.545,7.141,7.528,10.036,11.047
				C181.604,164.349,185.331,169.366,188.707,174.414z"/>
			<path style="opacity:0.3;fill:#FFFFFF;" d="M194.139,183.109c6.719,11.526,11.585,23.19,14.529,34.908
				c1.319-0.599,2.649-1.181,3.964-1.752c1.004-0.426,1.984-0.852,2.936-1.282c0.915-0.41,1.835-0.826,2.753-1.241
				c-3.181-12.709-7.421-25.484-13.105-37.433C201.593,178.689,197.91,180.97,194.139,183.109z"/>
			<path style="opacity:0.3;fill:#FFFFFF;" d="M208.222,162.301c4.287-2.958,8.512-6.019,12.719-9.103
				c-2.055-2.71-4.355-5.508-6.937-8.432l-2.222-2.526c-4.909-5.578-9.626-10.941-14.834-15.791
				c-2.032,1.542-4.05,3.086-6.055,4.608c-1.079,0.821-2.171,1.652-3.259,2.478C195.813,142.017,202.595,151.791,208.222,162.301z"
				/>
			<path style="opacity:0.3;fill:#FFFFFF;" d="M212.662,171.249c5.749,12.51,10.055,25.795,13.275,39.022
				c2.043-0.938,4.077-1.876,6.08-2.805c2.359-1.089,4.758-2.191,7.166-3.301c-1.604-11.034-3.409-22.352-7.706-33.034
				c-1.303-3.244-2.96-6.508-5.005-9.867C221.893,164.631,217.309,167.993,212.662,171.249z"/>
		</g>
		<g>
			<polygon style="fill:#9C9CA0;" points="410.818,284.003 414.406,291.301 427.046,292.578 436.509,266.918 437.395,254.959 
				432.173,249.076 423.034,249.981 415.601,266.507 			"/>
			<g>
				<g id="XMLID_2_">
					<g>
						<path style="fill:#A6A5AA;" d="M439.013,287.147c9.627,1.177,13.137-8.737,10.811-16.032
							c-1.987-8.553-10.655-12.649-18.669-13.659c-0.405,4.03-1.168,7.905-2.35,12C434.727,274.095,431.37,284.872,439.013,287.147z
							"/>
						<path style="fill:#908F93;" d="M443.395,252.994c-1.719-0.776-3.529-1.317-5.434-1.881c-1.54-0.456-3.129-0.927-4.665-1.544
							c-0.353-0.134-0.722-0.305-1.124-0.493c-1.216-0.556-2.592-1.182-3.686-1.06c-0.813,0.087-1.185,0.497-1.702,1.066
							c-0.166,0.189-0.35,0.385-0.557,0.587l4.84,1.316l0.409,1.508c-0.052,1.696-0.159,3.344-0.322,4.963
							c8.014,1.01,16.682,5.106,18.669,13.659c2.325,7.295-1.185,17.209-10.811,16.032c-7.643-2.275-4.285-13.053-10.207-17.691
							c-0.164,0.563-0.326,1.123-0.503,1.698c-2.146,6.846-4.826,12.329-8.194,18.471l-0.155,0.166l-1.544,1.116l-0.25-0.072
							l-4.398-1.408c0.214,2.145,1.194,3.122,3.616,3.936c1.217,0.404,2.411,0.834,3.599,1.269c1.896,0.686,3.852,1.406,5.808,1.975
							c6.694,1.952,12.28,2.242,17.9-2.695c3.544-3.127,7.789-7.454,9.143-13.282c1.942-5.685,1.52-8.031,0.49-13.7l-0.285-1.604
							C453.052,259.823,449.578,255.779,443.395,252.994z"/>
						<path style="fill:#A6A5AA;" d="M428.642,265.971c-1.421-1.738-3.31-3.071-5.767-3.49c-0.48,2.441-1.107,4.832-1.781,7.153
							c0.917-0.149,1.795-0.145,2.477-0.007c1.221,0.699,2.535,2.236,2.778,4.04c0.325-0.921,0.644-1.858,0.946-2.828
							C427.813,269.182,428.257,267.567,428.642,265.971z"/>
						<path style="fill:#908F93;" d="M423.57,269.627c-0.682-0.139-1.56-0.143-2.477,0.007c-0.876,3.02-1.844,5.906-2.772,8.51
							c-0.209,0.594-0.459,1.174-0.7,1.757c0.225,0.272,0.463,0.529,0.686,0.806c-0.224-0.276-0.462-0.534-0.686-0.806
							c-0.496,1.194-1.018,2.379-1.545,3.529c-0.45,0.977-0.906,1.963-1.321,2.949c-0.072,0.16-0.143,0.319-0.208,0.505
							c-0.197,0.484-0.401,1.011-0.676,1.471l4.353,1.399l1.021-0.741c2.833-5.17,5.174-9.884,7.104-15.346
							C426.105,271.863,424.791,270.326,423.57,269.627z"/>
						<path style="fill:#908F93;" d="M424.33,250.237c-0.055,0.58-0.044,1.166-0.032,1.791c0.013,0.686,0.022,1.384-0.051,2.092
							c-0.225,2.088-0.596,4.2-0.978,6.269c1.368,0.551,2.737,1.088,4.103,1.658c-1.366-0.57-2.735-1.107-4.103-1.658
							c-0.079,0.423-0.157,0.85-0.236,1.271l-0.059,0.344c-0.033,0.158-0.069,0.318-0.1,0.478c2.457,0.419,4.346,1.752,5.767,3.49
							c1.07-4.444,1.637-8.741,1.787-13.423l-0.201-0.701L424.33,250.237z"/>
						<path style="fill:#32353A;" d="M295.303,250.458l115.778,37.011c1.546-3.394,2.972-6.775,4.247-10.165
							c-28.565-31.564-76.049-34.109-115.731-46.103C297.929,237.56,296.434,244.018,295.303,250.458z"/>
						<path style="fill:#4B4F56;" d="M301.355,224.746c-0.6,2.139-1.19,4.289-1.759,6.456
							c39.683,11.993,87.166,14.539,115.731,46.103c2.23-5.919,4.017-11.869,5.298-17.959
							C381.646,243.953,341.276,235.464,301.355,224.746z"/>
						<path style="fill:#32353A;" d="M422.208,249.663l-118.71-32.33c-0.728,2.441-1.443,4.919-2.142,7.412
							c39.921,10.718,80.291,19.207,119.271,34.599C421.295,256.163,421.83,252.943,422.208,249.663z"/>
						<path style="fill:#1E2123;" d="M422.208,249.663c-0.378,3.28-0.913,6.5-1.582,9.682c-1.281,6.09-3.067,12.04-5.298,17.959
							c-1.275,3.39-2.701,6.771-4.247,10.165l1.592,0.51c-0.01-0.034-0.004-0.061-0.004-0.1l0.256,0.004
							c0.254-0.396,0.457-0.909,0.644-1.387c0.077-0.189,0.148-0.364,0.213-0.533c0.422-1.001,0.877-1.985,1.344-2.977
							c0.594-1.302,1.183-2.642,1.723-3.99c0.159-0.401,0.336-0.8,0.481-1.203c1.675-4.699,3.533-10.279,4.603-15.983l0.065-0.344
							c0.091-0.489,0.184-0.984,0.274-1.479c0.366-1.98,0.712-3.997,0.929-5.978c0.069-0.64,0.056-1.287,0.047-1.964
							c-0.009-0.676-0.017-1.392,0.055-2.085L422.208,249.663z"/>
						<path style="fill:#1E2123;" d="M298.476,223.976c0.958,0.261,1.92,0.513,2.88,0.77c0.699-2.493,1.414-4.971,2.142-7.412
							l-5.034-1.371c-0.002,0.091-0.021,0.179-0.038,0.265c-0.599,3.392-1.542,6.801-2.453,10.083
							c-0.529,1.92-1.078,3.888-1.551,5.818c-0.487,2.041-0.934,4.16-1.363,6.212c-0.735,3.511-1.479,7.1-2.547,10.588l4.791,1.531
							c1.131-6.44,2.626-12.898,4.294-19.257c-0.57-0.171-1.145-0.339-1.712-0.516c0.566,0.177,1.142,0.344,1.712,0.516
							c0.568-2.167,1.159-4.316,1.759-6.456C300.395,224.489,299.434,224.237,298.476,223.976z"/>
						<path style="fill:#908F93;" d="M413.713,288.308l-0.878-0.274c0.032-0.047,0.064-0.094,0.09-0.15"/>
						<path style="fill:#908F93;" d="M413.713,288.308l0.158,0.047c-0.052,0.099-0.104,0.17-0.15,0.251
							C413.711,288.514,413.708,288.414,413.713,288.308z"/>
						<path style="fill:#908F93;" d="M412.669,287.879l0.256,0.004c-0.025,0.057-0.058,0.103-0.09,0.15l-0.162-0.055
							C412.663,287.944,412.669,287.917,412.669,287.879z"/>
						<path style="fill:#908F93;" d="M412.661,288.249c-0.003-0.085,0.001-0.176,0.012-0.271"/>
						<path style="fill:#908F93;" d="M412.661,288.249c-0.005,0.029-0.001,0.052,0.005,0.061l-0.033-0.029
							C412.642,288.275,412.653,288.256,412.661,288.249z"/>
						<path style="fill:#908F93;" d="M264.638,235.679l16.655,4.934c0.436-3.204,0.954-6.311,1.575-9.351
							c-4.634-1.377-9.134-3.298-13.723-5.273C267.927,229.274,266.4,232.499,264.638,235.679z"/>
						<path style="fill:#908F93;" d="M286.274,218.705l-14.283-4.269c-0.149,1.323-0.373,2.631-0.639,3.932
							c4.557,1.528,8.984,3.282,13.446,4.977C285.246,221.785,285.741,220.239,286.274,218.705z"/>
						<path style="fill:#6A696D;" d="M269.802,213.783c-0.085,1.193-0.276,2.502-0.548,3.885c-0.465,2.354-1.165,4.924-2.001,7.505
							c-1.135,3.519-2.511,7.064-3.86,10.134l1.245,0.372c1.763-3.179,3.289-6.405,4.508-9.69c0.928-2.503,1.682-5.037,2.207-7.621
							c0.266-1.3,0.489-2.609,0.639-3.932L269.802,213.783z"/>
						<path style="fill:#A6A5AA;" d="M284.799,223.345c-4.462-1.696-8.89-3.449-13.446-4.977c-0.525,2.583-1.279,5.118-2.207,7.621
							c4.589,1.975,9.089,3.896,13.723,5.273C283.42,228.575,284.051,225.939,284.799,223.345z"/>
						<path style="fill:#6A696D;" d="M286.274,218.705c-0.533,1.535-1.028,3.081-1.476,4.641c-0.748,2.594-1.379,5.23-1.931,7.917
							c-0.621,3.04-1.139,6.147-1.575,9.351l1.056,0.314l2.91-9.007l2.42-7.486l1.564-4.843L286.274,218.705z"/>
					</g>
				</g>
			</g>
			<path style="fill:#908F93;" d="M284.512,230.76c-4.721,15.77-1.688,18.261,5.863,19.656l4.556-17.892
				C291.966,230.075,288.362,228.429,284.512,230.76z"/>
			<path style="fill:#A6A5AA;" d="M286.546,224.363c-0.551,1.622-1.142,3.47-1.789,5.577c-0.086,0.28-0.162,0.548-0.245,0.82
				c3.851-2.332,7.454-0.685,10.419,1.764l1.608-6.315C293.209,224.697,289.881,222.426,286.546,224.363z"/>
			<path style="fill:#908F93;" d="M286.546,224.363c3.335-1.937,6.663,0.334,9.993,1.846l2.87-11.274
				C292.399,212.971,290.383,213.105,286.546,224.363z"/>
			<path style="opacity:0.2;fill:#211915;" d="M421.377,287.274c-0.409,0.774-0.833,1.559-1.269,2.351l-0.155,0.166l-1.544,1.116
				l-0.25-0.072l-4.398-1.408c0.214,2.145,1.194,3.122,3.616,3.936c1.217,0.404,2.411,0.834,3.599,1.269
				c1.896,0.686,3.852,1.406,5.808,1.975c6.694,1.952,12.28,2.242,17.9-2.695c1.805-1.593,3.789-3.498,5.484-5.753
				C441.398,292.184,430.571,291.686,421.377,287.274z"/>
			<path style="opacity:0.1;fill:#211915;" d="M443.395,252.994c-1.719-0.776-3.529-1.317-5.434-1.881
				c-1.54-0.456-3.129-0.927-4.665-1.544c-0.353-0.134-0.722-0.305-1.124-0.493c-1.216-0.556-2.592-1.182-3.686-1.06
				c-0.813,0.087-1.185,0.497-1.702,1.066c-0.166,0.189-0.35,0.385-0.557,0.587l4.84,1.316l0.409,1.508
				c-0.021,0.726-0.056,1.437-0.099,2.146c7.312,2.956,16.105,5.281,22.456,9.754C452.64,259.364,449.225,255.618,443.395,252.994z"
				/>
			<path style="opacity:0.2;fill:#211915;" d="M416.076,283.43c-0.45,0.977-0.906,1.963-1.321,2.949
				c-0.072,0.16-0.143,0.319-0.208,0.505c-0.197,0.484-0.401,1.011-0.676,1.471l4.353,1.399l1.021-0.741
				c0.989-1.803,1.909-3.549,2.781-5.289c-1.8-0.662-3.435-1.537-4.761-2.941C416.879,281.678,416.473,282.56,416.076,283.43z"/>
			<path style="opacity:0.1;fill:#211915;" d="M430.227,251.847l-5.897-1.609c-0.055,0.58-0.044,1.166-0.032,1.791
				c0.013,0.686,0.022,1.384-0.051,2.092c-0.235,2.181-0.631,4.391-1.03,6.548c2.009-0.87,4.435-0.051,6.255,1.311
				c0.54-3.075,0.853-6.16,0.957-9.432L430.227,251.847z"/>
			<path style="opacity:0.3;fill:#211915;" d="M291.213,249.112l121.167,38.586c-0.009-0.031,1.303-3.709,1.768-4.701
				c0.695-1.52,1.739-2.973,2.339-4.556c-41.726-12.088-81.433-25.305-123.321-37.107
				C292.606,243.935,291.999,246.551,291.213,249.112z"/>
			<path style="opacity:0.1;fill:#211915;" d="M423.948,252.232c-0.009-0.679-0.017-1.394,0.054-2.085l-124.836-33.999
				c-0.004,0.091-0.023,0.179-0.041,0.265c-0.108,0.635-0.243,1.271-0.378,1.904c40.892,15.708,83.008,25.333,125.203,34.548
				C423.951,252.656,423.951,252.448,423.948,252.232z"/>
			<path style="opacity:0.1;fill:#211915;" d="M274.009,215.038l-4.207-1.255c-0.053,0.752-0.152,1.556-0.285,2.39
				c-0.76,4.839-2.734,10.87-4.853,16.112c-0.423,1.042-0.847,2.058-1.272,3.022l3.877,1.15l15.079,4.469l0.883-2.726
				c-5.006-1.723-10.002-3.616-15.026-5.014c1.652-5.385,3.703-10.586,5.221-15.961c5.022,1.359,10.11,2.765,15.251,4.118
				l0.565-1.753L274.009,215.038z"/>
			<path style="opacity:0.1;fill:#211915;" d="M295.199,214.017c-1.865-0.174-3.263,0.246-4.544,1.686
				c-1.863,2.094-3.476,6.357-5.898,14.237c-2.32,7.555-2.947,12.184-2.211,15.118c0.445,1.772,1.386,2.929,2.751,3.738
				c1.319,0.782,3.032,1.242,5.078,1.621l0.735-2.89c-2.099-0.03-4.143-0.165-5.987-0.888c-0.544-10.192,3.029-20.628,8.317-29.724
				c1.637,0.872,3.18,1.953,4.678,3.093l1.291-5.072C297.756,214.473,296.387,214.13,295.199,214.017z"/>
		</g>
	</g>
	<g>
		<g style="opacity:0.3;">
			<g>
				<path style="fill:#3F3A36;" d="M120.06,473.902c-13.38-8.353-23.93-19.201-31.428-31.446
					c6.366,8.729,14.595,16.504,24.586,22.739c41.01,25.599,95.955,15.728,122.719-22.046
					c26.763-37.777,15.216-89.153-25.796-114.751c-40.979-25.58-95.866-15.742-122.653,21.961c1.401-2.409,2.919-4.783,4.568-7.111
					c30.705-43.339,93.027-55.106,139.198-26.286c46.171,28.82,58.71,87.319,28.004,130.655
					C228.554,490.955,166.23,502.722,120.06,473.902z"/>
				<path style="fill:#544C47;" d="M188.287,488.924c64.732-15.083,103.401-71.886,78.236-126.404
					c-14.393-31.035-31.852-44.185-69.654-59.223c11.938,2.417,23.602,6.935,34.385,13.665
					c46.171,28.82,58.71,87.319,28.004,130.655C242.459,471.33,216.193,485.591,188.287,488.924z"/>
				<path style="fill:#68615D;" d="M148.676,306.663c16.259,0.001,33.116,2.677,49.699,6.447
					c-34.153-6.464-70.323,6.145-90.493,34.613c-26.766,37.774-15.214,89.151,25.795,114.751
					c17.528,10.939,37.597,15.388,56.925,13.957c-8.042,4.639-16.094,9.334-24.511,13.227c-18.452-0.339-37.02-5.444-53.527-15.748
					c-46.17-28.821-58.709-87.318-28.004-130.654c13.872-19.582,34.198-32.715,56.574-38.574
					C143.284,305.926,145.79,306.663,148.676,306.663z"/>
				<path style="opacity:0.5;fill:#B5DBEA;" d="M114.829,462.922c-39.646-24.749-50.812-74.416-24.937-110.936
					c25.875-36.519,78.991-46.062,118.637-21.315c39.646,24.75,50.813,74.416,24.938,110.936
					C207.593,478.127,154.476,487.669,114.829,462.922z"/>
				<path style="opacity:0.3;fill:#68615D;" d="M112.565,473.91c-46.17-28.821-58.709-87.318-28.004-130.654
					c13.872-19.582,34.198-32.715,56.574-38.574c2.149,1.244,4.656,1.981,7.542,1.981c16.259,0.001,33.116,2.677,49.699,6.447
					c-18.16-3.437-36.89-1.48-53.481,5.385c-32.929,6.79-61.284,36.478-62.855,68.181c-1.436,18.073,2.378,35.867,13.19,50.917
					c20.217,26.03,50.5,41.005,83.193,45.768c-4.049,2.228-8.145,4.36-12.33,6.297C147.64,489.319,129.071,484.214,112.565,473.91z"
					/>
				
					<radialGradient id="SVGID_00000088827042034036340760000012850366688132481716_" cx="279.36" cy="36.6783" r="111.2009" fx="279.548" fy="36.64" gradientTransform="matrix(-0.8191 -0.5385 -0.9579 1.2836 426.9865 506.3978)" gradientUnits="userSpaceOnUse">
					<stop  offset="0.1452" style="stop-color:#FFFFFF"/>
					<stop  offset="1" style="stop-color:#5982BD;stop-opacity:0"/>
				</radialGradient>
				<path style="opacity:0.5;fill:url(#SVGID_00000088827042034036340760000012850366688132481716_);" d="M137.857,473.144
					c-7.963-2.277-15.725-5.663-23.028-10.222c-39.646-24.749-50.812-74.416-24.937-110.936
					c25.875-36.519,78.991-46.062,118.637-21.315c8.112,5.065,15.009,11.185,20.663,18.009
					C183.737,379.042,148.071,420.971,137.857,473.144z"/>
				<g>
					<path style="fill:#908F93;" d="M238.126,444.517c-27.525,38.848-84.211,49.047-126.364,22.733
						c-42.154-26.313-54.054-79.324-26.529-118.171c27.525-38.85,84.211-49.048,126.364-22.735
						C253.75,352.656,265.65,405.668,238.126,444.517z M233.747,441.782c25.919-36.581,14.676-86.523-25.062-111.328
						c-39.738-24.806-93.154-15.224-119.072,21.357c-25.919,36.583-14.676,86.523,25.061,111.327
						C154.411,487.945,207.828,478.365,233.747,441.782z"/>
				</g>
				<g>
					<path style="fill:#AEADB3;" d="M245.507,449.124c-30.74,43.384-93.352,55.207-139.576,26.354
						c-46.221-28.85-58.818-87.621-28.079-131.007c30.74-43.386,93.352-55.208,139.573-26.354
						C263.649,346.968,276.245,405.737,245.507,449.124z M236.747,443.654c27.528-38.85,16.248-91.479-25.145-117.319
						c-41.393-25.838-97.464-15.249-124.992,23.603c-27.527,38.853-16.246,91.482,25.146,117.321
						C153.15,493.096,209.22,482.509,236.747,443.654z"/>
				</g>
				<g style="opacity:0.4;">
					<path style="fill:#F2F2F4;" d="M175.442,480.38c24.161-3.515,46.733-16.155,61.305-36.726
						c27.528-38.85,16.248-91.479-25.145-117.319c-21.829-13.625-47.737-17.111-71.391-11.672
						c38.526-10.953,80.492,1.686,101.064,36.246c15.493,26.27,22.24,57.753,6.231,85.699
						C233.102,461.137,204.659,479.086,175.442,480.38z"/>
					<path style="fill:#F2F2F4;" d="M65.118,385.6c-4.62,38.612,22.557,76.918,58.461,95.771c5.965,3.106,12.055,5.78,18.237,8.054
						c-12.466-2.34-24.659-6.939-35.885-13.947c-46.221-28.85-58.818-87.621-28.079-131.007
						c18.533-26.156,48.651-40.835,79.776-42.049C112.149,309.988,69.574,341.424,65.118,385.6z"/>
				</g>
				<path style="opacity:0.5;fill:#F2F2F4;" d="M128.472,427.22c4.665-6.584,2.76-15.469-4.254-19.848
					c-7.013-4.378-16.48-2.59-21.145,3.994c-4.665,6.583-2.761,15.469,4.253,19.846C114.341,435.591,123.808,433.803,128.472,427.22
					z"/>
				<path style="opacity:0.3;fill:#FFFFFF;" d="M188.707,416.537c4.061,2.051,8.012,4.269,11.89,6.601
					c-5.757,9.622-12.743,18.458-21.242,25.907c-3.907-2.729-7.866-5.425-11.88-8.02c3.709-3.328,7.141-7.068,10.036-10.369
					C181.604,425.984,185.331,421.275,188.707,416.537z"/>
				<path style="opacity:0.3;fill:#FFFFFF;" d="M194.139,408.377c6.719-10.819,11.585-21.768,14.529-32.766
					c1.319,0.562,2.649,1.108,3.964,1.644c1.004,0.401,1.984,0.8,2.936,1.203c0.915,0.386,1.835,0.776,2.753,1.166
					c-3.181,11.929-7.421,23.919-13.105,35.135C201.593,412.525,197.91,410.383,194.139,408.377z"/>
				<path style="opacity:0.3;fill:#FFFFFF;" d="M208.222,427.906c4.287,2.776,8.512,5.648,12.719,8.545
					c-2.055,2.543-4.355,5.17-6.937,7.913l-2.222,2.372c-4.909,5.234-9.626,10.27-14.834,14.821
					c-2.032-1.447-4.05-2.896-6.055-4.326c-1.079-0.771-2.171-1.55-3.259-2.325C195.813,446.945,202.595,437.772,208.222,427.906z"
					/>
				<path style="opacity:0.3;fill:#FFFFFF;" d="M212.662,419.508c5.749-11.742,10.055-24.212,13.275-36.627
					c2.043,0.881,4.077,1.762,6.08,2.633c2.359,1.022,4.758,2.057,7.166,3.1c-1.604,10.355-3.409,20.978-7.706,31.004
					c-1.303,3.045-2.96,6.109-5.005,9.262C221.893,425.721,217.309,422.565,212.662,419.508z"/>
			</g>
			<g>
				<polygon style="fill:#9C9CA0;" points="410.818,313.675 414.406,306.824 427.046,305.625 436.509,329.71 437.395,340.935 
					432.173,346.457 423.034,345.607 415.601,330.097 				"/>
				<g>
					<g id="XMLID_1_">
						<g>
							<path style="fill:#A6A5AA;" d="M439.013,310.723c9.627-1.104,13.137,8.201,10.811,15.048
								c-1.987,8.028-10.655,11.873-18.669,12.821c-0.405-3.784-1.168-7.421-2.35-11.265
								C434.727,322.974,431.37,312.858,439.013,310.723z"/>
							<path style="fill:#908F93;" d="M443.395,342.779c-1.719,0.729-3.529,1.236-5.434,1.767c-1.54,0.427-3.129,0.868-4.665,1.448
								c-0.353,0.126-0.722,0.287-1.124,0.463c-1.216,0.521-2.592,1.11-3.686,0.996c-0.813-0.083-1.185-0.467-1.702-1.002
								c-0.166-0.177-0.35-0.36-0.557-0.55l4.84-1.235l0.409-1.416c-0.052-1.593-0.159-3.14-0.322-4.658
								c8.014-0.948,16.682-4.793,18.669-12.821c2.325-6.847-1.185-16.152-10.811-15.048c-7.643,2.136-4.285,12.251-10.207,16.604
								c-0.164-0.527-0.326-1.053-0.503-1.593c-2.146-6.427-4.826-11.572-8.194-17.338l-0.155-0.155l-1.544-1.049l-0.25,0.068
								l-4.398,1.322c0.214-2.014,1.194-2.93,3.616-3.693c1.217-0.38,2.411-0.783,3.599-1.191c1.896-0.644,3.852-1.32,5.808-1.854
								c6.694-1.832,12.28-2.104,17.9,2.529c3.544,2.936,7.789,6.998,9.143,12.468c1.942,5.337,1.52,7.539,0.49,12.859l-0.285,1.506
								C453.052,336.37,449.578,340.165,443.395,342.779z"/>
							<path style="fill:#A6A5AA;" d="M428.642,330.6c-1.421,1.631-3.31,2.883-5.767,3.276c-0.48-2.292-1.107-4.535-1.781-6.716
								c0.917,0.141,1.795,0.138,2.477,0.008c1.221-0.657,2.535-2.1,2.778-3.793c0.325,0.863,0.644,1.745,0.946,2.655
								C427.813,327.586,428.257,329.101,428.642,330.6z"/>
							<path style="fill:#908F93;" d="M423.57,327.168c-0.682,0.13-1.56,0.133-2.477-0.008c-0.876-2.833-1.844-5.542-2.772-7.986
								c-0.209-0.558-0.459-1.103-0.7-1.649c0.225-0.254,0.463-0.496,0.686-0.756c-0.224,0.26-0.462,0.502-0.686,0.756
								c-0.496-1.121-1.018-2.232-1.545-3.313c-0.45-0.917-0.906-1.843-1.321-2.768c-0.072-0.15-0.143-0.3-0.208-0.475
								c-0.197-0.453-0.401-0.948-0.676-1.379l4.353-1.314l1.021,0.696c2.833,4.852,5.174,9.277,7.104,14.403
								C426.105,325.068,424.791,326.511,423.57,327.168z"/>
							<path style="fill:#908F93;" d="M424.33,345.367c-0.055-0.545-0.044-1.094-0.032-1.683c0.013-0.643,0.022-1.297-0.051-1.962
								c-0.225-1.96-0.596-3.941-0.978-5.884c1.368-0.517,2.737-1.021,4.103-1.557c-1.366,0.536-2.735,1.04-4.103,1.557
								c-0.079-0.398-0.157-0.797-0.236-1.192l-0.059-0.323c-0.033-0.148-0.069-0.298-0.1-0.447
								c2.457-0.394,4.346-1.646,5.767-3.276c1.07,4.171,1.637,8.204,1.787,12.599l-0.201,0.658L424.33,345.367z"/>
							<path style="fill:#32353A;" d="M295.303,345.16l115.778-34.739c1.546,3.185,2.972,6.36,4.247,9.541
								c-28.565,29.626-76.049,32.016-115.731,43.273C297.929,357.266,296.434,351.205,295.303,345.16z"/>
							<path style="fill:#4B4F56;" d="M301.355,369.295c-0.6-2.008-1.19-4.026-1.759-6.059
								c39.683-11.258,87.166-13.648,115.731-43.273c2.23,5.557,4.017,11.141,5.298,16.856
								C381.646,351.266,341.276,359.233,301.355,369.295z"/>
							<path style="fill:#32353A;" d="M422.208,345.906l-118.71,30.346c-0.728-2.293-1.443-4.617-2.142-6.957
								c39.921-10.061,80.291-18.029,119.271-32.477C421.295,339.806,421.83,342.827,422.208,345.906z"/>
							<path style="fill:#1E2123;" d="M422.208,345.906c-0.378-3.079-0.913-6.101-1.582-9.088c-1.281-5.716-3.067-11.3-5.298-16.856
								c-1.275-3.181-2.701-6.356-4.247-9.541l1.592-0.478c-0.01,0.031-0.004,0.058-0.004,0.094l0.256-0.004
								c0.254,0.371,0.457,0.854,0.644,1.302c0.077,0.177,0.148,0.342,0.213,0.5c0.422,0.939,0.877,1.864,1.344,2.795
								c0.594,1.222,1.183,2.479,1.723,3.745c0.159,0.377,0.336,0.752,0.481,1.13c1.675,4.411,3.533,9.647,4.603,15.002l0.065,0.322
								c0.091,0.46,0.184,0.925,0.274,1.39c0.366,1.858,0.712,3.752,0.929,5.61c0.069,0.601,0.056,1.208,0.047,1.844
								c-0.009,0.634-0.017,1.306,0.055,1.957L422.208,345.906z"/>
							<path style="fill:#1E2123;" d="M298.476,370.016c0.958-0.244,1.92-0.48,2.88-0.721c0.699,2.34,1.414,4.664,2.142,6.957
								l-5.034,1.287c-0.002-0.086-0.021-0.169-0.038-0.249c-0.599-3.184-1.542-6.384-2.453-9.464
								c-0.529-1.802-1.078-3.648-1.551-5.461c-0.487-1.916-0.934-3.904-1.363-5.829c-0.735-3.296-1.479-6.664-2.547-9.939
								l4.791-1.437c1.131,6.045,2.626,12.105,4.294,18.075c-0.57,0.161-1.145,0.317-1.712,0.483
								c0.566-0.166,1.142-0.322,1.712-0.483c0.568,2.033,1.159,4.052,1.759,6.059C300.395,369.535,299.434,369.772,298.476,370.016
								z"/>
							<path style="fill:#908F93;" d="M413.713,309.633l-0.878,0.258c0.032,0.045,0.064,0.088,0.09,0.142"/>
							<path style="fill:#908F93;" d="M413.713,309.633l0.158-0.043c-0.052-0.093-0.104-0.159-0.15-0.235
								C413.711,309.44,413.708,309.533,413.713,309.633z"/>
							<path style="fill:#908F93;" d="M412.669,310.036l0.256-0.004c-0.025-0.054-0.058-0.097-0.09-0.142l-0.162,0.052
								C412.663,309.974,412.669,310,412.669,310.036z"/>
							<path style="fill:#908F93;" d="M412.661,309.689c-0.003,0.08,0.001,0.164,0.012,0.254"/>
							<path style="fill:#908F93;" d="M412.661,309.689c-0.005-0.027-0.001-0.049,0.005-0.057l-0.033,0.027
								C412.642,309.664,412.653,309.682,412.661,309.689z"/>
							<path style="fill:#908F93;" d="M264.638,359.032l16.655-4.632c0.436,3.008,0.954,5.926,1.575,8.777
								c-4.634,1.293-9.134,3.096-13.723,4.95C267.927,365.044,266.4,362.017,264.638,359.032z"/>
							<path style="fill:#908F93;" d="M286.274,374.965l-14.283,4.006c-0.149-1.24-0.373-2.47-0.639-3.69
								c4.557-1.435,8.984-3.079,13.446-4.672C285.246,372.073,285.741,373.524,286.274,374.965z"/>
							<path style="fill:#6A696D;" d="M269.802,379.585c-0.085-1.121-0.276-2.349-0.548-3.646c-0.465-2.21-1.165-4.622-2.001-7.045
								c-1.135-3.304-2.511-6.632-3.86-9.512l1.245-0.35c1.763,2.984,3.289,6.012,4.508,9.096c0.928,2.35,1.682,4.728,2.207,7.152
								c0.266,1.221,0.489,2.45,0.639,3.69L269.802,379.585z"/>
							<path style="fill:#A6A5AA;" d="M284.799,370.608c-4.462,1.593-8.89,3.237-13.446,4.672c-0.525-2.425-1.279-4.803-2.207-7.152
								c4.589-1.854,9.089-3.657,13.723-4.95C283.42,365.7,284.051,368.174,284.799,370.608z"/>
							<path style="fill:#6A696D;" d="M286.274,374.965c-0.533-1.44-1.028-2.892-1.476-4.356c-0.748-2.435-1.379-4.908-1.931-7.431
								c-0.621-2.852-1.139-5.77-1.575-8.777l1.056-0.294l2.91,8.454l2.42,7.027l1.564,4.546L286.274,374.965z"/>
						</g>
					</g>
				</g>
				<path style="fill:#908F93;" d="M284.512,363.648c-4.721-14.802-1.688-17.14,5.863-18.449l4.556,16.794
					C291.966,364.292,288.362,365.838,284.512,363.648z"/>
				<path style="fill:#A6A5AA;" d="M286.546,369.653c-0.551-1.522-1.142-3.257-1.789-5.234c-0.086-0.264-0.162-0.515-0.245-0.771
					c3.851,2.189,7.454,0.644,10.419-1.655l1.608,5.928C293.209,369.34,289.881,371.471,286.546,369.653z"/>
				<path style="fill:#908F93;" d="M286.546,369.653c3.335,1.817,6.663-0.313,9.993-1.732l2.87,10.581
					C292.399,380.346,290.383,380.222,286.546,369.653z"/>
				<path style="opacity:0.2;fill:#211915;" d="M421.377,310.603c-0.409-0.727-0.833-1.463-1.269-2.207l-0.155-0.155l-1.544-1.049
					l-0.25,0.068l-4.398,1.322c0.214-2.014,1.194-2.93,3.616-3.693c1.217-0.38,2.411-0.783,3.599-1.191
					c1.896-0.644,3.852-1.32,5.808-1.854c6.694-1.832,12.28-2.104,17.9,2.529c1.805,1.495,3.789,3.283,5.484,5.401
					C441.398,305.996,430.571,306.462,421.377,310.603z"/>
				<path style="opacity:0.1;fill:#211915;" d="M443.395,342.779c-1.719,0.729-3.529,1.236-5.434,1.767
					c-1.54,0.427-3.129,0.868-4.665,1.448c-0.353,0.126-0.722,0.287-1.124,0.463c-1.216,0.521-2.592,1.11-3.686,0.996
					c-0.813-0.083-1.185-0.467-1.702-1.002c-0.166-0.177-0.35-0.36-0.557-0.55l4.84-1.235l0.409-1.416
					c-0.021-0.682-0.056-1.348-0.099-2.014c7.312-2.775,16.105-4.958,22.456-9.155C452.64,336.799,449.225,340.315,443.395,342.779z
					"/>
				<path style="opacity:0.2;fill:#211915;" d="M416.076,314.212c-0.45-0.917-0.906-1.843-1.321-2.768
					c-0.072-0.15-0.143-0.3-0.208-0.475c-0.197-0.453-0.401-0.948-0.676-1.379l4.353-1.314l1.021,0.696
					c0.989,1.692,1.909,3.331,2.781,4.965c-1.8,0.621-3.435,1.441-4.761,2.761C416.879,315.856,416.473,315.029,416.076,314.212z"/>
				<path style="opacity:0.1;fill:#211915;" d="M430.227,343.856l-5.897,1.511c-0.055-0.545-0.044-1.094-0.032-1.683
					c0.013-0.643,0.022-1.297-0.051-1.962c-0.235-2.047-0.631-4.122-1.03-6.146c2.009,0.816,4.435,0.048,6.255-1.231
					c0.54,2.887,0.853,5.782,0.957,8.853L430.227,343.856z"/>
				<path style="opacity:0.3;fill:#211915;" d="M291.213,346.424l121.167-36.22c-0.009,0.031,1.303,3.481,1.768,4.413
					c0.695,1.427,1.739,2.79,2.339,4.277c-41.726,11.346-81.433,23.751-123.321,34.83
					C292.606,351.283,291.999,348.828,291.213,346.424z"/>
				<path style="opacity:0.1;fill:#211915;" d="M423.948,343.494c-0.009,0.637-0.017,1.309,0.054,1.958l-124.836,31.911
					c-0.004-0.084-0.023-0.168-0.041-0.248c-0.108-0.596-0.243-1.194-0.378-1.788c40.892-14.744,83.008-23.777,125.203-32.428
					C423.951,343.097,423.951,343.292,423.948,343.494z"/>
				<path style="opacity:0.1;fill:#211915;" d="M274.009,378.406l-4.207,1.179c-0.053-0.706-0.152-1.461-0.285-2.244
					c-0.76-4.542-2.734-10.202-4.853-15.123c-0.423-0.979-0.847-1.931-1.272-2.836l3.877-1.08l15.079-4.195l0.883,2.559
					c-5.006,1.618-10.002,3.395-15.026,4.707c1.652,5.054,3.703,9.935,5.221,14.981c5.022-1.276,10.11-2.596,15.251-3.866
					l0.565,1.646L274.009,378.406z"/>
				<path style="opacity:0.1;fill:#211915;" d="M295.199,379.364c-1.865,0.164-3.263-0.23-4.544-1.582
					c-1.863-1.966-3.476-5.968-5.898-13.363c-2.32-7.092-2.947-11.436-2.211-14.19c0.445-1.663,1.386-2.749,2.751-3.509
					c1.319-0.732,3.032-1.164,5.078-1.521l0.735,2.714c-2.099,0.027-4.143,0.154-5.987,0.832
					c-0.544,9.567,3.029,19.363,8.317,27.899c1.637-0.817,3.18-1.832,4.678-2.902l1.291,4.76
					C297.756,378.938,296.387,379.259,295.199,379.364z"/>
			</g>
		</g>
		
			<linearGradient id="SVGID_00000067236403090047658810000007182814583544130750_" gradientUnits="userSpaceOnUse" x1="256.3315" y1="324.5088" x2="256.3315" y2="494.3174">
			<stop  offset="0.0439" style="stop-color:#19191a;stop-opacity:0"/>
			<stop  offset="0.1426" style="stop-color:#19191a;stop-opacity:0.1426"/>
			<stop  offset="0.7366" style="stop-color:#19191a"/>
		</linearGradient>
		
			<rect x="12.663" y="324.509" style="fill:url(#SVGID_00000067236403090047658810000007182814583544130750_);" width="487.337" height="169.809"/>
	</g>
</g>

</svg>
