<svg xmlns="http://www.w3.org/2000/svg" xml:space="preserve" viewBox="0 0 1000 1000">
  <g>
    <path fill="none" stroke="#280b0b" stroke-width="2" d="M617.1 821.38c45.02 19.53 97.34 52.99 136.37 66.9 39.02 13.9 38.7-6.88 35.3-35.7-8.65-44.37-15.07-89.13-21.59-133.86-6.43-44.13-19.16-116.61-17.27-132.69 1.87-15.83 65.5-72.27 99.03-107.68 30.06-31.75 62.3-61.43 91.56-93.94 22.48-22.78 20.12-40.5-12.8-47.96-47.55-9.24-95.72-14.94-143.52-22.79-44.13-7.24-101.2-11.63-132.25-22.43-5.13-1.78-42.19-87.16-64.5-130.13-21.5-41.37-43.4-82.83-66.8-122.86-15.94-26.68-30.35-13.49-42.82 6.92-11.63 19.03-44.73 78.4-66.2 118.1-22.88 42.33-29.7 53.17-66.69 128.02-1.86 3.75-88.5 15.13-132.81 22.38-47.8 7.83-95.97 13.4-143.53 22.8-32.22 5.92-33.5 25.48-14.68 46.07 53.3 58.34 66.1 65.13 97.67 99.1 32.31 34.77 89.76 82.01 93.85 107.11 3.09 18.98-10.12 86.76-16.32 129.98-6.4 44.74-15.6 89.44-21.58 133.86-5.45 33.25 1.15 47.82 35.3 35.7 34.15-12.12 90.76-44.92 136.37-66.9 39.52-19.04 99.23-57.03 118.95-56.3 18.94.71 82 36.82 118.96 56.3z"/>
    <path fill="none" stroke="#280b0b" stroke-width="2" d="M617.1 821.38c49.35-11.29 97.34 52.99 136.37 66.9 39.02 13.9 38.7-6.88 35.3-35.7-8.65-44.37-43.68-94.43-21.59-133.86 34.38-61.34 193.29-63.98 195.18-80.05 1.87-15.84-118.55-95.06-113.42-160.32 3.42-43.6 62.3-61.43 91.56-93.94 22.48-22.78 20.12-40.5-12.8-47.96-47.55-9.24-113.16 14.96-143.52-22.79-40.35-50.15 42.34-181.97 11.3-192.77-5.14-1.78-144.18 70.36-208.05 40.21-42.16-19.9-43.4-82.83-66.8-122.86-15.94-26.68-30.35-13.49-42.82 6.92-11.63 19.03-24.3 101.31-66.2 118.1-58.75 23.54-144.54-130.56-181.53-55.72-1.85 3.75 29.05 155.67-17.97 206.12-33.03 35.44-95.97 13.4-143.53 22.8-32.22 5.92-33.5 25.48-14.68 46.07 53.3 58.34 90.84 53.23 97.67 99.1C162.48 555 44.19 653.6 48.28 678.7c3.1 18.98 146.14-11.04 180.82 40.03 25.4 37.4-15.6 89.44-21.58 133.86-5.45 33.25 1.15 47.82 35.3 35.7 34.15-12.12 87.29-79.33 136.37-66.9 63.08 15.98 93.49 158.3 113.21 159.03 18.94.7 59.03-144 124.7-159.03z"/>
    <path fill="none" stroke="#280b0b" stroke-width="2" d="M617.1 821.38c49.35-11.29 97.34 52.99 136.37 66.9 39.02 13.9 38.7-6.88 35.3-35.7-8.65-44.37-43.68-94.43-21.59-133.86 34.38-61.34 193.29-63.98 195.18-80.05 1.87-15.84-118.55-95.06-113.42-160.32 3.42-43.6 62.3-61.43 91.56-93.94 22.48-22.78 20.12-40.5-12.8-47.96-47.55-9.24-113.34 15.1-143.52-22.79-40.54-50.86 35.65-170.66 13.2-194.68-13.74-14.7-69.38-50.09-117.13-69.84-47.75-19.76-108.64-32.52-149.1-34.83-24.6-1.4-42.09-.65-64.82.23-13.18.51-58.94 7.02-90.6 15.22-31.66 8.2-115.59 35.17-147.56 75.39-5.76 7.24 31.2 157.28-16.06 208.51-32.85 35.61-95.97 13.4-143.53 22.8-32.22 5.92-33.5 25.48-14.68 46.07 53.3 58.34 90.84 53.23 97.67 99.1C162.48 555 44.19 653.6 48.28 678.7c3.1 18.98 146.14-11.04 180.82 40.03 25.4 37.4-15.6 89.44-21.58 133.86-5.45 33.25 1.15 47.82 35.3 35.7 34.15-12.12 87.29-79.33 136.37-66.9 63.08 15.98 93.49 158.3 113.21 159.03 18.94.7 59.03-144 124.7-159.03z"/>
    <path fill="none" stroke="#280b0b" stroke-width="2" d="M617.1 821.38c49.35-11.29 97.34 52.99 136.37 66.9 39.02 13.9 38.7-6.88 35.3-35.7-8.65-44.37-43.68-94.43-21.59-133.86 34.38-61.34 193.29-63.98 195.18-80.05 1.87-15.84-118.55-95.06-113.42-160.32 3.42-43.6 62.6-61.17 91.56-93.94 17.74-20.07 25.64-29.84 12.24-60.82-11.01-25.48-24.93-55.55-45.4-87.07-20.48-31.52-57.74-75.93-98.45-110.77-15.3-13.09-80.89-56.86-128.64-76.61-47.75-19.76-108.64-32.52-149.1-34.83-24.6-1.4-42.09-.65-64.82.23-13.18.51-58.94 7.02-90.6 15.22-31.66 8.2-110.28 38.57-150.94 69.97-17.26 13.34-78.18 55.48-112.83 107.02C77.32 258.29 59.8 287.5 47.6 323.59c-9.45 27.96-17.25 47.15-3.85 58.94 59.32 52.22 99.45 51.01 107.82 99.1C164.29 554.7 44.19 653.6 48.28 678.7c3.1 18.98 146.14-11.04 180.82 40.03 25.4 37.4-15.6 89.44-21.58 133.86-5.45 33.25 1.15 47.82 35.3 35.7 34.15-12.12 87.29-79.33 136.37-66.9 63.08 15.98 93.49 158.3 113.21 159.03 18.94.7 59.03-144 124.7-159.03z"/>
    <path fill="none" stroke="#280b0b" stroke-width="2" d="M617.1 821.38c49.35-11.29 97.34 52.99 136.37 66.9 39.02 13.9 38.7-6.88 35.3-35.7-8.65-44.37-43.68-94.43-21.59-133.86 34.38-61.34 188.3-65.4 195.18-80.05 12.4-26.37 20.9-116.79 22.92-147.54 2.03-30.75-10.97-91.11-14.55-107.62-5.67-26.17-9.66-34.69-17.99-59.92-8.7-26.36-24.93-55.55-45.4-87.07-20.48-31.52-57.74-75.93-98.45-110.77-15.3-13.09-80.89-56.86-128.64-76.61-47.75-19.76-108.64-32.52-149.1-34.83-24.6-1.4-42.09-.65-64.82.23-13.18.51-58.94 7.02-90.6 15.22-31.66 8.2-110.28 38.57-150.94 69.97-17.26 13.34-78.18 55.48-112.83 107.02C77.32 258.29 59.8 287.5 47.6 323.59c-9.45 27.96-13.17 33.47-17.38 50.82-4.3 17.7-18.44 78.45-16.02 125.5 2.43 47.04 4.28 104.97 34.08 178.78 7.2 17.83 146.14-11.04 180.82 40.03 25.4 37.4-15.6 89.44-21.58 133.86-5.45 33.25 1.15 47.82 35.3 35.7 34.15-12.12 87.29-79.33 136.37-66.9 63.08 15.98 93.49 158.3 113.21 159.03 18.94.7 59.03-144 124.7-159.03z"/>
    <path fill="none" stroke="#280b0b" stroke-width="2" d="M617.1 821.38c49.35-11.29 111.55 61.79 136.37 66.9 24.81 5.1 47.4-9.5 54.92-14.04 20.84-12.6 71.3-70.62 88.04-95.3 16.73-24.66 57.7-103.97 67.96-139.6 8.07-27.99 18.87-117.46 20.9-148.21 2.02-30.75-10.98-91.11-14.56-107.62-5.67-26.17-9.66-34.69-17.99-59.92-8.7-26.36-24.93-55.55-45.4-87.07-20.48-31.52-57.74-75.93-98.45-110.77-15.3-13.09-80.89-56.86-128.64-76.61-47.75-19.76-108.64-32.52-149.1-34.83-24.6-1.4-42.09-.65-64.82.23-13.18.51-58.94 7.02-90.6 15.22-31.66 8.2-110.28 38.57-150.94 69.97-17.26 13.34-78.18 55.48-112.83 107.02C77.32 258.29 59.8 287.5 47.6 323.59c-9.45 27.96-13.17 33.47-17.38 50.82-4.3 17.7-17.77 81.83-15.34 128.88 2.43 47.04 12.4 122.57 30.7 164.58 7.67 17.63 41.84 96.62 80.67 141.53 38.83 44.9 31.96 37.5 66.38 66.19 15.53 12.94 20.77 18.72 50.19 12.69 29.42-6.03 87.29-79.33 136.37-66.9 63.08 15.98 93.49 158.3 113.21 159.03 18.94.7 59.03-144 124.7-159.03z"/>
    <path fill="none" stroke="#280b0b" stroke-width="2" d="M656.34 958.07c50.07-18.57 89.9-41.07 108.63-52.88 18.73-11.8 35.9-26.41 43.42-30.95 20.84-12.6 71.3-70.62 88.04-95.3 16.73-24.66 57.7-103.97 67.96-139.6 8.07-27.99 18.87-117.46 20.9-148.21 2.02-30.75-10.98-91.11-14.56-107.62-5.67-26.17-9.66-34.69-17.99-59.92-8.7-26.36-24.93-55.55-45.4-87.07-20.48-31.52-57.74-75.93-98.45-110.77-15.3-13.09-80.89-56.86-128.64-76.61-47.75-19.76-108.64-32.52-149.1-34.83-24.6-1.4-42.09-.65-64.82.23-13.18.51-58.94 7.02-90.6 15.22-31.66 8.2-110.28 38.57-150.94 69.97-17.26 13.34-78.18 55.48-112.83 107.02C77.32 258.29 59.8 287.5 47.6 323.59c-9.45 27.96-13.17 33.47-17.38 50.82-4.3 17.7-17.77 81.83-15.34 128.88 2.43 47.04 12.4 122.57 30.7 164.58 7.67 17.63 41.84 96.62 80.67 141.53 38.83 44.9 31.96 37.5 66.38 66.19 15.53 12.94 28.9 22.1 40.04 30.28 11.15 8.18 84.48 48.02 141.1 62.35 56.63 14.33 97.56 15.51 117.28 16.25 18.93.7 115.23-7.83 165.3-26.4z"/>
  </g>
</svg>
