
  <svg
    xmlns="http://www.w3.org/2000/svg"
    xmlnsXlink="http://www.w3.org/1999/xlink"
    xmlSpace="preserve"
    viewBox="0 0 1600 900"
  >
    <defs>
      <radialGradient
        xlinkHref="#a"
        id="d"
        cx="652.26"
        cy="-445.69"
        r="111.24"
        fx="652.26"
        fy="-445.69"
        gradientTransform="translate(773.28 414.1)scale(.17349)"
        gradientUnits="userSpaceOnUse"
      ></radialGradient>
      <radialGradient
        xlinkHref="#b"
        id="c"
        cx="651.33"
        cy="-202.69"
        r="111.24"
        fx="651.33"
        fy="-202.69"
        gradientTransform="translate(765.26 407.9)scale(.18586)"
        gradientUnits="userSpaceOnUse"
      ></radialGradient>
      <radialGradient
        xlinkHref="#a"
        id="f"
        cx="652.26"
        cy="-445.69"
        r="111.24"
        fx="652.26"
        fy="-445.69"
        gradientTransform="translate(645.72 417.5)scale(.17349)"
        gradientUnits="userSpaceOnUse"
      ></radialGradient>
      <radialGradient
        xlinkHref="#b"
        id="e"
        cx="651.33"
        cy="-202.69"
        r="111.24"
        fx="651.33"
        fy="-202.69"
        gradientTransform="translate(637.7 411.29)scale(.18586)"
        gradientUnits="userSpaceOnUse"
      ></radialGradient>
      <linearGradient id="a">
        <stop offset="0" stopColor="#cf5f02"></stop>
        <stop offset="1" stopColor="#454545" stopOpacity="0"></stop>
      </linearGradient>
      <linearGradient id="b">
        <stop offset="0" stopColor="#ff8000"></stop>
        <stop offset="1" stopColor="#b35700" stopOpacity="0"></stop>
      </linearGradient>
    </defs>
    <path
      fill="#fff"
      d="m717.48 149.92-24.74 62.8 256.5-2.1-17.34-62.39z"
    ></path>
    <path
      fill="#a68854"
      stroke="#83422f"
      strokeWidth="4"
      d="M716.85 150.98s-36.25-7.61-48.64-11c-13.95-3.8-28.33-9.09-49.48-20.93-9.82-5.5-18.5-13.19-26-21.6-8.6-9.67-15.03-21.14-21.15-32.53-3.82-7.1-8.51-17.06-16.71-18.82-5.74-1.24-13.25 2.04-16.07 7.19-7.97 14.54-7.92 32.1-7.4 48.42.25 8.1 2.6 16.05 5.17 23.72 3.13 9.34 6.86 18.67 12.38 26.82a165.1 165.1 0 0 0 36.37 38.49c13.34 10.17 28.89 17.3 44.4 23.68 15.52 6.37 42.3 13.53 48.22 14.38s23.47-29.6 38.9-77.82z"
    ></path>
    <path
      fill="#d0b990"
      d="M546.78 48.58c-1.82.9-2.73 3.09-3.56 4.94-1 2.22-1.3 4.71-1.6 7.13-.32 2.6-.33 5.25-.18 7.86.64 10.98 2 21.98 4.55 32.67 1.76 7.4 4.16 14.7 7.4 21.57 4.6 9.76 9.92 19.38 16.92 27.6 7.74 9.1 16.64 17.72 27.17 23.36 22.2 11.9 48.55 27.41 72.74 20.41 5.5-1.6 10.27-6.49 13.2-11.55.77-1.33.73-3 .92-4.52.31-2.6.09-5.23.34-7.82.3-3.1.85-6.15 1.4-9.2.84-4.65.52-6.33 2.9-13.85-6.07-.55-27.4-6.87-40.75-11.42a107 107 0 0 1-11.53-4.66c-12.6-6.08-24.81-13.39-35.52-22.41-7.33-6.17-13.63-13.59-19.24-21.36-6.89-9.53-10.23-21.38-17.45-30.66-2.28-2.93-4.62-6.26-8.03-7.72-2.97-1.26-6.78-1.78-9.68-.37"
    ></path>
    <path
      fill="#fcfcfc"
      stroke="#fcfcfc"
      strokeWidth="0.5"
      d="M557.13 60.26c.47 4.63 2.1 9.1 3.77 13.45 2.2 5.67 6.38 12.92 8.19 16.3 2.6 4.85 6.82 10.28 9.34 13.6 4.68 6.12 4.75 5.67 7.26 8.38a188 188 0 0 0 6.97 7.1 171 171 0 0 0 7.97 7.45 178 178 0 0 0 19.6 14.16c13.54 8.25 26.01 15.25 43.8 18.54 17.8 3.3 7.08-9.07 3.75-10.31-8.45-3.15-10.32-3.9-17.95-6.13-3.63-1.07-12.23-3.83-17.98-6.6-6.24-2.99-12.1-6.76-17.75-10.75-5.36-3.77-10.4-8-15.25-12.4a131 131 0 0 1-12.41-12.57c-5.15-6.13-9.66-12.8-13.91-19.59-3.02-4.82-8.22-14.95-8.22-14.95s-2.85-5.23-4.34-6.88c-.4-.44-1.85-1.64-2.68-1.14-.66.41-.24 1.56-.16 2.34z"
    ></path>
    <path
      fill="#a68854"
      stroke="#83422f"
      strokeWidth="4"
      d="M930.02 149.92s36.25-7.61 48.64-11c13.96-3.8 28.34-9.08 49.48-20.93 9.82-5.5 18.5-13.18 26-21.6 8.6-9.66 15.03-21.14 21.16-32.53 3.81-7.1 8.5-17.05 16.7-18.82 5.74-1.23 13.25 2.04 16.07 7.2 7.98 14.53 7.92 32.1 7.4 48.41-.25 8.1-2.6 16.05-5.17 23.73-3.13 9.33-6.86 18.66-12.38 26.81a165.1 165.1 0 0 1-36.37 38.49c-13.33 10.18-28.89 17.3-44.4 23.68-15.52 6.38-42.3 13.54-48.22 14.38-5.92.85-23.47-29.6-38.9-77.82z"
    ></path>
    <path
      fill="#d0b990"
      d="M1097.7 47.53c1.82.88 2.73 3.08 3.56 4.93 1 2.22 1.3 4.71 1.6 7.13.31 2.6.33 5.25.18 7.87-.64 10.97-2 21.97-4.55 32.67a111 111 0 0 1-7.4 21.57c-4.6 9.76-9.92 19.37-16.92 27.59-7.74 9.1-16.64 17.73-27.17 23.37-22.2 11.89-48.55 27.4-72.74 20.4-5.5-1.59-10.27-6.49-13.2-11.54-.77-1.33-.73-3-.92-4.53-.31-2.59-.09-5.22-.34-7.82-.3-3.09-.85-6.15-1.4-9.2-.84-4.64-.52-6.32-2.9-13.85 6.07-.55 27.4-6.87 40.75-11.42 3.92-1.34 8.05-2.98 11.52-4.65 12.62-6.09 24.82-13.4 35.53-22.42 7.33-6.17 13.63-13.59 19.24-21.35 6.89-9.54 10.23-21.39 17.45-30.67 2.28-2.93 4.62-6.26 8.03-7.71 2.97-1.27 6.78-1.79 9.68-.37"
    ></path>
    <path
      fill="#fcfcfc"
      stroke="#fcfcfc"
      strokeWidth="0.5"
      d="M1087.35 59.2c-.47 4.63-2.1 9.11-3.78 13.45-2.2 5.67-6.37 12.92-8.18 16.3-2.6 4.85-6.82 10.28-9.34 13.6-4.68 6.12-4.75 5.67-7.26 8.39a186 186 0 0 1-6.97 7.08c-2.6 2.54-5.73 5.58-7.97 7.46a178 178 0 0 1-19.6 14.17c-13.54 8.24-26.02 15.25-43.8 18.54-17.8 3.29-7.08-9.08-3.75-10.32 8.45-3.15 10.32-3.89 17.95-6.13 3.63-1.07 12.23-3.82 17.98-6.59 6.24-3 12.1-6.77 17.75-10.76 5.36-3.77 10.4-8 15.25-12.4a130 130 0 0 0 12.41-12.57c5.15-6.13 9.66-12.8 13.91-19.58 3.02-4.82 8.22-14.96 8.22-14.96s2.84-5.23 4.34-6.88c.4-.43 1.85-1.64 2.68-1.13.66.4.24 1.55.16 2.33z"
    ></path>
    <g strokeWidth="4">
      <path
        fill="#faf9f5"
        stroke="#83422f"
        strokeWidth="2"
        d="M819.83 208.71c-12.08-.18-24.14-1.35-36.17-2.44-13.92-1.26-27.69-4.19-41.65-4.75-10.57-.42-21.52-1.77-31.72 1.06-15.38 4.26-29.53 13.12-41.87 23.26-5.56 4.57-9.74 10.65-13.95 16.5-5.4 7.49-8.92 16.23-14.38 23.68-3.99 5.44-8.14 10.9-13.32 15.22-5.3 4.41-11.16 8.62-17.77 10.57-6.79 2.01-10.38 3.32-21.23.8-4.96-1.15-9.71-8.9-13.98-6.13-26.42 17.13-28.99 80.76-.63 94.48 6.45 3.12 20.37-22.7 16.78-13.48-3.53 9.04-4.66 12.2-6.52 18.65-9.68 33.44-18.95 63.82-27.54 95.98-5.64 21.1-12.66 41.96-15.76 63.58-2.06 14.39-2.92 29.07-1.82 43.56 1.26 16.48 4 33.1 9.56 48.66 9.47 26.53 24.08 51.2 39.95 74.48 11.3 16.59 25.44 31.07 38.96 45.9 12.35 13.56 24.69 27.24 38.48 39.34 13.25 11.61 27.16 22.68 42.3 31.71a239.2 239.2 0 0 0 44.82 20.73c13.1 4.5 26.76 7.34 40.45 9.41 16.96 2.57 34.18 3.33 51.33 3.7 19.17.4 38.45.46 57.51-1.7 16.57-1.87 33.16-4.72 49.06-9.72 14.35-4.5 28.72-9.9 41.32-18.11 14.4-9.39 26.5-20.27 38.09-32.17 15.14-15.54 28.5-32.85 40.7-50.8a436 436 0 0 0 34.26-60.05c10.45-22.31 19.93-45.33 25.87-69.24 3.64-14.66 6.36-29.85 5.85-44.95-.59-17.24-4.72-34.38-10.15-50.75-6.94-20.89-18.27-40.06-28.34-59.63a866 866 0 0 0-25.97-46.82c-9-15.12-27.12-54.64-19.18-45.55 7.94 9.08 6.94 13.62 12.16 11.59 38.08-14.77 42.1-99.08 8.46-122.22-3.58-2.47-8.32 2.93-11.84 5.5-6.2 4.52-9.05 12.98-15.65 16.91-5.87 3.5-13.12 6.15-19.88 5.08-6.75-1.08-13.02-5.7-17.33-11-6.57-8.06-5.8-20.19-11-29.18-5.97-10.31-14.06-19.42-22.74-27.58a88.8 88.8 0 0 0-18.24-13.23c-5.87-3.2-12.32-5.25-18.7-7.25a95 95 0 0 0-14.65-3.6c-11.3-1.66-22.87-2.94-34.24-1.79-7.89.8-15.34 4.05-23.03 5.98-6.51 1.65-12.93 3.86-19.58 4.79-8.95 1.25-18.05 1.15-27.08 1.02z"
      ></path>
      <path
        fill="#90421d"
        d="M566.11 447.52s4.25-17.46 10.66-37.14c3.87-11.9 7.08-25.35 8.87-26.79 0 0 3.66-5.17 8.8-11.28 5.73-6.8 13.54-14.35 21-17.3 0 0 7.35-1.06 11.16-3.52 0 0 6.04-6.09 7.23-14.76 0 0 .3-21.46 1.34-40.1.65-11.74.85-16.56 3.02-24.5.82-3.03 2.33-5.84 3.76-8.63 2.3-4.5 5.01-8.79 7.68-13.08 2.61-4.2 5.34-8.32 8.14-12.38 2.66-3.84 4.88-8.08 8.24-11.32 6.85-6.62 15.3-11.48 23.71-15.96a98.5 98.5 0 0 1 18.02-7.35 46.8 46.8 0 0 1 8.82-1.75c4.46-.44 8.97-.14 13.46-.02 7.66.2 15.32.47 22.94 1.25 9.23.94 23.62 3.53 27.5 4.14 0 0 7.86 12.04 11.46 27.69 1.05.63 3.6 22.41 4.01 24.95l1.56 19.98.52 17.16-.37 4.63-4.86-8.6s-17.27-7.77-22.73-8.6c0 0-12.4-3.13-21.83-.07 0 0-10.77-.82-21.04 7.1 0 0-12.53 5.84-17.54 14.8 0 0-11.8 16.23-15.02 28.34 0 0-6.2 31.93 12.03 61.83l11.67 10.47 2.33 3.2-19.34 18.19-8.57-4.33s-4.33-4.45-16.07-9.73c0 0-2.11-2.96-11.63-2.12-2.54-.2-15.22 8.46-17.34 11.42 0 0-17.76 12.06-23.68 15.02 0 0-16.29 7.19-22.63 7.4 0 0-14.17 4.01-16.7 2.75 0 0-9.67 2.21-18.58-1z"
      ></path>
      <path
        fill="#b1673f"
        d="M677.46 414.08c-1.14.75-2.42-1.34-3.75-1.66-.98-.24-2-.16-3-.17-2.34-.03-4.74-.4-6.99.2-2.17.56-4.07 1.94-5.97 3.14-2.22 1.4-4.24 3.1-6.31 4.7-1.3 1.01-2.5 2.11-3.8 3.1a127 127 0 0 1-5.36 3.83c-4.6 3.15-9.1 6.5-14 9.15a91.6 91.6 0 0 1-12.6 5.52 137 137 0 0 1-17.24 4.93c-4.15.9-10.32 2.17-12.6 1.9 0 0 2.76-10.65 3.7-13.12 0 0 12.94-40.57 19.77-60.74 2.26-6.66 4.41-19 7-19.9 2.55-.9 6.8-1.5 9.69-3.34 1.11-.7 1.94-1.81 2.76-2.85.8-1 1.44-2.12 2.07-3.24.3-.56.56-1.15.83-1.73.3-.67.65-1.33.84-2.04 1.09-4.14.91-8.51 1.55-12.74.57-3.72.68-7.58 2.02-11.09 1.32-3.47 3.57-6.56 5.82-9.52a71 71 0 0 1 10.36-11.1 83.4 83.4 0 0 1 14.59-9.83 55 55 0 0 1 8.35-3.49 63 63 0 0 1 10.15-2.75c.94-.15 2.32-.47 2.85-.17.1.78-1.7 3.13-2.5 4.7-1.8 3.45-3.74 6.83-5.24 10.4a150 150 0 0 0-7.27 21.28 131.7 131.7 0 0 0-3.91 23.32c-.54 7.91-.18 15.9.74 23.79.8 6.86 2.83 13.51 4.12 20.3 1.13 5.9 2.6 11.77 3.18 17.76.36 3.8 3.34 9.35.15 11.46"
      ></path>
      <path
        fill="#90421d"
        d="M830.82 322.02s-.26-7.57.07-16.14c.23-6.02.97-12.58 1.36-17.15.6-6.9 1.46-13.8 2.7-20.62a267 267 0 0 1 5.97-25.66c2.9-10.16 5.94-20.34 10.2-30 .77-1.75 1.32-3.79 2.77-5.04 2.28-1.95 5.15-2.1 8.45-3.11 4.53-1.38 10.4-3.85 14.51-4.65 3.85-.74 8.3-1.64 11.78-2.13 3.76-.53 7.58-.62 11.37-.73 6.53-.2 14 .84 20.92 1.87a128 128 0 0 1 16.87 3.54c6.35 1.84 12.76 3.82 18.57 6.96 6.6 3.58 12.5 8.42 18.17 13.34 4.43 3.85 8.52 8.1 12.3 12.58 3.36 3.97 6.65 8.15 9.15 12.64 1 1.8 2.27 3.7 3.16 5.55 2.02 4.14 2.42 8.73 3.94 13.07a68 68 0 0 1 2.32 9.28c2.35 12.33 1.78 25.44 4.94 37.33 2.43 9.16 6.28 20.4 10.65 28.14 1.31 2.33 2 4.44 3.55 5.96 0 0 11.79 14.36 14.8 18.09 0 0 8.74 11.17 9.7 17.89.31 2.26.29 5.23-1.47 6.7-2.73 2.27-7.09 1.32-10.65.34-5.2-1.41-10.33-3.88-15.76-4.13-4.6-.2-9.58-.4-13.62 2.29 0 0-6.77 7.26-7.52 10.25 0 0-5.98 14.5-7.92 16l-31.85-22.58-14.2-7.92s15.24-15.1 1.19-67.59c0 0-11.52-20.63-29.6-28.85 0 0-11.52-10.02-32.16-5.84 0 0-19.88-3.73-37.98 19.14l-11.96 13.46z"
      ></path>
      <path
        fill="#b1673f"
        d="M998.6 400.05s-13.9-11.83-17.27-19.96c-3.9-9.42-1.26-20.35-2.24-30.5-.89-9.1-1.26-18.3-3.3-27.22-2.43-10.67-7.06-20.73-10.6-31.1-2.55-7.4-13.9-17.48-7.66-22.21 9.32-7.08 24.9 15.3 28.88 19.97 0 0 11.67 11.36 15.03 16.15 0 0 8.9 9.42 10.1 11.66 0 0 5.86 17.78 10.46 25.87 2.69 4.73 7.12 8.3 9.87 13 6.33 10.85 14.95 34.59 14.95 34.59s-2.87 1.11-4.38 1.11c-3.52 0-6.84-1.66-10.23-2.58-2.95-.8-5.85-1.74-8.79-2.53-.34-.1-.68-.22-1.03-.26-1.09-.15-2.2-.1-3.3-.06-2.44.1-5-.16-7.3.69a19.2 19.2 0 0 0-7.36 5.16c-2.58 2.83-5.56 8.77-5.72 9.98z"
      ></path>
      <path
        fill="#dad7c8"
        d="M538.49 581.24s1.03 12.08 2.9 26.79c1.73 13.64 5.98 24.83 8.5 32.71 2.82 8.82 6.81 16.64 10.8 24.69 5.6 11.25 11.55 22.37 18.38 32.92a306 306 0 0 0 16.25 22.98c2.6 3.33 5.98 7.17 8.63 10.46 5.04 6.25 10.45 11.63 15.74 17.69a404 404 0 0 0 14.9 16.02c2.6 2.66 5.03 5.6 7.64 8.45 3.36 3.67 6.82 6.9 10.22 10.28 2.77 2.74 5.85 5.75 8.7 8.4 1.96 1.81 3.85 3.46 5.28 4.73 3.96 3.52 15.15 13.55 23.38 19.49 8.3 6 17.16 11.22 26.1 16.22a198 198 0 0 0 18.31 9.16c10.6 4.43 21.12 8.3 32.27 11.2 7.95 2.07 16.45 3.52 24.51 4.96 10.91 1.94 22.33 2.68 33.4 3.29 9.08.5 18.26.63 27.32.86 14.83.38 32.61-.15 48.8-1.86 11.44-1.2 24.12-3.2 35.9-5.96 14.17-3.32 27.81-8.25 41.05-14.12 9.63-4.26 18.27-10.2 26.54-16.55 11.42-8.75 21.72-18.94 31.55-29.44 9.18-9.83 17.46-20.48 25.49-31.27a369 369 0 0 0 19.5-28.76 518 518 0 0 0 23.79-44 463 463 0 0 0 14.45-33.94c3.11-8.04 5.71-16.32 8.54-24.42.48-1.4.84-4.59.84-4.59-1.49 4.92-4.26 11.64-6.81 17.28-4.35 9.6-9.35 18.87-14.46 28.08-8.09 14.57-15.91 29.4-25.62 42.95-10.15 14.18-21.27 27.82-33.9 39.85a282.7 282.7 0 0 1-47.34 36.48c-13.1 8-27.32 14.18-41.66 19.66-14.37 5.5-29.13 10.3-44.24 13.2-25 4.78-50.65 7.94-76.07 6.73-21.2-1.02-42.12-6.14-62.62-11.65a317 317 0 0 1-48.13-17.07 281.4 281.4 0 0 1-39.15-21.74c-15.4-10.17-32.87-24.66-43.73-33.95a341 341 0 0 1-20.02-19.32 220 220 0 0 1-16.67-19.54c-11.08-14.95-20.45-31.1-30.1-47-5.27-8.67-10.5-17.38-15.18-26.39-4.5-8.66-8.4-17.62-12.36-26.54-4.03-9.07-6.8-15.76-11.62-27.42"
      ></path>
    </g>
    <path d="M760.04 243.42s-8.2-6.14-13.05-7.06c-4.48-.84-9.21.37-13.58 1.68-4.48 1.34-8.66 3.63-12.55 6.21-4.46 2.96-8.32 6.76-12.16 10.48-1.57 1.52-2.5 3.24-4.41 4.81.12-2.33.5-3.41 1.09-5.03a64.7 64.7 0 0 1 8-15.45c3.17-4.47 6.77-8.84 11.27-11.98 4.22-2.93 9.07-5.62 14.19-5.98 4.4-.32 9.14.9 12.8 3.36 4.1 2.74 7.54 7.05 8.93 11.77.68 2.3 1.15 6.54-.53 7.19M891.75 241.53s8.19-6.13 13.05-7.05c4.48-.85 9.21.37 13.58 1.68 4.47 1.34 8.66 3.63 12.55 6.21 4.46 2.96 8.32 6.75 12.16 10.48 1.56 1.51 2.5 3.24 4.4 4.81-.11-2.33-.5-3.42-1.08-5.03a64.7 64.7 0 0 0-8-15.45c-3.17-4.47-6.77-8.85-11.28-11.98-4.21-2.93-9.06-5.62-14.18-5.99-4.4-.31-9.14.91-12.81 3.37-4.1 2.74-7.53 7.05-8.93 11.77-.68 2.3-1.15 6.54.54 7.18"></path>
    <ellipse
      cx="748.83"
      cy="352.1"
      fill="#6a2710"
      rx="66.21"
      ry="73.11"
    ></ellipse>
    <ellipse
      cx="757.25"
      cy="352.08"
      fill="#3f181d"
      rx="66.07"
      ry="70.22"
    ></ellipse>
    <ellipse
      cx="757.36"
      cy="352.41"
      fill="#90421d"
      rx="62.01"
      ry="66.5"
    ></ellipse>
    <ellipse
      cx="759.74"
      cy="359.6"
      fill="#e7e5e4"
      rx="59.37"
      ry="60.65"
    ></ellipse>
    <ellipse cx="759.74" cy="360.06" fill="#fff" rx="48.21" ry="49.4"></ellipse>
    <g transform="scale(-1 1)">
      <ellipse
        cx="-894.24"
        cy="340.71"
        fill="#6a2710"
        rx="67.12"
        ry="67.44"
      ></ellipse>
      <ellipse
        cx="-890.12"
        cy="350.66"
        fill="#3f181d"
        rx="66.35"
        ry="70.86"
      ></ellipse>
      <ellipse
        cx="-890.19"
        cy="350.53"
        fill="#90421d"
        rx="62.11"
        ry="66.5"
      ></ellipse>
      <ellipse
        cx="-886.63"
        cy="359.92"
        fill="#e7e5e4"
        rx="59"
        ry="60.47"
      ></ellipse>
      <ellipse
        cx="-886.72"
        cy="360.01"
        fill="#fff"
        rx="48.3"
        ry="49.76"
      ></ellipse>
    </g>
    <path
      fill="#501202"
      stroke="#83412f"
      strokeWidth="2"
      d="M135.85 287.04c21.17-5.68-9 7.71 84.52-33.64l101.55-48.15s61.93-24.3 94.62-27.22c16.3-1.45 33.75-1.24 50.15 2.06 12.79 2.58 25.04 7.75 36.67 13.66 14.93 7.59 31.96 15.72 41.9 27.71 5.12 6.17 7.8 10.42 11.1 16.01 6.05 10.25 11.12 21.07 15.86 31.98 2.74 6.3 3.86 10.49 7.26 19.29 0 0 8.18 34.72 6.94 61.57 0 0-1.29 13.58-4.01 19.71-2.69 6.05-7.39 11.03-11.79 15.98-5.21 5.86-10.93 10.81-17.19 16.07-8.76 7.37-18.74 14.32-27.64 20.38-12.94 8.83-30.98 18.05-48.95 22.79-22.13 5.83-43.82 6.15-51.84 6-14.53-.28-44.24-6.23-63.18-14.57-18.93-8.33-59.97-40.3-72.93-58.58-12.96-18.29-11.74-18.37-17.77-27.45 0 0-10.8-21.07-19.27-29.03-5.56-5.24-7.86-8.99-19.84-11.5s-36.9 5.6-50.22 5.63c-13.31.04-19.73-.58-29.18-3.12-13.47-3.6-25.18-23.33-16.76-25.58z"
    ></path>
    <path
      fill="#91411d"
      d="M329.01 204.32c34.47-15.21 53.7-25.62 109.88-26.54 0 0 19.9-1.27 41.5 5.38 21.65 6.65 46.98 17.67 58.35 31.5 6.61 8.05 9.05 22.13 4.94 30.87-1.32 2.78-7.76 3-11.42 1.08-12.48-6.57-25.47-20.22-34.73-25.16-12.6-6.72-30.15-18-57.4-17.75-20.02.2-38.28-4.32-105.25 27.78 0 0-25 16.05-42.9 24.08 0 0-22.46 12.18-44.44 17.07-23.17 5.15-44.18 2.65-36.58-1.64 0 0 38.5-20.27 50.54-26.03 12.03-5.77 43.52-30.05 67.51-40.64"
    ></path>
    <path
      fill="#aa6d50"
      d="M354.01 199.38c12.57-8 31.24-16.2 42.29-17.9 14.42-2.23 20.74-4.72 49.07-1.85 51.85 5.25 81.18 28.7 83.03 33.33s-3.05 10.71-6.8 9.57c-8.06-2.46-13.48-6.65-21.96-11.95-13.23-8.25-29.54-14.45-37.91-16.75-17.73-4.87-30.25-6.48-44.75-5.25-7.56.64-7.33 1.02-24.7 3.34-9.78 1.3-21.62 3.98-38.57 10.86-5.84 2.37-2.45-.41.3-3.4"
    ></path>
    <path
      fill="#fd8186"
      stroke="#83422f"
      strokeWidth="2"
      d="M237.45 298.12s29.76-11.74 57.52-29.2c27.23-17.15 57.27-32.7 62.95-35.4 33-15.7 50.79-17.7 55.65-17.79 14.19-.26 35.79 1.17 46.27 4.8 18.4 6.37 24.6 10.9 36.23 18.56 17.13 11.27 29.43 21.13 47.14 39.53 11.74 12.2 26.02 27.36 39.06 51.36 0 0-.43 43.44-83.15 91.01 0 0-34.8 17.03-69.83 17.35 0 0-38.09-1.96-68.2-16.8 0 0-28.92-14.73-60.79-55.33 0 0-15.89-23.98-26.78-37.28-1.48-1.8-9.12-10.51-9.12-10.51s-12.98-14.62-26.95-20.3z"
    ></path>
    <path
      fill="#feb4b8"
      d="M334.79 266.7s-18.34 12.87-18.55 41.24c-.22 28.37 42.99 61.33 71.14 70.5 28.16 9.16 48.45 11.34 81.19 8.07 18.63-1.86 31.94-11.03 43.62-23.42 9.05-9.6 16.6-22.57 20.76-29.4 9.6-15.7 21.83-33.82 24-36 1.23-1.23-13.91-17.1-28.66-30.73-11.52-10.66-21.47-18.62-28.3-22.3 0 0-4.56-5.18-27.1-16.3 0 0-4.96-4.44-23.53-8.37-2.73-.58-10.61-2.19-16.14-2.27-5.46-.08-10.08 1.58-13.88 2.72-18.75 5.6-41.62 15.29-56.18 24.43-20.52 12.88-28.37 21.82-28.37 21.82z"
    ></path>
    <path
      fill="#501202"
      stroke="#83422f"
      strokeWidth="1.5"
      d="M1054.96 277.56s11.63-18.49 16.94-28.06c4.63-8.36 6.8-10.15 16.65-20.75 18.47-19.86 44.33-41.07 79.36-50.35 75.54-20.02 157.4 22.22 198.15 50 40.74 27.77 54.78 41.97 58.95 43.36 4.16 1.39 8.8 5.71 23.14 11.11 14.36 5.4 29.17 10.34 35.5 12.96 6.33 2.63 3.4 7.88 3.4 7.88s-8.5 7.87-16.67 11.57c-8.18 3.7-18.21 5.25-18.21 5.25s-6.18 1.23-20.37-1.55c0 0-15.13-4.47-19.91-4.16-4.78.3-5.71-1.4-20.53 4.16-14.81 5.56-31.01 22.23-34.87 25.93s-11.27 14.66-14.82 20.68-20.68 31.33-27.93 36.26c0 0-18.83 22.53-39.97 32.57-21.14 10.03-37.4 15.53-57.77 17.1-14.87 1.15-36.22.82-55.17-4.96-6.82-2.09-14.9-4.43-20.45-7.57-7.1-4.03-20.71-11.04-31.42-18.09-24.05-15.82-41.25-29.82-53.17-48.12-14.11-21.69-10.54-44.58-.83-95.22z"
    ></path>
    <path
      fill="none"
      stroke="#000"
      strokeOpacity="0.22"
      strokeWidth="1.5"
      d="m1059.36 275.64-3.71 3.93s-8.52 43.87-8.3 58.7c0 0 11.35-10.9 12.66-18.1 0 0 3.5-7.86 4.58-20.52 0 0-2.62-18.77-5.23-24z"
    ></path>
    <path
      fill="#903c1e"
      stroke="#903c1e"
      strokeWidth="1.5"
      d="M1101.86 233.03c1.63-5.84 3.44-11.23 6.06-16.46 2.14-4.3 4.12-9.04 7.83-12.1 20.2-16.61 47.08-24.63 72.84-29.16 17.87-3.14 36.46-.83 54.42 1.8 16.4 2.4 32.6 6.75 48.08 12.67 17.84 6.82 34.15 17.1 51 26.06 6.62 3.53 10.84 5.23 19.69 10.9 4.54 2.9 13.8 9.42 15.56 11.91 6.68 9.48 4.58 6 11.35 15.82 0 0 12.76 15.5 17.13 17.35 0 0 15.27 11.24 20.62 12.99l15.72 7.85s7.42 3.6 10.9 6.99c0 0 1.86 1.42.33 2.5-1.52 1.1-12.54 2.62-18.87 2.3-8.98-.45-17.91-2.69-26.3-5.9-10.94-4.17-20.98-10.55-30.66-17.12-12.46-8.45-23.46-18.87-35.03-28.49-11.93-9.9-22.93-20.99-35.47-30.11-11.41-8.3-23.02-16.73-36-22.26-7.4-3.15-15.42-4.76-23.36-6-10.04-1.59-20.31-2.68-30.45-1.86-11.48.93-22.74 4.13-33.71 7.64-12.02 3.84-23.57 9.12-34.92 14.62-10.07 4.88-19.46 11.05-29.36 16.26-4.6 2.42-11.56 6.55-13.96 6.98 0 0-4-3.19-3.44-5.18z"
    ></path>
    <path
      fill="#a86d52"
      d="M1121.12 210.6c1.28-7.17 16.84-14.05 26.62-18.76 14.68-7.09 30.8-11.44 46.93-13.75 14.83-2.13 30.08-1.82 44.95 0 10.5 1.28 20.75 4.3 30.78 7.64 7.27 2.42 19.17 7.69 21.17 8.94 7.88 4.95 6.54 3.06 7.64 4.8 0 0 1.96 2.62-3.71.44a4636 4636 0 0 0-19-7.2s-18.76-4.8-24.65-5.24c-5.9-.44-15.28-3.93-42.34-.22s-41.25 10.7-41.25 10.7-17.59 8.63-26.19 13.31c-4.95 2.7-12.44 7.86-14.62 8.51-2.18.66-7.6-2-6.33-9.16z"
    ></path>
    <path
      fill="#fd8186"
      d="M1067.65 300.3s28.87-19.86 42.6-30.73c11.23-8.9 20.63-20.12 32.47-28.2 15.06-10.25 30.95-20.24 48.45-25.3 18.65-5.41 38.98-8.4 58.06-4.81a133.2 133.2 0 0 1 34.87 11.63c9.38 4.72 17.29 11.91 25.8 18.05 12.65 9.13 25.4 18.13 37.54 27.94 12.19 9.85 29.24 23.57 35.35 30.99 0 0-18.45-1-27.06 1.74a35.8 35.8 0 0 0-14.84 9.17c-10.34 10.83-14.43 26.26-21.82 39.28-5.78 10.17-10.4 21.14-17.6 30.35-9.07 11.61-22.21 24.18-31.73 30.76-13.28 9.2-29.86 13.3-45.83 15.71a156.9 156.9 0 0 1-55.87-1.74c-18.62-4-36.01-12.85-52.81-21.83-12.4-6.62-24.03-14.73-35.05-23.46-4.27-3.38-8.14-7.24-11.95-11.12-3.7-3.78-7.3-7.67-10.56-11.82-3.67-4.68-8.41-12.1-10.1-14.7 0 0 20.08-24.01 20.08-41.9z"
    ></path>
    <path
      fill="#feb4b8"
      d="M1154.4 235.16c9.57-3.29 20.05-3.43 30.17-3.31 14.44.16 29.37 2.68 42.94 5.7 20.72 4.64 41.45 12.55 58.5 25.22 10.1 7.51 21.52 16.63 24.33 28.91.36 1.58-1.2 4.7-1.2 4.7s-13.37 7.48-18.66 12.87c-8.17 8.32-12.77 19.5-19.32 29.14-9.16 13.49-14.82 30.46-27.93 40.15-14.1 10.42-32.69 13.91-50.1 16.04-13.09 1.6-26.79.94-39.5-2.61-15.4-4.32-29.98-12.26-42.55-22.16-8.27-6.5-14.82-15.08-20.73-23.78-5.04-7.42-9.82-15.72-12.33-23.9 0 0-8.64-17.42-9.19-23.32 0 0 22.68-14.77 33.27-23.16 10.23-8.13 18.67-18.4 29.13-26.23 7.26-5.43 14.6-11.32 23.17-14.26"
    ></path>
    <path
      fill="#631108"
      d="m694.58 694.6 315.67-21.22-69.86 63.65s-91.08 41.92-111.78 32.08c-20.7-9.83-111.77-40.88-125.75-53.3-13.97-12.42-8.28-21.21-8.28-21.21"
    ></path>
    <path
      fill="#fff"
      stroke="#a2a4a4"
      strokeWidth="1.5"
      d="m795.56 745.9.7-10.81-17.71-2.4s-3.03 7.48-1.69 8.48c1.56 1.16 18.65 5.44 18.7 4.72z"
    ></path>
    <path
      fill="#cfcfcf"
      d="m794.98 745.18.58-7.37s-6.08 2.13-9 1.23c0 0-7.24-1.04-8.47-3.24l-1.16 4.98s4.7 1.37 9.35 2.56c3.88.98 7.73 1.81 8.7 1.84"
    ></path>
    <path
      fill="#fff"
      stroke="#a2a4a4"
      strokeWidth="1.5"
      d="M812.57 748.6c.66-.25.71-13.25.71-13.25l-15.07.26s-1.06 10.52-.26 10.93c2.68 1.38 13.3 2.58 14.62 2.07z"
    ></path>
    <path
      fill="#cfcfcf"
      d="m812.22 748.32.27-8.19s-4.06 1.05-6.13.98c-2.7-.1-7.18-.46-7.9-1.82l-.32 6.78 6.87 1.43z"
    ></path>
    <path
      fill="#fff"
      stroke="#a2a4a4"
      strokeWidth="1.5"
      d="M833.46 750.74s.84-12.16-1.55-15.4c0 0-.84-2.26-15.85.14 0 0-1.23 13.2-.77 13.39.45.2 18.04 2.71 18.17 1.87z"
    ></path>
    <path
      fill="#cfcfcf"
      d="M832.88 750.36v-6.67s-4.29.68-7.7.71c-3.2.04-4.33 0-8.92-2.32l-.46 6.33z"
    ></path>
    <path
      fill="#fff"
      stroke="#a2a4a4"
      strokeWidth="1.5"
      d="M855.33 751.23c1.1-.07-.15-8.63-.55-11.53-.27-1.99-2.12-4.17-4.11-4.39-2.59-.28-14.62-1.33-14.46-.1.31 2.4-.8 15.6.37 16.02z"
    ></path>
    <path
      fill="#cfcfcf"
      d="m855.24 750.77-1-10.7c-3.57 1.74-6.23 4.2-9.98 4.48 0 0-6.58 0-7.6-1.1l.2 7.05z"
    ></path>
    <path
      fill="#fff"
      stroke="#a2a4a4"
      strokeWidth="1.5"
      d="M876.28 750.31c.33-.9-.28-10.25-1.92-13.26-1.34-2.45-5.6-1.81-8.5-1.83-2.19-.02-4.83-.21-6.41 1.28-1.58 1.5-1.65 2.65-1.65 6.31 0 0-.18 8.14.46 8.42 0 0 17.6.25 18.02-.92z"
    ></path>
    <path
      fill="#cfcfcf"
      d="m875.96 750.5-.82-8.28s-5.27 2.16-8.74 2.51c-2.12.22-6.22 1.15-8.05-.6l.23 6.6z"
    ></path>
    <path
      fill="#fff"
      stroke="#a2a4a4"
      strokeWidth="1.5"
      d="M893.75 747.64s-.4-6.59-.71-9.7c-.16-1.67-.52-2.46-3.17-3.63-1.54-.67-7.9-.37-9.9 1.3-1.22 1.02-2.2 1.48-1.97 5.6 0 0 .26 8.92 1.33 9.21 1.65.45 14.46-2.2 14.42-2.78z"
    ></path>
    <path
      fill="#cfcfcf"
      d="m893.07 747.28-.67-8.08s-2.98 2.23-5.57 1.97c0 0-6.25 1-8.13-.3 0 0 .33 9 .92 9.2l6.44-1.18a67 67 0 0 0 7.01-1.6z"
    ></path>
    <path
      fill="#fff"
      stroke="#a2a4a4"
      strokeWidth="1.5"
      d="M896.31 735.5s-1.36 11.11.1 11.7c1.53.63 10.08-2.44 11.43-3.2 1.15-.65-1.42-11.76-2.56-12.26-1.38-.6-8.97 1.34-8.97 3.75z"
    ></path>
    <path
      fill="#cfcfcf"
      d="M907.57 743.73s-.08-2.21-.27-3.3c-.2-1.18-.92-3.47-.92-3.47s-2.2 1.83-4.85 2.56c0 0-3.84 1.1-5.03.64v6.58l5.03-1.18z"
    ></path>
    <path
      fill="#fff"
      stroke="#a2a4a4"
      strokeWidth="1.5"
      d="M909.21 735.48c.11 2.04.88 7.3 1.42 7.11 3.32-1.16 19.51-8.15 18.24-9.38-1.34-1.3-5.1-2.28-8.27-2.9 0 0-6.21-1.17-7.9.12-2.08 1.6-3.62 2.72-3.49 5.05z"
    ></path>
    <path
      fill="#cfcfcf"
      d="m910.18 736.16.38 5.58s5.07-1.45 9.15-3.4c3.9-1.86 8.26-4.46 8.43-4.97 0 0-1.79-1.39-7.54-2.49 0 0-9 5.57-10.42 5.28"
    ></path>
    <path
      fill="none"
      stroke="#83422f"
      strokeWidth="4"
      d="M669.23 700.29s33.3 46.52 55.37 64.17c14.58 11.66 31.87 20 49.42 26.39 15.65 5.7 32.33 8.57 48.9 10.35 15.52 1.67 31.27 1.46 46.83.26 18.38-1.42 37.27-2.5 54.6-8.8 15.37-5.58 29.54-14.7 42.17-25.1 11.01-9.06 19.82-20.59 28.53-31.89 5.92-7.69 11.01-16 16.04-24.32 5.98-9.9 12.48-21.05 16.77-30.37"
    ></path>
    <path
      fill="#f8878c"
      stroke="#f8878c"
      strokeWidth="4"
      d="M677.21 705.33s6.12 10.6 16.77 22.3c6.04 6.63 12.31 14.07 18.12 19.93 4.28 4.33 8.25 7.48 11.98 11.18 4.59 4.54 17.27 12.94 26.67 18.17 7.41 4.12 15.2 7.67 23.27 10.28a240 240 0 0 0 45.88 9.77 260.3 260.3 0 0 0 50.2 1.16c18.38-1.42 37.3-3.38 54.44-9.76 8.94-3.33 16.5-7.68 24.57-12.9 5.94-3.85 13.21-9.65 17.37-13.15 8.97-7.55 18.83-20.22 27.1-31.24 5.73-7.64 10.47-15.97 15.53-24.06a960 960 0 0 0 12.54-20.73s-37.2 9.05-41.04 10.39c-5.06 1.77-21.75 12.84-28.12 19.26-8.89 8.95-20.05 19.36-32.2 25.78-7.74 4.09-17.9 6.42-25.08 7.67-7.25 1.26-30.5 4.16-37 4.22-5.79.05-39.52-1.7-58.92-5.23-13.05-2.38-25.85-6.18-38.33-10.66-13.9-4.98-27.07-11.82-40.5-17.95a106 106 0 0 1-9.42-4.91c-5-3.08-8.2-5.48-8.97-5.64-7-1.45-13.54-1.55-24.86-3.88z"
    ></path>
    <path
      fill="#fcb6ba"
      d="M737.06 752.83c7.03 6.47 16.53 11.27 25.31 16.03 6.28 3.4 12.75 6.55 19.5 8.88a168.5 168.5 0 0 0 33.12 8.02c11.97 1.56 24.15 1.26 36.22.78a329 329 0 0 0 40.88-4.14c11.62-1.94 23.34-4.02 34.42-8.02 9.13-3.3 18.25-7.24 26.04-13.03 7.81-5.8 14.92-12.94 20.04-21.22 4.2-6.78 7.53-14.53 8.25-22.48.37-4.04.57-10.13-2.05-11.99-3.88-2.74-8.22-.57-13.14 4.14-5.88 5.65-11.33 9.74-14.27 11.98-5.6 4.26-11.63 9.16-17.98 12.92a124 124 0 0 1-19.4 9.32 162.6 162.6 0 0 1-28.46 8.02c-10.31 1.86-20.85 2.25-31.31 2.58-8.97.29-17.96.04-26.91-.51-7.45-.46-14.91-1.02-22.25-2.33-8.94-1.6-17.69-4.15-26.4-6.73-7.24-2.14-14.49-4.36-21.47-7.24-5.95-2.46-12.67-5.06-17.34-8.54-4.72-3.53-15.44-9.6-19.27-7.86-2.5 1.13-2.74 13.74 16.47 31.42"
    ></path>
    <path
      fill="#fff"
      d="M910.4 753.97c-4.35 1.46-10.1 4.22-10.61 8.78-.3 2.6 2.34 5.24 4.76 6.22 4.22 1.72 9.45.03 13.54-2 5.13-2.57 14.3-6.73 12.25-12.08-2.38-6.22-13.63-3.03-19.94-.92M942.05 743.9c2.45-.66 6.5-1.04 7.5 1.29.87 2.02-1.85 4.24-3.65 5.49a12.23 12.23 0 0 1-8.6 2.01c-1.27-.2-3.2-.73-3.3-2.01-.26-3.5 4.67-5.85 8.05-6.77z"
    ></path>
    <path
      fill="#fff"
      stroke="#a2a4a4"
      strokeWidth="2"
      d="M771.72 708.64s1.57 7.76 3.39 14.87c1.22 4.8 2.75 9.44 5.06 10.23 4.03 1.4 9.41 1.5 14.15 1.87 4.56.35 9.15.46 13.73.35 3.88-.1 8.94-.18 12.79-.59 6.75-.72 17-2.79 19.33-4.08 0 0 2.6-.55 4.4-7.53 0 0 1.16-13.88 1.06-15.62 0 0 .19-11.62-.09-13.26l-23.6 4.88-21.37 3.98z"
    ></path>
    <path
      fill="#cecece"
      d="m772.89 709.44 71.88-13.39s.64 18.7-1.3 28.02c-.31 2.57-1.26 4.53-3.17 6.1-.3.24-1.3.62-1.98.86-2.11.75-4.9 1.26-9.08 2.04 0 0 2.26-8.57 1.67-12.85-.54-3.85-1.59-8.24-4.58-10.7-1.23-1.02-3.07-.97-4.66-1.01-16-.43-47.41 7.61-47.41 7.61z"
    ></path>
    <path
      fill="#fff"
      stroke="#a2a4a4"
      strokeWidth="2"
      d="M847.74 694.24s36.59-5.13 42.17-4.58c2.56-.55 42.54 3.2 45.92 4.3-.09 1.28-.91 9.33-1.46 10.61-1.46 3.4-5.31 10.87-7.32 13.08-3.1 3.42-6.47 6.67-10.52 8.79-3.81 1.98-8.2 2.69-12.44 3.38-6.93 1.14-14.02 1.08-21.04 1.24-5.46.12-10.96.42-16.38-.23-4.87-.59-12.2-1.61-14.36-3.3-3.06-2.39-3.84-4.48-4.2-7.04-.38-2.62-.74-14.18-.46-16.56 0 0-.37-8.87.09-9.7z"
    ></path>
    <path
      fill="#cecece"
      d="M848.33 695.23s-.45 23.78 1.26 27.35c.43.9-.05 1.08 2.31 3.38.5.5.68.66 1.74 1.26.95.53 2.36.82 3.8 1.22a36 36 0 0 0 7.13 1.08s-.37-6.33-.46-9.4c-.15-5.56.12-7.94.28-9.5.4-4.1.37-6.46 2.38-8.7 1.44-1.61 2.83-2.61 6.86-2.47l60.24 2.65 1.12-7.38s-25.55-3.35-38.4-3.96a110 110 0 0 0-13.95.11c-5.16.4-13 1.65-19.39 2.25-7.59.73-12.5 1.71-14.92 2.11"
    ></path>
    <path
      fill="#fe8185"
      stroke="#83422f"
      strokeWidth="3"
      d="M792.68 397.08c-16.3 1.5-32.96 2.97-48.4 8.45-13.35 4.75-25.7 12.36-37.11 20.77-11.1 8.16-19.54 19.48-30.01 28.44a275 275 0 0 1-18.37 14.16c-5.89 4.23-12.36 7.64-18.08 12.1-7.45 5.82-14.74 11.98-21.04 19.03-8.75 9.78-16.68 20.46-23 31.96-5.9 10.75-10.88 22.2-13.64 34.15-3.12 13.46-4.57 27.6-3.08 41.35 1.6 14.67 4.74 29.98 12.7 42.4 10.86 16.96 27.56 30.47 45.35 39.9 17.63 9.35 38.16 12.5 57.95 15.01 28.33 3.61 57.2 2.36 85.66 0 20.72-1.73 40.88-7.75 61.52-10.29 15.3-1.88 30.7-3.88 46.13-3.66 10.91.16 21.65 2.86 32.54 3.52 19.54 1.19 39.3 3.15 58.73.8 16.6-2 33.64-5.01 48.54-12.6 8.23-4.17 14.67-11.23 21.4-17.55 4.3-4.04 8.45-8.29 12.05-12.96 6.7-8.7 13.8-17.52 17.62-27.82 6.62-17.85 9.98-37.56 8.26-56.52-1.26-13.96-7.47-27.17-13.46-39.84-5.37-11.34-11.71-22.45-19.92-31.93-9.32-10.76-21.05-19.28-32.62-27.56-8.11-5.8-17.09-10.3-25.66-15.4-11.74-6.98-23.52-13.9-35.3-20.83-13.04-7.67-25.08-17.42-39.17-22.96-18.52-7.27-38.47-10.9-58.25-12.95-23.66-2.46-47.66-1.36-71.34.83z"
    ></path>
    <path
      fill="#feb4b8"
      d="M782.47 556.27c-12.1-8.13-23.71-17.61-37.38-22.67-11.11-4.12-23.24-5.42-35.09-5.81-11.97-.4-24.16.54-35.77 3.5-11.08 2.82-20.95 9.16-31.56 13.4-10.42 4.18-20.37 10.6-31.52 11.86-6.63.75-15.58 2.47-19.84-2.66-3.12-3.77 1.67-11.06 3.95-16.09 6.23-13.78 16.51-26.49 25.98-37.2 2.75-3.13 6.68-7.3 9.8-10.06 3.6-3.19 6.8-5.48 10.58-8.44 4.63-3.64 9.77-6.56 14.57-9.97 4.45-3.17 8.9-6.36 13.2-9.74 3.19-2.5 6.3-5.09 9.33-7.8 3.49-3.12 6.74-6.5 10.14-9.72 5.28-4.98 10.65-10.43 15.93-14.85 4.97-4.15 9.92-8.1 15.17-11.64 5.91-3.98 11.88-6.7 18.49-9.35 18.06-7.21 38.91-9.16 58.75-11.03 23.2-2.18 46.77-2.8 69.92-.11 19.91 2.32 39.9 6.43 58.5 13.9 6.5 2.6 11.32 6.77 18.14 10.63 2.92 1.65 5.34 3.87 8.11 5.66 5.45 3.55 11.12 6.75 16.71 10.07 4.33 2.56 8.68 5.08 13.02 7.62 6.66 3.9 13.31 7.81 20 11.68 4.15 2.41 8.46 4.56 12.49 7.18 5.25 3.41 10.67 6.72 15.17 11.07 3.9 3.77 8.79 7.53 10.02 12.8.59 2.55.22 5.8-1.6 7.66-6.02 6.18-16.74 4.2-25.18 5.95-11.38 2.37-23.1 3.14-34.33 6.16-13 3.5-26.04 7.5-37.94 13.77-10.03 5.29-18.37 13.28-27.62 19.82-8.67 6.12-17.15 12.54-26.13 18.2-8.75 5.5-17.3 11.64-27 15.24-7.42 2.77-15.39 4.95-23.32 4.7-11.68-.35-23.35-3.94-33.87-9.02-7.41-3.57-13-10.12-19.82-14.71"
    ></path>
    <path
      fill="#fff"
      d="M800 415.54c-11.66 2.47-23.06 6.3-34.1 10.81a197 197 0 0 0-27.4 13.84c-7.22 4.36-14 9.42-20.6 14.68-5.59 4.47-10.78 9.41-16.03 14.29-3.82 3.55-7.75 7.01-11.24 10.89-4.84 5.37-9.05 11.88-13.4 17.07.4-3.62 3.29-15.7 7.08-22.65a123.3 123.3 0 0 1 30.15-36.01c8.93-7.28 19.7-12.2 30.44-16.4 9.42-3.7 19.36-6.23 29.38-7.63 8.16-1.14 16.5-1.08 24.72-.59 2.39.15 7.1 1.04 7.1 1.04s-4.1.24-6.1.66"
    ></path>
    <path
      fill="#8e4039"
      d="M743.25 580.76c-6.73-7.48-10.24-11.02-16.02-15.8-5.63-4.67-11.43-9.38-18.06-12.46-8.82-4.1-18.42-7.23-28.13-7.64-8.34-.36-16.85 1.48-24.64 4.48-9.34 3.6-17.73 9.54-25.51 15.85-3.79 3.07-10.12 10.55-10.12 10.55 1.08-2.95 7.9-11 12.95-15.42 6.73-5.88 14.2-11.42 22.65-14.34a72.3 72.3 0 0 1 33.44-3.41c9.93 1.42 19.37 6.03 27.87 11.37 8.47 5.3 15.57 12.66 22.29 20.06 4.67 5.15 12.38 16.79 12.38 16.79-5.46-6.05-4.46-4.88-9.1-10.03"
    ></path>
    <path
      fill="#feb4bb"
      d="M646.76 572.87c3.7-1.48 7.45-2.95 11.36-3.68 7.45-1.4 15.24-2.55 22.72-1.3 10 1.66 19.17 6.8 28.16 11.48 5.22 2.72 9.97 6.27 14.83 9.6 3.43 2.35 6.4 5.45 10.12 7.32 2.9 1.45 6.48 3.56 9.28 2.9 2.65-.61.83-4.97-2.02-9.8-2.3-3.88-5.26-8.06-7.13-10.85-3.52-5.27-8.25-9.71-13.1-13.78a72.2 72.2 0 0 0-14.84-9.78c-5.83-2.81-12.05-5.18-18.48-6.01-7.48-.98-15.4-1-22.6 1.25-7.05 2.2-13.35 6.66-18.88 11.55-2.84 2.52-6.12 6.64-7.08 8.92-1.47 3.5-1.03 5.15-1 6.6 2.22-.75 4-2.55 8.66-4.42"
    ></path>
    <path
      fill="#f44d5b"
      d="M656.07 574.41c0 .69.48 8.28 1.51 16.22.6 4.57 1.57 7.65 2.82 10.9a40.6 40.6 0 0 0 8.72 13.7c4.94 5.08 11.23 8.81 17.61 11.86 4.35 2.09 9.14 3.15 13.83 4.28 5.46 1.3 10.99 2.67 16.6 2.86 6.02.2 17.03-1.53 17.97-1.9.66-.24.83 7.94-.17 11.71-.79 2.95-2.54 5.62-4.42 8.02-1.34 1.71-2.87 3.42-4.8 4.43-4.83 2.56-10.52 3.54-15.98 3.66-9.72.23-19.46-2.16-28.7-5.17-8.09-2.64-16.72-5.37-22.96-11.15-5.48-5.08-8.95-12.26-11.3-19.36-2.74-8.3-3.2-17.32-2.9-26.06.2-5.28 0-11.17 2.88-15.6 3.32-5.12 9.34-11.11 9.3-8.98z"
    ></path>
    <path
      fill="#5b1106"
      d="M656.2 573.66c.37-1.26 10.2-2.82 15.44-2.82a64.9 64.9 0 0 1 21.87 3.97c9.1 3.26 18.36 7.43 25.3 14.15a48.5 48.5 0 0 1 9.46 12.33 75 75 0 0 1 4.08 9.38c2.4 6.66 3.4 16.2 3.11 22.23 0 0-3.6 1.07-5.44 1.37-2.6.42-5.79.61-7.85.61-10.58 0-20.8-2.32-30.53-5.87-7.8-2.83-15.8-6.32-21.74-12.1-5.56-5.4-9.56-12.59-11.9-19.98-2.36-7.41-2.37-21.37-1.8-23.27"
    ></path>
    <path
      fill="#f44d5b"
      d="M1034.22 557.58c-.01.68-.78 8.25-2.09 16.14a43.9 43.9 0 0 1-3.2 10.8 40.6 40.6 0 0 1-9.21 13.38c-5.12 4.89-11.54 8.4-18.03 11.22-4.43 1.92-9.25 2.82-13.98 3.77-5.5 1.12-11.07 2.28-16.69 2.27-6.02-.02-16.96-2.14-17.9-2.54-.64-.27-1.1 7.9-.24 11.7.68 2.98 2.34 5.7 4.13 8.17 1.28 1.76 2.75 3.52 4.64 4.6 4.74 2.73 10.38 3.92 15.84 4.24 9.7.58 19.52-1.46 28.86-4.14 8.18-2.35 16.9-4.76 23.35-10.32 5.66-4.88 9.38-11.93 11.98-18.93 3.04-8.2 3.83-17.2 3.83-25.94 0-5.3.42-11.17-2.3-15.7-3.14-5.24-8.94-11.44-8.98-9.3z"
    ></path>
    <path
      fill="#5b1106"
      d="M1034.13 556.82c-.33-1.28-10.1-3.19-15.34-3.38-7.4-.27-14.94.93-22 3.18-9.2 2.94-18.61 6.77-25.8 13.24a48.4 48.4 0 0 0-9.89 11.98 75 75 0 0 0-4.41 9.23c-2.64 6.57-3.99 16.06-3.91 22.1 0 0 3.56 1.2 5.39 1.56 2.57.52 5.76.82 7.83.9 10.56.38 20.86-1.58 30.72-4.77 7.89-2.55 16-5.75 22.16-11.31 5.75-5.2 10-12.24 12.6-19.54 2.63-7.33 3.14-21.28 2.65-23.19"
    ></path>
    <path
      fill="#8e4039"
      d="M932.52 588.86s5.7-13.34 8.92-19.84a127 127 0 0 1 6.66-12.22c2.37-3.7 5-7.23 7.9-10.54a68.4 68.4 0 0 1 9.03-8.9c4.8-3.79 10-7.24 15.6-9.7a69 69 0 0 1 17.28-4.8 84 84 0 0 1 20.15-.66c4.9.44 9.66 1.89 14.43 3.1 4.16 1.07 11.28 2.6 12.36 3.66l1.22.4c-.56-1.04-6.62-3.99-10.22-5.36a69.2 69.2 0 0 0-17.8-4.43c-9.72-.92-19.8-.89-29.25 1.57a66.9 66.9 0 0 0-22.69 11.12c-7.02 5.2-12.82 12.06-17.89 19.19-3.35 4.73-5.8 10.06-8.1 15.38-3.09 7.13-7.6 22.03-7.6 22.03"
    ></path>
    <path
      fill="#feb4bb"
      d="M947 578.3a64.16 64.16 0 0 1 10.52-27.76c4.13-6.06 10.05-10.94 16.3-14.78 6.23-3.8 13.23-6.78 20.45-7.78 9.23-1.27 18.9-.12 27.84 2.51 6.14 1.8 12.5 4.35 16.99 8.9 2.38 2.43 5.12 8.31 4.58 9.12-.59.86-6.35.01-8.41-.35-2.07-.35-12.44-1.67-18.67-1.32-7.58.42-15.1 2.02-22.4 4.13-5.13 1.48-10.27 3.24-14.88 5.94-4.7 2.74-8.92 6.36-12.75 10.23-3.07 3.1-6.07 7.5-8.1 10.28-.97 1.32-7.35 12.12-9.75 11.34-1.87-.61-2.34-5.55-1.73-10.46z"
    ></path>
    <g transform="translate(.4 5.2)">
      <circle cx="886.32" cy="354.81" r="15.31" fill="#803300"></circle>
      <circle cx="886.32" cy="354.81" r="15.31" fill="url(#c)"></circle>
      <circle cx="886.32" cy="354.81" r="15.31" fill="url(#d)"></circle>
      <circle cx="886.32" cy="354.79" r="8.97"></circle>
      <circle
        cx="891.51"
        cy="347.3"
        r="2.63"
        fill="#fff"
        opacity="0.9"
      ></circle>
    </g>
    <g transform="translate(.98 1.86)">
      <circle cx="758.75" cy="358.2" r="15.31" fill="#803300"></circle>
      <circle cx="758.75" cy="358.2" r="15.31" fill="url(#e)"></circle>
      <circle cx="758.75" cy="358.2" r="15.31" fill="url(#f)"></circle>
      <circle cx="758.75" cy="358.18" r="8.97"></circle>
      <circle
        cx="763.94"
        cy="350.69"
        r="2.63"
        fill="#fff"
        opacity="0.9"
      ></circle>
    </g>
    <path
      fill="#803300"
      stroke="#520"
      strokeWidth="2"
      d="M859.46 190.64s31.2-11.3 42.5-9.69c0 0 21.53 8.62 26.37 14.54l12.37 11.3c2.7-10.23 4.44-32.97 1.62-39.7 0 0-13.45-20.04-20.45-24.35 0 0-6.45-2.15 1.62-7.53 0 0 22.99-14.91 26.42-20.03-1.47-.2-10.37-4.22-14.1-4.79-12.82-1.94-24.69-1.23-32.63 2.88-7.36 3.82-16.82 5.79-26.5 18.7 0 0-22.06 2.7-32.82 14.54-.54 3.77.54 28.52 15.6 44.13z"
    ></path>
    <path
      fill="#803300"
      stroke="#520"
      strokeWidth="2"
      d="M875.07 231s9.14-16.14 2.15-30.13l-18.83-29.07s-15.07-9.15-10.76-22.6c0 0 15.6-16.68 25.82-18.3 0 0-2.15-11.3-10.76-17.22 0 0-16.14-10.77-44.12 4.84 0 0-31.2 12.92-46.27 12.38 0 0-33.65-3.5-42.5-7-5.57-2.2-23.5-11.01-22.67-22.8 0 0-7.88 11.73-.47 22.8 4.44 6.62 11.3 18.3 27.98 24.22 11.62 4.13 9.15.54 16.14 1.08-19.37 5.38-22.6 6.46-29.05 12.38 0 0-14.4 7.25-20.86 22.86-.85 3.67-7.66 18.58-2.28 25.58 10.76-8.61 21.04-15.5 28.36-20.36 0 0 10.97-4.1 17.07-4.21-3.97 3.91-2.49 10.3-1.5 15.34.64 3.31 2.72 6.23 4.69 8.97 3.34 4.65 7 9.41 11.88 12.4 4.76 2.92 10.55 3.8 16.03 4.83 4.63.86 10.31 3.2 14.08 1.05-7-9.69-19.27-18.21-19.27-24.14 0 0 10.44 1.81 17.98-3.03 2.15 12.91 10.48 19.98 13.45 21.65 7.23 4.09 13.78 8.54 22.06 10.26l6.99 1.46c-10.22-9.7-10.76-23.15-8.6-30.14l1.6-10.77c5.39 9.69 5.39 9.15 15.07 16.15 0 0 20.85 9.18 24.75 12.38z"
    ></path>
    <path
      fill="#a40"
      d="M774.13 150.63s-10.66 13.32-11.8 17.12c10.27-2.28 19.79-10.27 28.16-11.42l17.12-6.47c-.77 10.66-20.32 44.37-20.32 44.37 6.46-7.99 33.63-50.83 33.63-50.83 2.66 14.08 1.52 13.32 7.23 26.25 0 0 15.22 17.51 24.35 25.12 0 0 14.45 12.94 14.07 15.99 0 0 5.33 14.36 6.47 16.4-.2-3.32 1.9-17.16 1.14-23.63 0 0-4.94-20-10.64-25.72 0 0-2.02-3.86-3.58-5.5-1.93-2.02-3.27-3.07-6.44-5.93-4.23-3.82-5.03-13.6-4.17-16.37 0 0 11.89-13.88 18.73-15.78 0 0 2-.93 3.53-5.11 0 0-.81-13.5-18.8-18.78l-64.96 19.62 30.03-5.97s-38.8 21.3-44.13 27.78M915.96 135.2s13.18-2.68 16.14-6.99c0 0 9.41-8.61 9.41-11.57-13.18-3.5-19.37-3.77-26.9-1.62 0 0-19.1 5.12-26.9 11.57 0 0-7 6.46-8.6 11.04 8.33-.8 23.4-7.27 28.24-6.2zM942.59 197.9s1.07-23.94 0-28.52c0 0-8.61-15.07-14.26-19.64l-17.49-14s-10.22.81-15.33 4.58c0 0-7 4.84-2.96 8.34l24.21 16.69c-11.57-1.89-33.16.6-35.8-2.16 0 0 7.82 3.5 14.28 6.46 0 0 16.95-1.61 30.4 12.65z"
    ></path>
  </svg>

