<svg xmlns="http://www.w3.org/2000/svg" xmlns:xlink="http://www.w3.org/1999/xlink" viewBox="0 0 100 100">
  <defs>
    <radialGradient xlink:href="#a" id="b" cx="50" cy="50" r="49.33" fx="50" fy="50" gradientTransform="matrix(1 0 0 .86 0 7.08)" gradientUnits="userSpaceOnUse"/>
    <linearGradient id="a">
      <stop offset="0" stop-color="#34a034"/>
      <stop offset=".5" stop-color="#34a16e" stop-opacity=".71"/>
      <stop offset="1" stop-opacity="0"/>
    </linearGradient>
  </defs>
  <g>
    <path d="M.5.3h100v100H.5z"/>
    <path d="M48.8 7.67a49.11 49.11 0 0 0-28.08 9.61 49.3 49.3 0 0 0-19.33 48.1c.8-1.1 1.65-2.2 2.55-3.29C17.8 45.43 35.77 41.15 41.22 40.06c-3.03-.67-4.59-2.07-5.34-2.93-3.68-4.19-2.99-12.4 2.48-19.84-.6 1.88-1.3 5.06-.52 8.77.29 1.38.55 2.59 1.45 3.82 1.88 2.53 4.96 3.02 9.14 3.62 4.97.7 8.16 1.16 9.2-.54 1-1.6-.29-4.55-2.57-7.25a26.86 26.86 0 0 1 5.64 3.85c2.21 1.96 2.86 3.2 3.1 3.72.48 1 .71 1.93.83 2.72v.05l.05.35v.01l.05.56.03.02a23.55 23.55 0 0 1 8.52 7.52c1.33 1.8 2.05 3.15 2.46 3.84.96 1.61 2.7 3.77 6.13 5.97.3-.1 1.52-.47 2.64.16.45.26.7.58.85.76 1.13 1.42.75 3.3.7 3.52a5.07 5.07 0 0 1-3.1 3.51 6.3 6.3 0 0 1-.62 1.88c-1.39 2.64-4.71 4.26-7.36 3.74-1.27-.25-1.62-.83-2.6-1.69a11.9 11.9 0 0 0-1.43-1.06c-2.53-1.62-8.14-3.97-12.61-1.69a10.65 10.65 0 0 0-3.85 3.42c-3.18 4.46-2.84 10.75-.92 14.94 3.4 7.43 12.51 10.51 18.32 10.54 9.39.03 18.6-6.69 24.04-17.34a49.1 49.1 0 0 0 1.9-30.1A49.35 49.35 0 0 0 48.8 7.67Z"/>
    <path fill="url(#b)" d="M48.8 7.67a49.1 49.1 0 0 0-28.08 9.61 49.31 49.31 0 0 0-19.33 48.1c.8-1.1 1.65-2.2 2.55-3.29C17.8 45.43 35.77 41.15 41.22 40.06c-3.03-.67-4.59-2.07-5.34-2.93-3.68-4.19-3-12.4 2.48-19.84-.6 1.88-1.3 5.06-.52 8.77.29 1.38.55 2.59 1.45 3.82 1.88 2.53 4.96 3.02 9.14 3.62 4.97.7 8.16 1.16 9.2-.54 1-1.6-.29-4.55-2.57-7.25a27 27 0 0 1 5.64 3.84c2.21 1.97 2.86 3.22 3.1 3.73.48 1 .71 1.93.83 2.72v.05l.05.35v.01l.05.56.03.01a23.55 23.55 0 0 1 8.52 7.53c1.33 1.8 2.05 3.15 2.46 3.84.96 1.61 2.7 3.77 6.13 5.97.3-.1 1.52-.47 2.64.16.45.26.7.58.85.76 1.13 1.42.75 3.3.7 3.52a5.07 5.07 0 0 1-3.1 3.51 6.3 6.3 0 0 1-.62 1.88c-1.39 2.64-4.71 4.26-7.36 3.74-1.27-.25-1.62-.83-2.6-1.69a11.9 11.9 0 0 0-1.43-1.06c-2.53-1.62-8.14-3.97-12.61-1.69a10.65 10.65 0 0 0-3.85 3.42c-3.18 4.46-2.84 10.75-.92 14.94 3.4 7.43 12.51 10.51 18.32 10.54 9.39.03 18.6-6.69 24.04-17.34a49.1 49.1 0 0 0 1.9-30.1A49.35 49.35 0 0 0 48.8 7.67Z"/>
  </g>
  <g/>
</svg>
